<svg width="360" height="163" viewBox="0 0 360 163" fill="none" xmlns="http://www.w3.org/2000/svg">
<path d="M163.5 23.5C99.6054 24.8648 0 9 0 9V43.5L330 35.5V7C330 7 228.754 22.1062 163.5 23.5Z" fill="#7FCFEF"/>
<path d="M178.364 146.342C108.66 145.295 0 157.466 0 157.466V131L360 137.137V159C360 159 249.549 147.412 178.364 146.342Z" fill="#7FCFEF"/>
<path d="M-1 149.5V19C-1 19 108.05 31.2387 177.748 27.1268C249.543 22.8911 360 1 360 1V159C360 159 243.5 141 179.75 141C109.5 141 -1 149.5 -1 149.5Z" fill="#FF8711" stroke="#7FCFEF"/>
<path d="M5.60058 59V40.4245H13.1635C14.1719 40.4245 15.0829 40.681 15.8967 41.194C16.7282 41.6894 17.3916 42.3705 17.887 43.2373C18.3823 44.1042 18.63 45.0683 18.63 46.1298C18.63 47.1913 18.3823 48.1554 17.887 49.0223C17.3916 49.8891 16.7282 50.5879 15.8967 51.1187C15.0829 51.6317 14.1719 51.8882 13.1635 51.8882H8.46652V59H5.60058ZM8.46652 49.1284H13.1104C13.5881 49.1284 14.0215 48.9957 14.4107 48.7304C14.7999 48.4473 15.1095 48.0847 15.3395 47.6424C15.5871 47.1824 15.711 46.6782 15.711 46.1298C15.711 45.5814 15.5871 45.086 15.3395 44.6438C15.1095 44.2015 14.7999 43.8477 14.4107 43.5823C14.0215 43.3169 13.5881 43.1843 13.1104 43.1843H8.46652V49.1284ZM18.7457 59L25.9371 40.4245H28.8561L35.9944 59H32.9427L28.6969 47.8016C28.6438 47.6778 28.5376 47.377 28.3784 46.8994C28.2369 46.4217 28.0688 45.891 27.8742 45.3072C27.6796 44.7234 27.5027 44.1926 27.3435 43.715C27.1843 43.2196 27.0781 42.9012 27.0251 42.7597L27.6354 42.7331C27.5292 43.0339 27.3966 43.4142 27.2373 43.8742C27.0958 44.3342 26.9366 44.8207 26.7597 45.3337C26.6005 45.8467 26.4413 46.3333 26.282 46.7932C26.1228 47.2355 25.9901 47.607 25.884 47.9078L21.6647 59H18.7457ZM21.93 54.3827L22.9915 51.6229H31.4301L32.6508 54.3827H21.93ZM39.2636 59V40.4245H47.1714C48.2329 40.4245 49.2059 40.6898 50.0904 41.2206C50.9927 41.7336 51.7092 42.4412 52.2399 43.3435C52.7706 44.228 53.036 45.2276 53.036 46.3421C53.036 47.3505 52.7706 48.2881 52.2399 49.155C51.7092 50.0218 51.0015 50.7206 50.117 51.2513C49.2324 51.7644 48.2506 52.0209 47.1714 52.0209H42.1295V59H39.2636ZM50.3027 59L45.5792 50.6145L48.5248 49.9511L53.779 59.0265L50.3027 59ZM42.1295 49.2611H47.4368C47.9498 49.2611 48.4098 49.1373 48.8167 48.8896C49.2236 48.6242 49.542 48.2704 49.772 47.8281C50.002 47.3682 50.117 46.864 50.117 46.3156C50.117 45.6964 49.9666 45.1568 49.6659 44.6968C49.3828 44.2192 48.9759 43.8477 48.4452 43.5823C47.9321 43.3169 47.3483 43.1843 46.6938 43.1843H42.1295V49.2611ZM55.7775 59L62.9689 40.4245H65.8879L73.0263 59H69.9746L65.7287 47.8016C65.6756 47.6778 65.5695 47.377 65.4103 46.8994C65.2688 46.4217 65.1007 45.891 64.9061 45.3072C64.7115 44.7234 64.5346 44.1926 64.3754 43.715C64.2161 43.2196 64.11 42.9012 64.0569 42.7597L64.6673 42.7331C64.5611 43.0339 64.4284 43.4142 64.2692 43.8742C64.1277 44.3342 63.9685 44.8207 63.7916 45.3337C63.6323 45.8467 63.4731 46.3333 63.3139 46.7932C63.1547 47.2355 63.022 47.607 62.9159 47.9078L58.6966 59H55.7775ZM58.9619 54.3827L60.0234 51.6229H68.462L69.6827 54.3827H58.9619ZM83.7329 59V40.4245H86.5458L93.3126 51.4371L91.9592 51.4106L98.8056 40.4245H101.459V59H98.5933V51.384C98.5933 49.7918 98.6287 48.3589 98.6995 47.0851C98.7879 45.8114 98.9295 44.5465 99.1241 43.2904L99.4956 44.2723L93.4187 53.6662H91.6673L85.7762 44.3784L86.0681 43.2904C86.2627 44.4757 86.3954 45.6964 86.4661 46.9524C86.5546 48.1908 86.5988 49.668 86.5988 51.384V59H83.7329ZM104.73 59L111.921 40.4245H114.84L121.979 59H118.927L114.681 47.8016C114.628 47.6778 114.522 47.377 114.363 46.8994C114.221 46.4217 114.053 45.891 113.859 45.3072C113.664 44.7234 113.487 44.1926 113.328 43.715C113.169 43.2196 113.063 42.9012 113.009 42.7597L113.62 42.7331C113.514 43.0339 113.381 43.4142 113.222 43.8742C113.08 44.3342 112.921 44.8207 112.744 45.3337C112.585 45.8467 112.426 46.3333 112.266 46.7932C112.107 47.2355 111.975 47.607 111.868 47.9078L107.649 59H104.73ZM107.914 54.3827L108.976 51.6229H117.415L118.635 54.3827H107.914ZM125.248 59V40.4245H127.822L139.18 55.6299L138.755 55.8687C138.684 55.4264 138.622 54.9488 138.569 54.4357C138.516 53.905 138.463 53.3477 138.41 52.7639C138.375 52.1624 138.339 51.5344 138.304 50.8798C138.286 50.2076 138.269 49.5088 138.251 48.7835C138.233 48.0581 138.224 47.3063 138.224 46.5279V40.4245H141.09V59H138.463L127.291 44.3519L127.583 43.9804C127.672 45.0595 127.742 45.9794 127.795 46.7401C127.866 47.4832 127.919 48.12 127.955 48.6508C128.008 49.1638 128.043 49.5884 128.061 49.9245C128.079 50.243 128.087 50.5083 128.087 50.7206C128.105 50.9329 128.114 51.1187 128.114 51.2779V59H125.248ZM149.82 59V43.1843H144.619V40.4245H158.046V43.1843H152.686V59H149.82ZM161.58 59V40.4245H173.283V43.1843H164.446V56.2402H173.283V59H161.58ZM162.88 50.8533V48.0935H171.823V50.8533H162.88ZM177.88 59V40.4245H185.788C186.85 40.4245 187.823 40.6898 188.707 41.2206C189.61 41.7336 190.326 42.4412 190.857 43.3435C191.387 44.228 191.653 45.2276 191.653 46.3421C191.653 47.3505 191.387 48.2881 190.857 49.155C190.326 50.0218 189.618 50.7206 188.734 51.2513C187.849 51.7644 186.867 52.0209 185.788 52.0209H180.746V59H177.88ZM188.92 59L184.196 50.6145L187.142 49.9511L192.396 59.0265L188.92 59ZM180.746 49.2611H186.054C186.567 49.2611 187.027 49.1373 187.434 48.8896C187.84 48.6242 188.159 48.2704 188.389 47.8281C188.619 47.3682 188.734 46.864 188.734 46.3156C188.734 45.6964 188.583 45.1568 188.283 44.6968C188 44.2192 187.593 43.8477 187.062 43.5823C186.549 43.3169 185.965 43.1843 185.311 43.1843H180.746V49.2611Z" fill="white"/>
<g filter="url(#filter0_d_86_311)">
<path d="M13.3758 92.8663C12.0666 92.8663 10.8548 92.6275 9.74026 92.1498C8.64342 91.6722 7.67926 91.0088 6.84779 90.1596C6.034 89.2927 5.39713 88.2844 4.93716 87.1344C4.49489 85.9668 4.27375 84.6931 4.27375 83.3132C4.27375 81.9333 4.49489 80.6684 4.93716 79.5185C5.39713 78.3509 6.034 77.3425 6.84779 76.4933C7.67926 75.6265 8.64342 74.9542 9.74026 74.4766C10.8548 73.9989 12.0666 73.7601 13.3758 73.7601C14.6849 73.7601 15.8879 73.9989 16.9847 74.4766C18.0992 74.9542 19.0634 75.6265 19.8772 76.4933C20.7087 77.3602 21.3455 78.3774 21.7878 79.545C22.2478 80.6949 22.4778 81.951 22.4778 83.3132C22.4778 84.6754 22.2478 85.9403 21.7878 87.1079C21.3455 88.2578 20.7087 89.2662 19.8772 90.1331C19.0634 90.9999 18.0992 91.6722 16.9847 92.1498C15.8879 92.6275 14.6849 92.8663 13.3758 92.8663ZM13.3758 90.08C14.278 90.08 15.1006 89.9119 15.8436 89.5758C16.6044 89.2397 17.2589 88.7709 17.8073 88.1694C18.3558 87.5502 18.7803 86.8337 19.0811 86.0199C19.3995 85.1884 19.5587 84.2862 19.5587 83.3132C19.5587 82.3402 19.3995 81.4468 19.0811 80.633C18.7803 79.8015 18.3558 79.0851 17.8073 78.4836C17.2589 77.8644 16.6044 77.3867 15.8436 77.0506C15.1006 76.7145 14.278 76.5464 13.3758 76.5464C12.4735 76.5464 11.642 76.7145 10.8813 77.0506C10.1383 77.3867 9.48374 77.8555 8.91763 78.457C8.36921 79.0585 7.94463 79.775 7.64388 80.6065C7.34313 81.4203 7.19276 82.3225 7.19276 83.3132C7.19276 84.2862 7.34313 85.1884 7.64388 86.0199C7.94463 86.8514 8.36921 87.5679 8.91763 88.1694C9.48374 88.7709 10.1383 89.2397 10.8813 89.5758C11.642 89.9119 12.4735 90.08 13.3758 90.08ZM39.5274 92.8663C38.519 92.8663 37.5814 92.7336 36.7146 92.4683C35.8654 92.2029 35.087 91.8049 34.3794 91.2741C33.6894 90.7257 33.0702 90.0535 32.5218 89.2574L34.4855 87.0018C35.3524 88.2401 36.1838 89.0981 36.9799 89.5758C37.776 90.0535 38.7225 90.2923 39.8193 90.2923C40.4916 90.2923 41.1019 90.1861 41.6503 89.9738C42.1988 89.7616 42.6322 89.4697 42.9506 89.0981C43.2691 88.7266 43.4283 88.302 43.4283 87.8244C43.4283 87.506 43.3752 87.2052 43.2691 86.9222C43.1629 86.6391 42.9949 86.3826 42.7649 86.1526C42.5526 85.9226 42.2695 85.7103 41.9157 85.5157C41.5796 85.3211 41.1815 85.1531 40.7216 85.0115C40.2616 84.8523 39.7309 84.7196 39.1294 84.6135C38.1741 84.4189 37.3426 84.1624 36.635 83.8439C35.9273 83.5255 35.3347 83.1274 34.857 82.6498C34.3794 82.1721 34.0255 81.6326 33.7956 81.0311C33.5656 80.4119 33.4506 79.7219 33.4506 78.9612C33.4506 78.2182 33.6098 77.5282 33.9282 76.8914C34.2644 76.2545 34.7155 75.7061 35.2816 75.2461C35.8654 74.7685 36.5465 74.4058 37.3249 74.1581C38.1033 73.8928 38.9436 73.7601 39.8459 73.7601C40.8012 73.7601 41.6769 73.8839 42.473 74.1316C43.2691 74.3793 43.9767 74.7508 44.5959 75.2461C45.2151 75.7238 45.7281 76.3164 46.135 77.0241L44.1182 79.0143C43.7644 78.4305 43.3664 77.944 42.9241 77.5548C42.4818 77.1479 41.9953 76.8471 41.4646 76.6525C40.9339 76.4403 40.3677 76.3341 39.7663 76.3341C39.0763 76.3341 38.4748 76.4403 37.9618 76.6525C37.4487 76.8648 37.0418 77.1656 36.7411 77.5548C36.458 77.9263 36.3165 78.3686 36.3165 78.8816C36.3165 79.2531 36.3873 79.5981 36.5288 79.9165C36.6703 80.2173 36.8826 80.4915 37.1657 80.7392C37.4664 80.9691 37.8645 81.1814 38.3598 81.376C38.8552 81.5529 39.4478 81.7122 40.1378 81.8537C41.1108 82.066 41.9776 82.3402 42.7383 82.6763C43.499 82.9948 44.1448 83.3751 44.6755 83.8174C45.2062 84.2597 45.6043 84.755 45.8696 85.3034C46.1527 85.8518 46.2942 86.4445 46.2942 87.0814C46.2942 88.2667 46.02 89.2927 45.4716 90.1596C44.9232 91.0265 44.1448 91.6987 43.1364 92.1764C42.128 92.6363 40.925 92.8663 39.5274 92.8663ZM50.3549 92.601V74.0254H62.0575V76.7852H53.2209V89.8412H62.0575V92.601H50.3549ZM51.6552 84.4543V81.6945H60.598V84.4543H51.6552ZM73.8731 92.7602C72.4401 92.7602 71.1575 92.4506 70.0253 91.8314C68.8931 91.1945 67.9997 90.3277 67.3451 89.2308C66.7082 88.1163 66.3898 86.8602 66.3898 85.4626V73.9989H69.2557V85.2238C69.2557 86.1261 69.468 86.9398 69.8926 87.6652C70.3172 88.3728 70.8744 88.9389 71.5644 89.3635C72.272 89.7881 73.0416 90.0004 73.8731 90.0004C74.7576 90.0004 75.5537 89.7881 76.2613 89.3635C76.9867 88.9389 77.5616 88.3728 77.9862 87.6652C78.4108 86.9398 78.6231 86.1261 78.6231 85.2238V73.9989H81.3563V85.4626C81.3563 86.8602 81.0291 88.1163 80.3745 89.2308C79.7376 90.3277 78.8531 91.1945 77.7208 91.8314C76.5886 92.4506 75.306 92.7602 73.8731 92.7602ZM93.7358 92.601V74.0254H101.299C102.307 74.0254 103.218 74.282 104.032 74.795C104.863 75.2903 105.527 75.9714 106.022 76.8383C106.518 77.7052 106.765 78.6693 106.765 79.7308C106.765 80.7922 106.518 81.7564 106.022 82.6232C105.527 83.4901 104.863 84.1889 104.032 84.7196C103.218 85.2327 102.307 85.4892 101.299 85.4892H96.6017V92.601H93.7358ZM96.6017 82.7294H101.246C101.723 82.7294 102.157 82.5967 102.546 82.3313C102.935 82.0483 103.245 81.6856 103.475 81.2433C103.722 80.7834 103.846 80.2792 103.846 79.7308C103.846 79.1824 103.722 78.687 103.475 78.2447C103.245 77.8025 102.935 77.4486 102.546 77.1833C102.157 76.9179 101.723 76.7852 101.246 76.7852H96.6017V82.7294ZM110.554 92.601V74.0254H122.257V76.7852H113.42V89.8412H122.257V92.601H110.554ZM111.855 84.4543V81.6945H120.797V84.4543H111.855ZM130.384 92.601V76.7852H125.183V74.0254H138.61V76.7852H133.25V92.601H130.384Z" fill="white"/>
</g>
<g filter="url(#filter1_d_86_311)">
<path d="M13.6382 127.48C12.2829 127.48 11.039 127.239 9.90645 126.756C8.77394 126.274 7.78995 125.587 6.9545 124.696C6.11904 123.786 5.46924 122.718 5.0051 121.493C4.55952 120.268 4.33673 118.922 4.33673 117.455C4.33673 116.062 4.57809 114.772 5.06079 113.584C5.56207 112.377 6.249 111.319 7.12159 110.409C7.99418 109.499 9.00601 108.794 10.1571 108.293C11.3082 107.791 12.5521 107.541 13.8888 107.541C14.8356 107.541 15.7546 107.689 16.6458 107.986C17.5555 108.265 18.3724 108.664 19.0965 109.184C19.8391 109.685 20.4425 110.261 20.9066 110.91L18.9015 112.999C18.3631 112.461 17.8154 112.015 17.2585 111.662C16.7201 111.291 16.1631 111.013 15.5876 110.827C15.0306 110.641 14.4643 110.548 13.8888 110.548C12.9791 110.548 12.125 110.725 11.3267 111.078C10.547 111.412 9.86003 111.885 9.26593 112.498C8.69039 113.111 8.23553 113.844 7.90135 114.698C7.56717 115.533 7.40007 116.452 7.40007 117.455C7.40007 118.513 7.55788 119.479 7.8735 120.351C8.20768 121.205 8.67183 121.939 9.26593 122.551C9.86003 123.164 10.5655 123.637 11.3824 123.971C12.2179 124.287 13.1369 124.445 14.1394 124.445C14.7521 124.445 15.3555 124.361 15.9496 124.194C16.5437 124.027 17.1007 123.786 17.6205 123.47C18.1403 123.155 18.6138 122.783 19.0408 122.356L20.5446 124.807C20.1176 125.308 19.5328 125.763 18.7901 126.172C18.0661 126.58 17.2492 126.905 16.3395 127.146C15.4483 127.369 14.5479 127.48 13.6382 127.48ZM32.7899 127.48C31.4161 127.48 30.1443 127.23 28.9747 126.728C27.8236 126.227 26.8118 125.531 25.9392 124.64C25.0851 123.73 24.4168 122.672 23.9341 121.465C23.4699 120.24 23.2379 118.903 23.2379 117.455C23.2379 116.007 23.4699 114.679 23.9341 113.473C24.4168 112.247 25.0851 111.189 25.9392 110.298C26.8118 109.388 27.8236 108.683 28.9747 108.181C30.1443 107.68 31.4161 107.429 32.7899 107.429C34.1638 107.429 35.4262 107.68 36.5773 108.181C37.747 108.683 38.7588 109.388 39.6128 110.298C40.4854 111.208 41.1538 112.275 41.6179 113.5C42.1006 114.707 42.342 116.025 42.342 117.455C42.342 118.884 42.1006 120.212 41.6179 121.437C41.1538 122.644 40.4854 123.702 39.6128 124.612C38.7588 125.522 37.747 126.227 36.5773 126.728C35.4262 127.23 34.1638 127.48 32.7899 127.48ZM32.7899 124.556C33.7368 124.556 34.6001 124.38 35.3798 124.027C36.1782 123.674 36.8651 123.182 37.4406 122.551C38.0162 121.901 38.4617 121.149 38.7774 120.295C39.1115 119.423 39.2786 118.476 39.2786 117.455C39.2786 116.434 39.1115 115.496 38.7774 114.642C38.4617 113.77 38.0162 113.018 37.4406 112.386C36.8651 111.737 36.1782 111.235 35.3798 110.883C34.6001 110.53 33.7368 110.354 32.7899 110.354C31.8431 110.354 30.9705 110.53 30.1722 110.883C29.3924 111.235 28.7055 111.727 28.1114 112.359C27.5358 112.99 27.0902 113.742 26.7746 114.614C26.459 115.468 26.3012 116.415 26.3012 117.455C26.3012 118.476 26.459 119.423 26.7746 120.295C27.0902 121.168 27.5358 121.92 28.1114 122.551C28.7055 123.182 29.3924 123.674 30.1722 124.027C30.9705 124.38 31.8431 124.556 32.7899 124.556ZM46.4142 127.202V107.708H49.1155L61.0347 123.665L60.5891 123.916C60.5148 123.452 60.4499 122.95 60.3942 122.412C60.3385 121.855 60.2828 121.27 60.2271 120.657C60.1899 120.026 60.1528 119.367 60.1157 118.68C60.0971 117.975 60.0785 117.241 60.06 116.48C60.0414 115.719 60.0321 114.93 60.0321 114.113V107.708H63.0398V127.202H60.2828L48.5585 111.829L48.8649 111.44C48.9577 112.572 49.0319 113.538 49.0876 114.336C49.1619 115.116 49.2176 115.784 49.2547 116.341C49.3104 116.879 49.3476 117.325 49.3661 117.678C49.3847 118.012 49.394 118.29 49.394 118.513C49.4125 118.736 49.4218 118.931 49.4218 119.098V127.202H46.4142ZM68.4972 127.202V107.708H71.5049V127.202H68.4972ZM69.834 118.903V116.007H79.8873V118.903H69.834ZM69.834 110.604V107.708H81.1405V110.604H69.834ZM93.1647 127.48C91.7909 127.48 90.5191 127.23 89.3495 126.728C88.1984 126.227 87.1866 125.531 86.314 124.64C85.46 123.73 84.7916 122.672 84.3089 121.465C83.8448 120.24 83.6127 118.903 83.6127 117.455C83.6127 116.007 83.8448 114.679 84.3089 113.473C84.7916 112.247 85.46 111.189 86.314 110.298C87.1866 109.388 88.1984 108.683 89.3495 108.181C90.5191 107.68 91.7909 107.429 93.1647 107.429C94.5386 107.429 95.8011 107.68 96.9522 108.181C98.1218 108.683 99.1336 109.388 99.9876 110.298C100.86 111.208 101.529 112.275 101.993 113.5C102.475 114.707 102.717 116.025 102.717 117.455C102.717 118.884 102.475 120.212 101.993 121.437C101.529 122.644 100.86 123.702 99.9876 124.612C99.1336 125.522 98.1218 126.227 96.9522 126.728C95.8011 127.23 94.5386 127.48 93.1647 127.48ZM93.1647 124.556C94.1116 124.556 94.9749 124.38 95.7547 124.027C96.553 123.674 97.2399 123.182 97.8155 122.551C98.391 121.901 98.8366 121.149 99.1522 120.295C99.4864 119.423 99.6535 118.476 99.6535 117.455C99.6535 116.434 99.4864 115.496 99.1522 114.642C98.8366 113.77 98.391 113.018 97.8155 112.386C97.2399 111.737 96.553 111.235 95.7547 110.883C94.9749 110.53 94.1116 110.354 93.1647 110.354C92.2179 110.354 91.3453 110.53 90.547 110.883C89.7672 111.235 89.0803 111.727 88.4862 112.359C87.9106 112.99 87.4651 113.742 87.1495 114.614C86.8338 115.468 86.676 116.415 86.676 117.455C86.676 118.476 86.8338 119.423 87.1495 120.295C87.4651 121.168 87.9106 121.92 88.4862 122.551C89.0803 123.182 89.7672 123.674 90.547 124.027C91.3453 124.38 92.2179 124.556 93.1647 124.556ZM106.789 127.202V107.708H115.088C116.202 107.708 117.223 107.986 118.151 108.543C119.098 109.082 119.85 109.824 120.407 110.771C120.964 111.7 121.242 112.748 121.242 113.918C121.242 114.976 120.964 115.96 120.407 116.87C119.85 117.78 119.107 118.513 118.179 119.07C117.251 119.609 116.22 119.878 115.088 119.878H109.797V127.202H106.789ZM118.374 127.202L113.417 118.402L116.508 117.706L122.022 127.23L118.374 127.202ZM109.797 116.981H115.366C115.905 116.981 116.387 116.852 116.814 116.592C117.242 116.313 117.576 115.942 117.817 115.478C118.058 114.995 118.179 114.466 118.179 113.89C118.179 113.24 118.021 112.674 117.706 112.192C117.409 111.69 116.982 111.3 116.425 111.022C115.886 110.743 115.274 110.604 114.587 110.604H109.797V116.981ZM129.312 127.202V110.604H123.854V107.708H137.945V110.604H132.32V127.202H129.312ZM138.234 127.202L145.781 107.708H148.844L156.336 127.202H153.133L148.677 115.45C148.622 115.32 148.51 115.004 148.343 114.503C148.195 114.002 148.018 113.445 147.814 112.832C147.61 112.219 147.424 111.662 147.257 111.161C147.09 110.641 146.979 110.307 146.923 110.159L147.563 110.131C147.452 110.446 147.313 110.846 147.146 111.328C146.997 111.811 146.83 112.321 146.644 112.86C146.477 113.398 146.31 113.909 146.143 114.392C145.976 114.856 145.837 115.246 145.725 115.561L141.298 127.202H138.234ZM141.576 122.356L142.69 119.46H151.546L152.827 122.356H141.576ZM145.391 106.176L144.611 104.728L149.708 101.581L151.017 104.088L145.391 106.176ZM163.409 127.202L155.612 107.708H159.037L163.688 119.544C163.911 120.119 164.105 120.639 164.273 121.103C164.458 121.567 164.616 121.994 164.746 122.384C164.876 122.755 164.997 123.108 165.108 123.442C165.219 123.777 165.331 124.111 165.442 124.445L164.718 124.473C164.848 124.027 164.987 123.563 165.136 123.08C165.284 122.598 165.452 122.068 165.637 121.493C165.841 120.917 166.083 120.268 166.361 119.544L170.678 107.708H174.187L166.333 127.202H163.409ZM177.58 127.202V107.708H189.861V110.604H180.587V124.306H189.861V127.202H177.58ZM178.944 118.652V115.756H188.329V118.652H178.944ZM194.686 127.202V107.708H197.694V124.306H206.828V127.202H194.686Z" fill="white"/>
</g>
<path d="M248.104 35.9469V38.3888C248.104 39.1564 247.561 39.4708 246.896 39.0857L235.727 32.6352C235.375 32.4059 235.081 32.0965 234.871 31.7322C234.662 31.3679 234.541 30.9591 234.519 30.5392V28.1053C234.519 27.335 235.059 27.0232 235.727 27.4083L246.896 33.8562C247.247 34.0854 247.54 34.3941 247.749 34.7574C247.959 35.1206 248.081 35.5281 248.104 35.9469Z" fill="#F0F0F0"/>
<path d="M228.585 46.7036V49.1455C228.585 49.9131 228.042 50.2275 227.377 49.8424L216.208 43.392C215.855 43.1627 215.562 42.8532 215.352 42.4889C215.142 42.1246 215.022 41.7158 215 41.296V38.862C215 38.0917 215.54 37.7799 216.208 38.1651L227.377 44.6129C227.728 44.8421 228.021 45.1508 228.23 45.5141C228.44 45.8773 228.562 46.2848 228.585 46.7036Z" fill="#F0F0F0"/>
<path d="M220.585 62.7036V65.1455C220.585 65.9131 220.042 66.2275 219.377 65.8424L208.208 59.392C207.855 59.1627 207.562 58.8532 207.352 58.4889C207.142 58.1246 207.022 57.7158 207 57.296V54.862C207 54.0917 207.54 53.7799 208.208 54.1651L219.377 60.6129C219.728 60.8421 220.021 61.1508 220.23 61.5141C220.44 61.8773 220.562 62.2848 220.585 62.7036Z" fill="#F0F0F0"/>
<path d="M301.585 26.7036V29.1455C301.585 29.9131 301.042 30.2275 300.377 29.8424L289.208 23.392C288.855 23.1627 288.562 22.8532 288.352 22.4889C288.142 22.1246 288.022 21.7158 288 21.296V18.862C288 18.0917 288.54 17.7799 289.208 18.1651L300.377 24.6129C300.728 24.8421 301.021 25.1508 301.23 25.5141C301.44 25.8773 301.562 26.2848 301.585 26.7036Z" fill="#F0F0F0"/>
<path d="M214.585 91.7036V94.1455C214.585 94.9131 214.042 95.2275 213.377 94.8424L202.208 88.392C201.855 88.1627 201.562 87.8532 201.352 87.4889C201.142 87.1246 201.022 86.7158 201 86.296V83.862C201 83.0917 201.54 82.7799 202.208 83.1651L213.377 89.6129C213.728 89.8421 214.021 90.1508 214.23 90.5141C214.44 90.8773 214.562 91.2848 214.585 91.7036Z" fill="#F0F0F0"/>
<path d="M221.585 109.704V112.145C221.585 112.913 221.042 113.228 220.377 112.842L209.208 106.392C208.855 106.163 208.562 105.853 208.352 105.489C208.142 105.125 208.022 104.716 208 104.296V101.862C208 101.092 208.54 100.78 209.208 101.165L220.377 107.613C220.728 107.842 221.021 108.151 221.23 108.514C221.44 108.877 221.562 109.285 221.585 109.704Z" fill="#F0F0F0"/>
<path d="M251.554 83.5707V86.0125C251.554 86.7828 251.015 87.0946 250.347 86.7094L239.177 80.2616C238.825 80.0319 238.533 79.7223 238.323 79.3581C238.113 78.9939 237.992 78.5854 237.97 78.1656V75.7238C237.97 74.9535 238.512 74.6417 239.177 75.0269L250.347 81.4773C250.699 81.706 250.992 82.015 251.202 82.3789C251.412 82.7427 251.533 83.1512 251.554 83.5707Z" fill="#F0F0F0"/>
<path d="M273.565 77.7779V80.2197C273.565 80.9874 273.025 81.2992 272.357 80.9167L261.188 74.4662C260.836 74.2369 260.543 73.9275 260.333 73.5632C260.123 73.1989 260.002 72.7901 259.98 72.3702V69.9284C259.98 69.1607 260.52 68.8489 261.188 69.2341L272.357 75.6819C272.71 75.9112 273.003 76.2207 273.213 76.5849C273.423 76.9492 273.543 77.358 273.565 77.7779Z" fill="#E0E0E0"/>
<path d="M252.06 58.7331V61.1749C252.06 61.9426 251.52 62.257 250.855 61.8719L239.688 55.4214C239.337 55.1917 239.044 54.8821 238.835 54.5178C238.625 54.1536 238.505 53.745 238.483 53.3254V50.8836C238.483 50.1133 239.023 49.8015 239.688 50.1867L250.86 56.6345C251.211 56.8652 251.503 57.1755 251.711 57.5402C251.92 57.9049 252.039 58.3136 252.06 58.7331Z" fill="#E0E0E0"/>
<path d="M258.348 94.9441V97.386C258.348 98.1563 257.808 98.468 257.14 98.0829L245.968 91.622C245.617 91.3922 245.324 91.0826 245.115 90.7184C244.905 90.3542 244.785 89.9456 244.763 89.526V87.0841C244.763 86.3139 245.303 86.0021 245.968 86.3872L257.138 92.835C257.492 93.0653 257.787 93.3767 257.997 93.7435C258.208 94.1102 258.328 94.5218 258.348 94.9441Z" fill="#E0E0E0"/>
<path d="M232.122 38.8893L243.291 45.3397C243.644 45.5687 243.937 45.8781 244.147 46.2424C244.357 46.6068 244.477 47.0158 244.499 47.4357V49.8776C244.499 50.6479 243.959 50.9596 243.291 50.5745L232.122 44.1188C231.77 43.8889 231.478 43.5793 231.268 43.2151C231.059 42.8509 230.938 42.4424 230.917 42.0228V39.5862C230.917 38.8159 231.456 38.5042 232.122 38.8893Z" fill="#F0F0F0"/>
<path d="M246.92 47.4331L258.086 53.894C258.438 54.1239 258.73 54.4336 258.939 54.7978C259.149 55.162 259.269 55.5705 259.291 55.99V58.4319C259.291 59.1995 258.751 59.5139 258.086 59.1288L246.917 52.6784C246.565 52.4491 246.271 52.1396 246.061 51.7753C245.852 51.411 245.731 51.0022 245.709 50.5824V48.13C245.712 47.3598 246.251 47.048 246.92 47.4331Z" fill="#F0F0F0"/>
<path d="M289.838 85.7794L301.007 92.2272C301.359 92.4565 301.652 92.7659 301.862 93.1302C302.072 93.4945 302.193 93.9033 302.215 94.3232V96.765C302.215 97.5353 301.675 97.8471 301.007 97.462L289.838 91.0115C289.486 90.7821 289.192 90.4726 288.983 90.1083C288.773 89.7441 288.652 89.3354 288.63 88.9155V86.4737C288.63 85.706 289.172 85.3942 289.838 85.7794Z" fill="#F0F0F0"/>
<path d="M282.08 74.668L293.249 81.1158C293.601 81.3451 293.895 81.6546 294.104 82.0189C294.314 82.3832 294.435 82.7919 294.457 83.2118V85.6537C294.457 86.424 293.917 86.7357 293.249 86.3506L282.08 79.9002C281.728 79.6706 281.435 79.361 281.226 78.9967C281.016 78.6324 280.896 78.2238 280.875 77.8042V75.378C280.88 74.592 281.404 74.2829 282.08 74.668Z" fill="#F0F0F0"/>
<path d="M333.851 46.1624L345.02 52.6128C345.177 52.7054 345.319 52.8191 345.445 52.9508V57.9917C345.295 57.9685 345.151 57.9169 345.02 57.8397L333.851 51.3919C333.499 51.1621 333.206 50.8526 332.997 50.4884C332.787 50.1242 332.666 49.7156 332.643 49.2959V46.8541C332.643 46.0916 333.186 45.772 333.851 46.1624Z" fill="#F0F0F0"/>
<path d="M338.208 35.167L349.377 41.6175C349.533 41.71 349.676 41.8238 349.801 41.9554V46.9963C349.651 46.9731 349.507 46.9215 349.377 46.8444L338.208 40.3965C337.856 40.1668 337.563 39.8572 337.353 39.493C337.143 39.1288 337.022 38.7203 337 38.3005V35.8587C337 35.0963 337.542 34.7766 338.208 35.167Z" fill="#F0F0F0"/>
<path d="M338.751 56.776V59.2179C338.751 59.9881 338.211 60.2999 337.543 59.9148L326.374 53.467C326.022 53.2372 325.729 52.9276 325.519 52.5634C325.309 52.1993 325.188 51.7907 325.166 51.371V48.9291C325.166 48.1588 325.708 47.8471 326.374 48.2322L337.543 54.6826C337.895 54.9112 338.189 55.2201 338.398 55.584C338.608 55.9479 338.729 56.3564 338.751 56.776Z" fill="#F0F0F0"/>
<path d="M338.751 108.246V110.688C338.751 111.458 338.211 111.77 337.543 111.385L326.374 104.937C326.022 104.707 325.729 104.397 325.519 104.033C325.309 103.669 325.188 103.261 325.166 102.841V100.399C325.166 99.6287 325.708 99.3169 326.374 99.702L337.543 106.152C337.895 106.381 338.188 106.69 338.398 107.054C338.608 107.418 338.729 107.826 338.751 108.246Z" fill="#F0F0F0"/>
<path d="M340.907 82.3053L345.445 84.9253V90.1653L340.907 87.5453C340.555 87.3155 340.262 87.006 340.052 86.6418C339.842 86.2776 339.721 85.869 339.699 85.4493V83.0022C339.699 82.2319 340.241 81.928 340.907 82.3053Z" fill="#F0F0F0"/>
<path d="M319.318 63.4674L330.49 69.9179C330.841 70.1476 331.134 70.4572 331.343 70.8215C331.553 71.1857 331.673 71.5943 331.695 72.0139V74.4557C331.695 75.226 331.155 75.5378 330.49 75.1526L319.318 68.6969C318.966 68.467 318.674 68.1574 318.465 67.7932C318.255 67.429 318.135 67.0205 318.113 66.6009V64.1643C318.113 63.3941 318.653 63.0823 319.318 63.4674Z" fill="#E0E0E0"/>
<path d="M300.205 36.1651L311.377 42.6129C311.729 42.8428 312.021 43.1524 312.23 43.5166C312.44 43.8808 312.56 44.2893 312.582 44.7089V47.1507C312.582 47.921 312.042 48.2328 311.377 47.8476L300.205 41.392C299.853 41.1624 299.561 40.8528 299.351 40.4885C299.142 40.1243 299.021 39.7156 299 39.296V36.862C299 36.0917 299.54 35.7799 300.205 36.1651Z" fill="#F0F0F0"/>
<path d="M276.67 44.724L287.839 51.1718C288.191 51.4011 288.484 51.7105 288.694 52.0748C288.904 52.4391 289.025 52.8479 289.047 53.2678V55.7096C289.047 56.4773 288.507 56.7891 287.839 56.4066L276.67 49.964C276.318 49.7342 276.025 49.4247 275.815 49.0605C275.605 48.6963 275.484 48.2877 275.462 47.868V45.4261C275.462 44.6532 276.004 44.3415 276.67 44.724Z" fill="#F0F0F0"/>
<path d="M274.956 24.6417L286.12 31.1C286.472 31.3299 286.764 31.6395 286.973 32.0037C287.183 32.3679 287.303 32.7764 287.325 33.196V35.6352C287.325 36.4055 286.785 36.7173 286.12 36.3321L274.956 29.8712C274.604 29.6419 274.311 29.3325 274.101 28.9682C273.891 28.6039 273.77 28.1951 273.748 27.7752V25.336C273.748 24.5683 274.288 24.2565 274.956 24.6417Z" fill="#E0E0E0"/>
<path d="M312.208 30.1634L323.377 36.6139C323.729 36.8432 324.022 37.1526 324.232 37.5169C324.442 37.8812 324.563 38.29 324.585 38.7099V41.1491C324.585 41.9194 324.045 42.2312 323.377 41.846L312.208 35.393C311.855 35.1637 311.562 34.8542 311.352 34.4899C311.142 34.1256 311.022 33.7168 311 33.297V30.8604C311 30.0927 311.548 29.7809 312.208 30.1634Z" fill="#E0E0E0"/>
<path d="M311.841 78.522L323.01 84.9672C323.362 85.1962 323.656 85.5056 323.866 85.8699C324.076 86.2343 324.196 86.6432 324.217 87.0632V89.505C324.217 90.2753 323.678 90.5871 323.01 90.202L311.841 83.7541C311.489 83.5242 311.196 83.2146 310.987 82.8504C310.778 82.4862 310.657 82.0777 310.635 81.6581V79.2163C310.635 78.4434 311.175 78.1316 311.841 78.522Z" fill="#E0E0E0"/>
<path d="M282.546 55.6782L293.718 62.126C294.07 62.3559 294.362 62.6655 294.571 63.0298C294.781 63.394 294.901 63.8024 294.923 64.222V66.6638C294.923 67.4315 294.383 67.7433 293.718 67.3608L282.546 60.9103C282.195 60.6804 281.902 60.3708 281.693 60.0066C281.483 59.6424 281.363 59.2339 281.341 58.8143V56.3725C281.341 55.6048 281.881 55.293 282.546 55.6782Z" fill="#E0E0E0"/>
<path d="M237.021 75.1945V77.6364C237.021 78.4066 236.481 78.7184 235.813 78.3333L224.644 71.8828C224.292 71.6534 223.999 71.3439 223.789 70.9797C223.579 70.6154 223.458 70.2067 223.437 69.7868V67.345C223.437 66.5747 223.979 66.2629 224.644 66.6481L235.816 73.1038C236.167 73.3328 236.459 73.6416 236.669 74.0049C236.878 74.3682 236.999 74.7758 237.021 75.1945Z" fill="#E0E0E0"/>
<path d="M228.76 88.3261L221.555 84.1655V89.4055L228.76 93.5661C229.426 93.9512 229.966 93.6395 229.966 92.8692V90.4273C229.945 90.0068 229.825 89.5971 229.616 89.2318C229.406 88.8666 229.113 88.5562 228.76 88.3261Z" fill="#F0F0F0"/>
<path d="M228.76 57.1087L221.555 52.9481V58.1881L228.76 62.3487C229.426 62.7312 229.966 62.4194 229.966 61.6518V59.2099C229.945 58.7895 229.824 58.3799 229.615 58.0147C229.406 57.6496 229.113 57.3391 228.76 57.1087Z" fill="#F0F0F0"/>
<path d="M313.205 21.1606L306 17V22.24L313.205 26.4006C313.87 26.7831 314.41 26.4713 314.41 25.7036V23.2618C314.389 22.8413 314.269 22.4318 314.06 22.0666C313.85 21.7014 313.557 21.391 313.205 21.1606Z" fill="#F0F0F0"/>
<path d="M330.205 29.1606L323 25V30.24L330.205 34.4006C330.87 34.7831 331.41 34.4713 331.41 33.7036V31.2618C331.389 30.8413 331.269 30.4318 331.06 30.0666C330.85 29.7014 330.557 29.391 330.205 29.1606Z" fill="#F0F0F0"/>
<path d="M217.205 76.1606L210 72V77.24L217.205 81.4006C217.87 81.7831 218.41 81.4713 218.41 80.7036V78.2618C218.389 77.8413 218.269 77.4318 218.06 77.0666C217.85 76.7014 217.557 76.391 217.205 76.1606Z" fill="#F0F0F0"/>
<path d="M228.76 31.4328L221.555 27.2722V32.5122L228.76 36.6728C229.426 37.0579 229.966 36.7461 229.966 35.9759V33.5209C229.943 33.1026 229.822 32.6955 229.613 32.3327C229.403 31.9699 229.111 31.6616 228.76 31.4328Z" fill="#F0F0F0"/>
<path d="M294.923 44.8235V47.2653C294.923 48.0356 294.383 48.3474 293.718 47.9623L282.546 41.5118C282.194 41.2822 281.902 40.9727 281.692 40.6084C281.483 40.2441 281.363 39.8355 281.341 39.4158V36.9818C281.341 36.2116 281.881 35.8998 282.546 36.2849L293.718 42.7327C294.069 42.9618 294.361 43.2706 294.571 43.6339C294.78 43.9972 294.901 44.4048 294.923 44.8235Z" fill="#F0F0F0"/>
<path d="M333.851 84.6842L345.02 91.1346C345.177 91.2272 345.319 91.3409 345.445 91.4726V96.5135C345.295 96.4903 345.151 96.4387 345.02 96.3615L333.851 89.9137C333.499 89.6839 333.206 89.3744 332.997 89.0102C332.787 88.646 332.666 88.2375 332.643 87.8177V85.3759C332.643 84.6135 333.186 84.3017 333.851 84.6842Z" fill="#F0F0F0"/>
<path d="M261.188 35.7871L272.357 42.2349C272.71 42.4642 273.003 42.7737 273.213 43.138C273.423 43.5023 273.543 43.9111 273.565 44.3309V46.7728C273.565 47.5431 273.025 47.8548 272.357 47.4697L261.188 41.014C260.835 40.785 260.542 40.4757 260.332 40.1113C260.122 39.747 260.002 39.338 259.98 38.918V36.484C259.98 35.7138 260.52 35.402 261.188 35.7871Z" fill="#F0F0F0"/>
<path d="M276.67 96.6916L287.839 103.15C288.191 103.379 288.484 103.689 288.694 104.053C288.904 104.417 289.025 104.826 289.047 105.246V107.685C289.047 108.455 288.507 108.767 287.839 108.382L276.67 101.934C276.318 101.704 276.025 101.395 275.815 101.031C275.605 100.667 275.484 100.258 275.462 99.8382V97.3859C275.462 96.6209 276.004 96.3065 276.67 96.6916Z" fill="#F0F0F0"/>
<path d="M282.546 107.643L293.718 114.094C294.07 114.323 294.362 114.633 294.572 114.997C294.781 115.362 294.902 115.77 294.923 116.19V118.632C294.923 119.402 294.383 119.714 293.718 119.328L282.546 112.881C282.195 112.651 281.902 112.341 281.693 111.977C281.483 111.613 281.363 111.204 281.341 110.785V108.343C281.341 107.573 281.881 107.258 282.546 107.643Z" fill="#E0E0E0"/>
<path d="M261.188 87.7549L272.357 94.2027C272.71 94.432 273.003 94.7414 273.213 95.1057C273.423 95.47 273.543 95.8788 273.565 96.2987V98.7405C273.565 99.5108 273.025 99.8226 272.357 99.4374L261.188 92.987C260.836 92.7577 260.543 92.4483 260.333 92.084C260.123 91.7197 260.002 91.3109 259.98 90.891V88.4518C259.98 87.692 260.52 87.3697 261.188 87.7549Z" fill="#F0F0F0"/>
<path d="M245.274 105.089V107.531C245.274 108.301 244.734 108.613 244.069 108.228L232.897 101.777C232.545 101.548 232.253 101.238 232.043 100.874C231.834 100.509 231.714 100.101 231.692 99.6811V97.2393C231.692 96.469 232.232 96.1572 232.897 96.5424L244.069 102.998C244.42 103.227 244.712 103.536 244.921 103.899C245.131 104.263 245.252 104.67 245.274 105.089Z" fill="#F0F0F0"/>
<path d="M273.565 110.557V112.999C273.565 113.769 273.025 114.081 272.357 113.695L261.188 107.245C260.836 107.016 260.543 106.706 260.333 106.342C260.123 105.978 260.002 105.569 259.98 105.149V102.707C259.98 101.937 260.52 101.625 261.188 102.01L272.357 108.458C272.71 108.688 273.003 108.998 273.213 109.362C273.423 109.727 273.544 110.136 273.565 110.557Z" fill="#E0E0E0"/>
<path d="M253.582 123.711V126.153C253.582 126.924 253.042 127.235 252.374 126.85L241.205 120.4C240.853 120.171 240.56 119.861 240.351 119.497C240.141 119.132 240.021 118.724 240 118.304V115.862C240 115.092 240.54 114.78 241.205 115.165L252.374 121.613C252.727 121.842 253.02 122.152 253.23 122.517C253.44 122.882 253.561 123.291 253.582 123.711Z" fill="#E0E0E0"/>
<path d="M320.582 143.711V146.153C320.582 146.924 320.042 147.235 319.374 146.85L308.205 140.4C307.853 140.171 307.56 139.861 307.351 139.497C307.141 139.132 307.021 138.724 307 138.304V135.862C307 135.092 307.54 134.78 308.205 135.165L319.374 141.613C319.727 141.842 320.02 142.152 320.23 142.517C320.44 142.882 320.561 143.291 320.582 143.711Z" fill="#E0E0E0"/>
<path d="M250.582 134.709V137.151C250.582 137.921 250.042 138.233 249.374 137.848L238.205 131.4C237.854 131.17 237.561 130.86 237.352 130.496C237.142 130.132 237.022 129.723 237 129.304V126.862C237 126.092 237.54 125.78 238.205 126.165L249.374 132.615C249.726 132.845 250.019 133.154 250.229 133.517C250.439 133.881 250.56 134.289 250.582 134.709Z" fill="#E0E0E0"/>
<path d="M289.838 118.558L301.007 125.009C301.36 125.238 301.653 125.547 301.863 125.911C302.073 126.276 302.193 126.685 302.215 127.105V129.546C302.215 130.317 301.675 130.629 301.007 130.243L289.838 123.796C289.486 123.566 289.193 123.256 288.983 122.892C288.773 122.528 288.652 122.119 288.63 121.7V119.258C288.63 118.485 289.172 118.173 289.838 118.558Z" fill="#F0F0F0"/>
<path d="M338.751 141.027V143.466C338.751 144.237 338.211 144.549 337.543 144.163L326.374 137.716C326.022 137.486 325.729 137.176 325.519 136.812C325.309 136.448 325.188 136.039 325.166 135.62V133.178C325.166 132.41 325.708 132.098 326.374 132.481L337.543 138.931C337.895 139.161 338.188 139.47 338.398 139.834C338.608 140.199 338.729 140.607 338.751 141.027Z" fill="#F0F0F0"/>
<path d="M312.234 126.625V129.067C312.234 129.837 311.691 130.149 311.026 129.764L299.857 123.324C299.504 123.095 299.211 122.785 299.001 122.421C298.791 122.057 298.671 121.648 298.649 121.228V118.786C298.649 118.016 299.189 117.704 299.857 118.089L311.026 124.54C311.376 124.768 311.669 125.076 311.878 125.438C312.088 125.801 312.21 126.207 312.234 126.625Z" fill="#F0F0F0"/>
<path d="M340.907 115.084L345.445 117.704V122.931L340.907 120.311C340.555 120.081 340.262 119.772 340.052 119.407C339.842 119.043 339.721 118.635 339.699 118.215V115.773C339.699 115.013 340.241 114.702 340.907 115.084Z" fill="#F0F0F0"/>
<path d="M311.841 111.296L323.01 117.746C323.362 117.975 323.655 118.285 323.865 118.649C324.075 119.013 324.196 119.422 324.217 119.842V122.276C324.217 123.046 323.678 123.358 323.01 122.973L311.841 116.525C311.489 116.295 311.196 115.986 310.987 115.621C310.778 115.257 310.657 114.849 310.635 114.429V111.987C310.635 111.225 311.175 110.91 311.841 111.296Z" fill="#E0E0E0"/>
<path d="M237.021 107.973V110.415C237.021 111.186 236.481 111.497 235.813 111.112L224.644 104.664C224.292 104.435 224 104.125 223.79 103.761C223.58 103.397 223.459 102.988 223.437 102.568V100.127C223.437 99.3562 223.979 99.0444 224.644 99.4296L235.816 105.885C236.167 106.114 236.459 106.422 236.669 106.785C236.878 107.148 236.999 107.555 237.021 107.973Z" fill="#E0E0E0"/>
<path d="M228.76 121.105L221.555 116.944V122.184L228.76 126.342C229.426 126.727 229.966 126.416 229.966 125.645V123.193C229.943 122.775 229.822 122.368 229.612 122.005C229.403 121.642 229.111 121.334 228.76 121.105Z" fill="#F0F0F0"/>
<path d="M333.851 117.466L345.02 123.914C345.177 124.006 345.319 124.12 345.445 124.252V129.292C345.295 129.27 345.151 129.22 345.02 129.143L333.851 122.693C333.499 122.463 333.206 122.153 332.997 121.789C332.787 121.425 332.666 121.016 332.643 120.597V118.163C332.643 117.392 333.186 117.081 333.851 117.466Z" fill="#F0F0F0"/>
<path d="M276.67 129.473L287.839 135.921C288.191 136.15 288.484 136.46 288.694 136.824C288.904 137.188 289.025 137.597 289.047 138.017V140.459C289.047 141.226 288.507 141.538 287.839 141.156L276.67 134.705C276.318 134.475 276.025 134.166 275.815 133.802C275.605 133.438 275.484 133.029 275.462 132.609V130.167C275.462 129.4 276.004 129.088 276.67 129.473Z" fill="#F0F0F0"/>
<path d="M284.299 126.489L295.471 132.939C295.822 133.169 296.115 133.479 296.324 133.843C296.534 134.207 296.654 134.616 296.676 135.035V137.472C296.676 138.24 296.136 138.551 295.471 138.166L284.299 131.708C283.947 131.478 283.655 131.168 283.446 130.804C283.236 130.44 283.116 130.031 283.094 129.612V127.17C283.094 126.418 283.634 126.106 284.299 126.489Z" fill="#E0E0E0"/>
<path d="M261.188 120.534L272.357 126.992C272.71 127.221 273.003 127.531 273.213 127.895C273.423 128.259 273.543 128.668 273.565 129.088V131.53C273.565 132.3 273.025 132.612 272.357 132.227L261.188 125.761C260.835 125.532 260.542 125.222 260.332 124.858C260.122 124.493 260.002 124.085 259.98 123.665V121.228C259.98 120.46 260.52 120.149 261.188 120.534Z" fill="#F0F0F0"/>
<path d="M261.188 109.501L272.357 115.949C272.71 116.178 273.003 116.487 273.213 116.852C273.423 117.216 273.543 117.625 273.565 118.045V120.486C273.565 121.257 273.025 121.569 272.357 121.183L261.188 114.73C260.836 114.501 260.543 114.192 260.333 113.827C260.123 113.463 260.002 113.054 259.98 112.634V110.198C259.98 109.438 260.52 109.116 261.188 109.501Z" fill="#F0F0F0"/>
<path d="M324.217 74.0916V76.5335C324.217 77.3037 323.678 77.6155 323.012 77.2304L311.841 70.7799C311.489 70.5503 311.196 70.2408 310.987 69.8765C310.777 69.5122 310.657 69.1036 310.635 68.6839V66.2421C310.635 65.4718 311.175 65.16 311.841 65.5452L323.01 71.993C323.362 72.2226 323.656 72.5324 323.866 72.8972C324.076 73.262 324.196 73.6713 324.217 74.0916Z" fill="#F0F0F0"/>
<g filter="url(#filter2_d_86_311)">
<path d="M323.942 108.775V110.004L322.876 109.391V126.515C322.897 126.909 323.011 127.292 323.209 127.633C323.406 127.975 323.68 128.265 324.01 128.48L325.999 129.628C326.116 129.714 326.255 129.766 326.399 129.778C326.544 129.79 326.689 129.761 326.819 129.696C327 129.581 327.663 129.201 327.851 129.098C327.972 129.019 328.067 128.907 328.128 128.776C328.189 128.646 328.213 128.5 328.197 128.357V111.235L323.942 108.775Z" fill="#37474F"/>
<path d="M327.133 128.973C327.133 129.696 326.625 129.989 325.999 129.628L324.013 128.48C323.683 128.265 323.407 127.975 323.21 127.634C323.013 127.292 322.899 126.909 322.879 126.515V109.391L327.133 111.848V128.973Z" fill="#263238"/>
<path d="M325.006 124.136C325.314 124.338 325.571 124.608 325.756 124.927C325.94 125.245 326.048 125.603 326.07 125.97C326.07 126.649 325.593 126.924 325.006 126.583C324.698 126.382 324.441 126.111 324.256 125.793C324.072 125.474 323.964 125.117 323.942 124.749C323.942 124.073 324.419 123.798 325.006 124.136Z" fill="#37474F"/>
<path opacity="0.1" d="M330.327 113.693V127.209L328.2 125.981L327.133 126.489L322.879 124.031V122.91L251.573 81.7367V66.9913L330.327 113.693Z" fill="black"/>
<path d="M251.573 64.5391L330.327 110.009L301.591 126.599L222.837 81.1289L251.573 64.5391Z" fill="#455A64"/>
<path d="M251.573 64.5391L330.327 110.009L301.591 126.599L222.837 81.1289L251.573 64.5391Z" fill="#455A64"/>
<path d="M222.837 81.1289V84.8126L301.591 130.283V126.599L222.837 81.1289Z" fill="#37474F"/>
<path d="M330.327 110.009L301.591 126.599V130.283L330.327 113.693V110.009Z" fill="#263238"/>
</g>
<path d="M288.821 117.998L315.427 102.637L273.921 78.6714L247.315 94.0324L288.821 117.998Z" fill="#37474F"/>
<path d="M257.476 91.195L272.858 82.3132L248.861 68.4586L233.479 77.3404L257.476 91.195Z" fill="#37474F"/>
<path d="M314.364 111.238C317.303 112.936 317.303 115.692 314.364 117.382C311.424 119.072 306.658 119.08 303.721 117.382C300.784 115.684 300.782 112.928 303.721 111.238C306.661 109.548 311.424 109.54 314.364 111.238Z" fill="#37474F"/>
<g filter="url(#filter3_d_86_311)">
<path d="M256.988 86.893L255.985 87.3777L237.362 76.6252L238.368 76.1405L256.988 86.893Z" fill="#7FCFEF"/>
<path opacity="0.2" d="M256.988 86.893L255.985 87.3777L237.362 76.6252L238.368 76.1405L256.988 86.893Z" fill="black"/>
<path d="M238.368 76.1404L256.082 86.3663L259.082 55.3822L241.365 45.1642L238.368 76.1404Z" fill="#FAFAFA"/>
<path d="M240.459 75.5143L243.123 48.0095L256.988 56.0084L254.326 83.521L240.459 75.5143Z" fill="#E0E0E0"/>
<path d="M251.455 58.7803C251.814 59.0035 252.107 59.317 252.307 59.6894C252.506 60.0619 252.605 60.4802 252.592 60.9025C252.516 61.6701 251.887 61.9636 251.185 61.5601C250.827 61.3357 250.533 61.0216 250.334 60.6489C250.134 60.2762 250.036 59.8578 250.048 59.4353C250.124 58.6676 250.75 58.3742 251.455 58.7803Z" fill="#FAFAFA"/>
<path d="M235.468 77.508L257.515 90.2386L260.968 54.4992L238.929 41.7712L235.468 77.508ZM240.446 44.6297L259.068 55.3717L255.99 87.3776L237.367 76.6356L240.446 44.6297Z" fill="#7FCFEF"/>
<path d="M235.468 77.508L257.515 90.2386L260.968 54.4992L238.929 41.7712L235.468 77.508ZM240.446 44.6297L259.068 55.3717L255.99 87.3776L237.367 76.6356L240.446 44.6297Z" fill="#7FCFEF"/>
<path d="M237.362 76.6252L238.368 76.1405L241.365 45.1642L240.459 44.6298L237.362 76.6252Z" fill="#7FCFEF"/>
<path opacity="0.35" d="M237.362 76.6252L238.368 76.1405L241.365 45.1642L240.459 44.6298L237.362 76.6252Z" fill="black"/>
<path d="M238.929 41.7713L239.948 41.2997L261.995 54.0276L260.976 54.4992L238.929 41.7713Z" fill="#7FCFEF"/>
<path opacity="0.2" d="M238.929 41.7713L239.948 41.2997L261.995 54.0276L260.976 54.4992L238.929 41.7713Z" fill="white"/>
<path d="M261.995 54.0276L260.976 54.4992L257.515 90.2386L258.534 89.767L261.995 54.0276Z" fill="#7FCFEF"/>
<path opacity="0.35" d="M261.995 54.0276L260.976 54.4992L257.515 90.2386L258.534 89.767L261.995 54.0276Z" fill="black"/>
<path d="M243.05 63.5592L247.389 58.293L250.31 70.6358L250.388 68.1153L252.327 65.3591L254.004 72.0191L253.118 81.1761L241.968 74.7387L243.05 63.5592Z" fill="#FAFAFA"/>
</g>
<path d="M312.891 101.397L288.224 115.467L253.137 95.3319L277.802 83.6493L312.891 101.397Z" fill="#7FCFEF"/>
<path d="M287.98 114.547L311.898 100.826C311.361 99.309 311.403 99.9273 312.008 97.9047L288.216 111.5C288.216 111.5 287.833 110.392 287.98 114.547Z" fill="#F5F5F5"/>
<path d="M289.264 109.839C288.692 110.209 288.215 110.709 287.872 111.298C287.53 111.887 287.332 112.549 287.294 113.229V114.801C287.294 116.048 288.177 116.554 289.264 115.93L312.883 102.38V101.4L289.531 114.723C288.879 115.097 288.352 114.793 288.352 114.044L288.371 112.765C288.393 112.357 288.512 111.96 288.717 111.607C288.923 111.254 289.209 110.954 289.552 110.732L312.87 97.4043V96.2935L289.264 109.839Z" fill="#7FCFEF"/>
<path opacity="0.3" d="M289.264 109.839C288.692 110.209 288.215 110.709 287.872 111.298C287.53 111.887 287.332 112.549 287.294 113.229V114.801C287.294 116.048 288.177 116.554 289.264 115.93L312.883 102.38V101.4L289.531 114.723C288.879 115.097 288.352 114.793 288.352 114.044L288.371 112.765C288.393 112.357 288.512 111.96 288.717 111.607C288.923 111.254 289.209 110.954 289.552 110.732L312.87 97.4043V96.2935L289.264 109.839Z" fill="white"/>
<path d="M312.889 96.2908L277.802 76.1639L254.182 89.7041C253.611 90.0745 253.134 90.5746 252.793 91.1637C252.451 91.7528 252.253 92.4143 252.215 93.0944V94.6664C252.215 95.2873 252.432 95.7144 252.791 95.9318L287.878 116.067C287.519 115.862 287.302 115.425 287.302 114.804V113.232C287.338 112.552 287.535 111.89 287.876 111.3C288.217 110.71 288.693 110.21 289.264 109.839L312.889 96.2908Z" fill="#7FCFEF"/>
<path opacity="0.7" d="M312.889 96.2908L277.802 76.1639L254.182 89.7041C253.611 90.0745 253.134 90.5746 252.793 91.1637C252.451 91.7528 252.253 92.4143 252.215 93.0944V94.6664C252.215 95.2873 252.432 95.7144 252.791 95.9318L287.878 116.067C287.519 115.862 287.302 115.425 287.302 114.804V113.232C287.338 112.552 287.535 111.89 287.876 111.3C288.217 110.71 288.693 110.21 289.264 109.839L312.889 96.2908Z" fill="white"/>
<path d="M287.875 111.298C287.521 111.881 287.322 112.545 287.296 113.226V114.798C287.296 115.419 287.514 115.846 287.873 116.061L252.791 95.9292C252.432 95.7223 252.215 95.2847 252.215 94.6638V93.0918C252.238 92.4102 252.437 91.7462 252.791 91.1635L287.875 111.298Z" fill="#7FCFEF"/>
<path d="M287.875 111.298C287.521 111.881 287.322 112.545 287.296 113.226V114.798C287.296 115.419 287.514 115.846 287.873 116.061L252.791 95.9292C252.432 95.7223 252.215 95.2847 252.215 94.6638V93.0918C252.238 92.4102 252.437 91.7462 252.791 91.1635L287.875 111.298Z" fill="#7FCFEF"/>
<path opacity="0.4" d="M287.875 111.298C287.521 111.881 287.322 112.545 287.296 113.226V114.798C287.296 115.419 287.514 115.846 287.873 116.061L252.791 95.9292C252.432 95.7223 252.215 95.2847 252.215 94.6638V93.0918C252.238 92.4102 252.437 91.7462 252.791 91.1635L287.875 111.298Z" fill="white"/>
<path d="M315.142 95.683L290.474 109.755L255.387 89.6203L280.055 77.6888L315.142 95.683Z" fill="#7FCFEF"/>
<path opacity="0.5" d="M315.142 95.683L290.474 109.755L255.387 89.6203L280.055 77.6888L315.142 95.683Z" fill="black"/>
<path d="M290.233 108.835L314.154 95.1145C313.63 93.5949 313.659 93.9643 314.267 91.9417L290.48 105.537C290.48 105.537 290.087 104.68 290.233 108.835Z" fill="#F5F5F5"/>
<path d="M291.52 103.878C290.948 104.248 290.472 104.747 290.13 105.336C289.788 105.925 289.59 106.586 289.552 107.266V109.084C289.552 110.334 290.433 110.84 291.52 110.216L315.139 96.6654V95.6855L291.79 109.008C291.137 109.38 290.608 109.079 290.611 108.33L290.629 106.802C290.652 106.394 290.771 105.996 290.976 105.643C291.181 105.289 291.467 104.989 291.811 104.766L315.129 91.4385V90.3276L291.52 103.878Z" fill="#7FCFEF"/>
<path opacity="0.3" d="M291.52 103.878C290.948 104.248 290.472 104.747 290.13 105.336C289.788 105.925 289.59 106.586 289.552 107.266V109.084C289.552 110.334 290.433 110.84 291.52 110.216L315.139 96.6654V95.6855L291.79 109.008C291.137 109.38 290.608 109.079 290.611 108.33L290.629 106.802C290.652 106.394 290.771 105.996 290.976 105.643C291.181 105.289 291.467 104.989 291.811 104.766L315.129 91.4385V90.3276L291.52 103.878Z" fill="black"/>
<path d="M315.139 90.3303L280.054 70.193L256.435 83.7436C255.863 84.1132 255.387 84.6127 255.045 85.2015C254.703 85.7902 254.505 86.4515 254.468 87.1313V88.9522C254.468 89.5731 254.688 90.0002 255.047 90.2177L290.134 110.352C289.775 110.148 289.557 109.708 289.555 109.087V107.253C289.593 106.573 289.791 105.911 290.133 105.322C290.475 104.733 290.951 104.233 291.522 103.863L315.139 90.3303Z" fill="#7FCFEF"/>
<path opacity="0.1" d="M315.139 90.3303L280.054 70.193L256.435 83.7436C255.863 84.1132 255.387 84.6127 255.045 85.2015C254.703 85.7902 254.505 86.4515 254.468 87.1313V88.9522C254.468 89.5731 254.688 90.0002 255.047 90.2177L290.134 110.352C289.775 110.148 289.557 109.708 289.555 109.087V107.253C289.593 106.573 289.791 105.911 290.133 105.322C290.475 104.733 290.951 104.233 291.522 103.863L315.139 90.3303Z" fill="black"/>
<path d="M290.126 105.338C289.772 105.92 289.573 106.584 289.55 107.266V109.1C289.55 109.721 289.77 110.148 290.129 110.365L255.044 90.2177C254.685 90.0107 254.468 89.5732 254.465 88.9522V87.1313C254.489 86.4498 254.688 85.7859 255.042 85.203L290.126 105.338Z" fill="#7FCFEF"/>
<path d="M290.126 105.338C289.772 105.92 289.573 106.584 289.55 107.266V109.1C289.55 109.721 289.77 110.148 290.129 110.365L255.044 90.2177C254.685 90.0107 254.468 89.5732 254.465 88.9522V87.1313C254.489 86.4498 254.688 85.7859 255.042 85.203L290.126 105.338Z" fill="#7FCFEF"/>
<path opacity="0.25" d="M290.126 105.338C289.772 105.92 289.573 106.584 289.55 107.266V109.1C289.55 109.721 289.77 110.148 290.129 110.365L255.044 90.2177C254.685 90.0107 254.468 89.5732 254.465 88.9522V87.1313C254.489 86.4498 254.688 85.7859 255.042 85.203L290.126 105.338Z" fill="black"/>
<g filter="url(#filter4_d_86_311)">
<path d="M260.994 69.9677C258.044 70.3057 255.456 71.6681 253.134 73.4497C252.642 73.827 252.157 74.2121 251.698 74.6287C246.741 79.122 245.479 86.7567 248.882 92.5233C250.265 94.8656 252.209 96.8332 254.334 98.5283C255.906 99.7833 257.515 100.637 258.668 102.309C259.716 103.813 259.414 105.427 258.846 106.532C260.019 106.172 261.103 105.57 262.028 104.764C262.953 103.959 263.699 102.968 264.217 101.856C265.432 99.2043 265.129 96.1546 263.729 93.6473C261.992 90.5373 259.192 88.1453 257.638 84.9724C256.205 82.0773 256.226 78.522 258.086 75.8234C258.85 74.7449 259.856 73.8598 261.022 73.2389C262.189 72.6179 263.485 72.2783 264.806 72.2471C265.112 72.2755 265.42 72.2145 265.692 72.0716C266.14 71.765 266.087 71.0236 265.718 70.6384C265.349 70.2533 264.783 70.1144 264.246 70.0175C263.169 69.8549 262.075 69.8381 260.994 69.9677Z" fill="#37474F"/>
<path d="M264.206 101.856C265.422 99.2043 265.118 96.1546 263.719 93.6473C263.473 93.2045 263.195 92.7774 262.917 92.3582C263.197 93.202 263.319 94.0902 263.276 94.9782C263.305 94.4149 260.837 91.9679 260.601 92.4002C260.563 92.4934 260.557 92.5964 260.583 92.6936C260.769 93.8149 261.175 94.8237 261.136 95.9712C259.729 94.9809 258.613 93.5818 257.09 92.7827C256.991 92.7329 256.855 92.6883 256.781 92.7827C256.747 92.8313 256.731 92.8909 256.737 92.9504C256.756 93.3015 256.831 93.6473 256.959 93.9748C257.356 95.1398 257.849 96.2695 258.434 97.3519C257.454 96.7096 256.53 95.9847 255.673 95.1852C255.29 94.8263 254.853 94.4306 254.332 94.4595C254.221 95.4259 254.486 96.398 255.073 97.1738C252.963 96.0411 250.996 94.6612 249.212 93.063C250.564 95.159 252.356 96.9668 254.324 98.5309C255.896 99.7859 257.504 100.64 258.657 102.312C259.705 103.815 259.404 105.429 258.835 106.535C260.008 106.175 261.093 105.572 262.018 104.766C262.943 103.96 263.689 102.968 264.206 101.856Z" fill="#F5F5F5"/>
<path d="M302.731 91.1399C306.661 94.3494 308.469 92.6464 310.997 90.2202C313.525 87.7941 317.547 83.5366 318.461 83.382C319.376 83.2275 322.446 83.2589 322.148 81.5349C321.886 79.997 319.897 79.1586 317.529 79.604C315.16 80.0494 314.204 80.783 313.012 81.3463C312.006 81.8231 310.85 82.3078 309.619 83.01C308.804 83.4737 307.523 81.2494 306.601 80.2957L302.731 91.1399Z" fill="#37474F"/>
<path d="M320.704 80.6572C320.678 80.6284 320.67 80.521 320.733 80.5367C321.362 80.6861 321.82 81.2625 322.043 81.8467C322.075 81.9322 322.101 82.0198 322.121 82.1087C322.041 82.3376 321.887 82.5337 321.684 82.6668C321.681 82.5226 321.666 82.3788 321.639 82.2371C321.516 81.5926 321.118 81.1079 320.704 80.6572Z" fill="#263238"/>
<path d="M320.18 82.19C320.117 81.977 320.029 81.7721 319.918 81.5795C319.767 81.3216 319.55 81.1082 319.289 80.9612C319.229 80.9271 319.247 80.7699 319.331 80.7961C319.772 80.9354 320.157 81.2105 320.432 81.5821C320.72 82.0101 320.875 82.5147 320.874 83.031C320.688 83.0834 320.494 83.1279 320.301 83.1646C320.31 82.8355 320.269 82.5069 320.18 82.19Z" fill="#263238"/>
<path d="M307.604 77.3849C306.682 78.0006 306.464 78.9779 306.849 80.0049C307.041 80.4589 307.268 80.8969 307.528 81.3149C308.183 82.4546 308.731 83.7594 308.497 85.0537C308.308 84.4532 307.933 83.9284 307.426 83.555C307.763 84.2064 307.868 84.9535 307.723 85.6726C307.577 86.3917 307.191 87.0395 306.627 87.5086C306.543 86.9068 306.366 86.3217 306.103 85.7742C306.161 86.4707 306.02 87.1695 305.697 87.789C305.419 88.3627 304.989 88.8239 304.677 89.361C304.465 89.7356 304.279 90.1103 304.028 90.4718C303.476 91.2535 302.847 91.9784 302.152 92.636C301.298 93.4482 299.854 94.6193 298.803 95.1459C295.065 97.0166 285.997 96.4323 281.249 91.3417C276.502 86.251 273.544 86.5445 269.352 84.9541C265.16 83.3638 257.541 82.6721 257.541 75.1815C257.541 67.7381 261.521 64.1146 263.771 63.8107C265.823 59.024 271.92 57.2791 277.06 57.9052C281.069 58.3926 284.632 60.5907 287.435 64.1146C290.239 67.6385 295.049 68.8306 295.049 68.8306L307.604 77.3849Z" fill="#455A64"/>
<path d="M306.721 87.2282C306.49 87.3881 306.417 86.9453 306.197 86.6571C306.399 88.5723 305.691 90.0133 304.232 91.2526C304.31 90.909 304.343 90.5566 304.329 90.2046C304.292 90.6919 303.763 91.4412 303.512 91.7425C302.206 93.2144 300.59 94.3777 298.78 95.1485C299.658 94.2708 299.982 92.9084 299.566 91.8552C299.379 92.2045 299.195 92.5626 299.013 92.9294C298.451 92.2982 298.142 91.4818 298.146 90.6369C298.145 89.7678 298.246 88.9017 298.447 88.0562C298.227 88.5513 297.876 90.0998 297.25 89.34C296.726 88.7033 296.679 87.6946 296.726 86.8745C296.872 84.5165 297.928 82.3629 300.016 81.1367C301.709 80.1438 304.884 79.5516 306.304 81.3437C306.881 82.1621 307.242 83.1129 307.352 84.1078C307.476 85.1689 307.389 86.568 306.721 87.2282Z" fill="#EBEBEB"/>
<path d="M290.679 66.1084C289.369 63.7871 289.717 58.3584 291.68 57.258C293.532 56.21 297.795 61.6806 297.795 61.6806C297.795 61.6806 294.289 65.5477 290.679 66.1084Z" fill="#37474F"/>
<path d="M292.916 64.7146C295.384 63.2788 297.795 61.6806 297.795 61.6806C297.795 61.6806 293.728 56.4904 292.206 57.3576C291.247 57.7663 290.273 60.8108 292.916 64.7146Z" fill="#FFA8A7"/>
<path d="M296.393 61.7539C295.976 61.5512 295.626 61.2317 295.387 60.8343C295.072 60.3931 294.907 59.862 294.918 59.3199C294.004 59.9461 293.621 61.4579 293.621 61.4579C292.287 61.243 292.371 59.9068 292.371 59.9068C291.693 60.6404 291.716 62.4901 292.895 63.4491C293.528 63.5305 294.171 63.4229 294.742 63.1399C295.777 62.6709 296.322 62.1312 296.393 61.7539Z" fill="#F28F8F"/>
<path d="M293.595 63.8107C292.717 63.2002 292.167 61.9059 292.547 61.0125C292.547 61.0125 293.155 61.7749 293.857 61.7985C293.857 61.7985 294.203 59.2728 295.602 58.8877C295.602 58.8877 295.298 60.5514 296.537 61.4579C296.914 63.8107 293.595 63.8107 293.595 63.8107Z" fill="#455A64"/>
<path d="M301.172 60.5488C302.398 58.5078 305.93 56.5009 308.065 57.989C309.268 58.8301 306.925 64.801 306.925 64.801C306.925 64.801 302.925 63.1819 301.172 60.5488Z" fill="#37474F"/>
<path d="M302.888 62.2151C304.858 63.5644 306.931 64.7984 306.931 64.7984C306.931 64.7984 309.273 58.83 308.07 57.9864C307.242 57.6039 304.785 58.4475 302.888 62.2151Z" fill="#FFA8A7"/>
<path d="M306.682 63.4779C306.81 63.2234 306.979 62.9916 307.182 62.7915C307.313 62.4142 307.46 61.974 307.599 61.5077C306.999 61.2142 306.341 61.0576 305.673 61.0492C305.629 60.3916 306.221 59.7392 306.221 59.7392C305.435 59.5112 304.125 60.2841 303.839 61.6256C304.034 62.1359 304.33 62.6019 304.709 62.9958C305.144 63.229 305.539 63.4229 305.867 63.5775C306.143 63.6042 306.421 63.5702 306.682 63.4779Z" fill="#F28F8F"/>
<path d="M304.18 62.0814C304.442 61.1539 305.327 60.3024 306.121 60.3548C306.121 60.3548 305.67 61.0963 305.822 61.7068C305.822 61.7068 307.897 61.2561 308.547 62.3356C308.547 62.3356 307.164 62.5661 306.755 63.8918C305.002 64.9136 304.18 62.0814 304.18 62.0814Z" fill="#455A64"/>
<path d="M300.349 60.3994C302.642 60.6588 304.796 61.6258 306.514 63.1661C308.108 64.5854 309.438 66.2751 310.444 68.1572C310.905 68.9956 311.406 69.8393 311.641 70.7772C311.923 71.8762 311.899 73.0312 311.573 74.1177C311.462 73.6628 311.275 73.2297 311.02 72.8366C311.12 73.4339 310.905 74.1911 310.654 74.7439C310.633 74.4584 310.553 74.1802 310.42 73.9265C310.302 74.1442 310.169 74.3535 310.022 74.5527C309.849 74.8147 309.669 75.0583 309.477 75.302C309.08 75.805 308.641 76.2746 308.167 76.7063C307.244 77.5895 306.13 78.2476 304.911 78.6294C304.659 78.7023 304.402 78.7583 304.143 78.7971C301.699 79.134 299.211 78.9182 296.862 78.1656C295.746 77.8206 294.665 77.3705 293.634 76.8216C293.204 76.5936 291.732 75.543 291.674 74.8251C291.528 74.8913 291.402 74.9958 291.309 75.1277C291.217 75.2596 291.162 75.4139 291.15 75.5745C290.658 75.1711 290.303 74.6259 290.132 74.0131C289.962 73.4002 289.984 72.7497 290.197 72.1501C289.657 72.4732 289.226 72.9492 288.957 73.5178C288.397 72.8339 288.305 71.8803 288.371 70.9973C288.478 69.5013 289.214 68.2594 290.005 67.0254C292.214 63.546 296.1 60.5828 300.349 60.3994Z" fill="#455A64"/>
<path d="M310.415 73.9212C310.189 74.3187 309.937 74.7011 309.661 75.0662C309.396 75.44 309.107 75.7962 308.796 76.1325C308.181 76.8139 307.476 77.408 306.7 77.8984C306.305 78.1436 305.888 78.3523 305.456 78.5219C305.022 78.6818 304.575 78.8028 304.119 78.8835C303.209 79.0227 302.288 79.0771 301.368 79.0459C299.528 78.979 297.71 78.6254 295.979 77.9979C295.111 77.6893 294.269 77.3108 293.461 76.8661C293.067 76.6206 292.697 76.339 292.356 76.0251C292.181 75.869 292.021 75.6981 291.876 75.5142C291.714 75.3247 291.606 75.0947 291.564 74.8487L291.698 74.9325C291.565 74.9887 291.451 75.0803 291.367 75.1972C291.283 75.3141 291.232 75.4518 291.221 75.5954V75.7788L291.08 75.6661C290.572 75.2508 290.206 74.6883 290.032 74.0562C289.858 73.4241 289.884 72.7535 290.108 72.137L290.226 72.2366C289.697 72.5415 289.271 72.9965 289.002 73.5439L288.955 73.6435L288.887 73.557C288.526 73.077 288.319 72.4986 288.295 71.8986C288.252 71.3113 288.301 70.7209 288.439 70.1484C288.722 69.0009 289.348 67.9895 289.987 67.0201C289.371 68.0053 288.771 69.0297 288.52 70.1641C288.397 70.73 288.36 71.3112 288.41 71.8881C288.443 72.4588 288.646 73.0065 288.994 73.4601H288.876C289.148 72.8762 289.587 72.3858 290.136 72.0505L290.336 71.9326L290.254 72.1501C290.052 72.7331 290.033 73.3641 290.2 73.9581C290.368 74.5521 290.713 75.0805 291.19 75.4723L291.038 75.5404C291.051 75.3609 291.112 75.1884 291.216 75.0415C291.32 74.8946 291.462 74.779 291.627 74.7072L291.748 74.6574L291.763 74.7884C291.801 74.9941 291.891 75.1865 292.025 75.3465C292.165 75.5214 292.32 75.6844 292.487 75.8338C292.819 76.1368 293.18 76.4079 293.563 76.6434C294.363 77.0747 295.192 77.4477 296.045 77.7595C297.754 78.3904 299.551 78.7502 301.371 78.8259C302.28 78.8613 303.19 78.8165 304.091 78.6922C304.536 78.6196 304.974 78.5083 305.401 78.3595C305.825 78.2 306.234 78.0018 306.621 77.7674C307.399 77.292 308.111 76.7178 308.741 76.0591C309.06 75.7307 309.356 75.3805 309.627 75.0111C309.913 74.6653 310.176 74.3012 310.415 73.9212Z" fill="#263238"/>
<path d="M300.761 71.689C303.336 70.2061 301.989 63.8107 301.989 63.8107C303.333 66.6036 303.836 69.9231 306.496 71.0157C308.809 71.9667 310.048 72.7449 309.483 75.281C308.283 77.0364 306.417 78.687 304.211 78.9752C302.306 79.2189 299.946 79.1036 297.124 78.2469C295.921 74.854 297.504 73.5623 300.761 71.689Z" fill="#FAFAFA"/>
<path d="M297.808 69.2602C297.775 69.4764 297.807 69.6974 297.9 69.8953C297.993 70.0932 298.142 70.2592 298.329 70.3722C298.517 70.4852 298.733 70.5402 298.951 70.5302C299.17 70.5202 299.38 70.4458 299.556 70.3162C299.732 70.1866 299.866 70.0077 299.941 69.8022C300.015 69.5967 300.027 69.3737 299.975 69.1614C299.922 68.9491 299.808 68.7571 299.647 68.6096C299.486 68.4621 299.284 68.3658 299.068 68.3328C298.778 68.2891 298.483 68.3623 298.246 68.5361C298.01 68.71 297.852 68.9704 297.808 69.2602Z" fill="white"/>
<path d="M297.617 69.1711C297.584 69.3873 297.616 69.6083 297.709 69.8062C297.802 70.0041 297.951 70.17 298.138 70.283C298.325 70.3961 298.542 70.451 298.76 70.4411C298.979 70.4311 299.189 70.3566 299.365 70.2271C299.541 70.0975 299.675 69.9186 299.749 69.7131C299.824 69.5075 299.836 69.2845 299.783 69.0723C299.731 68.86 299.617 68.668 299.456 68.5205C299.294 68.373 299.093 68.2767 298.877 68.2436C298.733 68.2217 298.587 68.2283 298.445 68.263C298.304 68.2978 298.171 68.36 298.054 68.4461C297.937 68.5323 297.838 68.6406 297.763 68.765C297.688 68.8894 297.638 69.0274 297.617 69.1711Z" fill="#263238"/>
<path d="M298.709 69.0349C298.709 69.1007 298.69 69.165 298.653 69.2197C298.616 69.2745 298.564 69.3171 298.504 69.3423C298.443 69.3675 298.376 69.3741 298.311 69.3612C298.247 69.3484 298.188 69.3167 298.141 69.2702C298.095 69.2236 298.063 69.1643 298.05 69.0998C298.037 69.0353 298.044 68.9684 298.069 68.9076C298.094 68.8468 298.137 68.7948 298.191 68.7582C298.246 68.7217 298.311 68.7021 298.376 68.7021C298.465 68.7021 298.549 68.7372 298.612 68.7996C298.674 68.862 298.709 68.9466 298.709 69.0349Z" fill="#FAFAFA"/>
<path d="M305.508 68.5895C305.477 68.7892 305.506 68.9936 305.592 69.1768C305.677 69.3599 305.815 69.5137 305.987 69.6186C306.16 69.7235 306.36 69.7748 306.562 69.7661C306.764 69.7573 306.959 69.6889 307.122 69.5695C307.285 69.4501 307.409 69.285 307.478 69.0951C307.547 68.9053 307.558 68.6992 307.511 68.5028C307.463 68.3065 307.358 68.1288 307.209 67.9922C307.06 67.8556 306.874 67.7663 306.674 67.7354C306.541 67.7142 306.406 67.7195 306.275 67.751C306.144 67.7826 306.021 67.8397 305.913 67.9192C305.804 67.9986 305.713 68.0987 305.643 68.2138C305.574 68.3289 305.528 68.4566 305.508 68.5895Z" fill="white"/>
<path d="M305.332 68.5083C305.303 68.7074 305.333 68.911 305.418 69.0931C305.504 69.2753 305.642 69.428 305.815 69.5319C305.987 69.6358 306.187 69.6862 306.388 69.6769C306.589 69.6676 306.783 69.5989 306.945 69.4795C307.107 69.3601 307.23 69.1953 307.299 69.0059C307.367 68.8166 307.378 68.6112 307.33 68.4157C307.282 68.2201 307.177 68.0432 307.029 67.9072C306.88 67.7712 306.695 67.6822 306.496 67.6515C306.363 67.6311 306.228 67.6371 306.097 67.6691C305.967 67.7011 305.844 67.7586 305.736 67.8382C305.628 67.9178 305.537 68.018 305.467 68.133C305.398 68.248 305.352 68.3755 305.332 68.5083Z" fill="#263238"/>
<path d="M306.035 68.6891C306.204 68.6891 306.341 68.5519 306.341 68.3826C306.341 68.2133 306.204 68.076 306.035 68.076C305.865 68.076 305.728 68.2133 305.728 68.3826C305.728 68.5519 305.865 68.6891 306.035 68.6891Z" fill="#FAFAFA"/>
<path d="M296.726 73.3186H296.741C296.783 73.2904 296.811 73.2473 296.821 73.1983C296.831 73.1494 296.821 73.0985 296.794 73.0566C296.252 72.1527 295.243 71.1152 293.503 71.3222C293.455 71.3281 293.411 71.353 293.381 71.3913C293.351 71.4296 293.337 71.4783 293.343 71.5266C293.349 71.5749 293.374 71.6188 293.412 71.6488C293.451 71.6788 293.499 71.6923 293.548 71.6864C295.107 71.5004 296.016 72.4331 296.503 73.2584C296.525 73.295 296.561 73.3217 296.602 73.3329C296.644 73.3441 296.688 73.339 296.726 73.3186Z" fill="#263238"/>
<path d="M296.238 73.7535C296.256 73.7443 296.272 73.7319 296.286 73.7168C296.319 73.6814 296.338 73.6345 296.338 73.5858C296.338 73.5372 296.319 73.4903 296.286 73.4548C295.962 73.1707 295.581 72.9589 295.169 72.8337C294.757 72.7086 294.323 72.6729 293.896 72.7291C293.851 72.7413 293.813 72.77 293.789 72.8094C293.764 72.8488 293.756 72.896 293.765 72.9415C293.774 72.9869 293.799 73.0273 293.837 73.0545C293.874 73.0817 293.921 73.0937 293.967 73.088C294.339 73.0409 294.716 73.0725 295.075 73.1809C295.434 73.2892 295.766 73.4718 296.05 73.7168C296.074 73.7412 296.105 73.7578 296.138 73.7643C296.172 73.7709 296.207 73.7671 296.238 73.7535Z" fill="#263238"/>
<path d="M296.307 74.5029C296.339 74.4835 296.365 74.4541 296.38 74.4191C296.398 74.375 296.398 74.3259 296.382 74.2814C296.365 74.2368 296.333 74.2 296.291 74.178C295.772 73.9583 295.208 73.8673 294.646 73.913C294.084 73.9586 293.542 74.1394 293.066 74.44C293.044 74.4531 293.026 74.4703 293.011 74.4907C292.997 74.5111 292.986 74.5343 292.981 74.5587C292.976 74.5832 292.975 74.6085 292.98 74.6331C292.985 74.6578 292.994 74.6812 293.008 74.702C293.019 74.7219 293.033 74.7395 293.051 74.7538C293.068 74.768 293.089 74.7786 293.11 74.785C293.132 74.7913 293.155 74.7933 293.177 74.7907C293.2 74.7882 293.221 74.7812 293.241 74.7701C293.67 74.4975 294.158 74.3327 294.664 74.2898C295.17 74.2469 295.679 74.3272 296.147 74.5239C296.173 74.5346 296.201 74.5383 296.229 74.5346C296.257 74.5309 296.284 74.52 296.307 74.5029Z" fill="#263238"/>
<path d="M309.611 71.4165H309.595C309.552 71.3974 309.517 71.3623 309.498 71.3184C309.48 71.2746 309.479 71.2253 309.496 71.1807C309.847 70.1851 310.633 68.972 312.378 68.8227C312.401 68.8216 312.424 68.8252 312.446 68.8332C312.468 68.8412 312.489 68.8534 312.506 68.8693C312.523 68.8851 312.537 68.9042 312.547 68.9254C312.557 68.9466 312.563 68.9696 312.564 68.993C312.566 69.0161 312.564 69.0394 312.558 69.0617C312.551 69.084 312.54 69.1047 312.526 69.1227C312.511 69.1408 312.493 69.1557 312.472 69.1667C312.452 69.1777 312.43 69.1846 312.406 69.1869C310.834 69.3153 310.132 70.4078 309.815 71.3038C309.802 71.3451 309.773 71.3797 309.735 71.4007C309.697 71.4216 309.653 71.4273 309.611 71.4165Z" fill="#263238"/>
<path d="M310.174 71.744C310.155 71.739 310.137 71.7301 310.122 71.7178C310.082 71.6884 310.055 71.6447 310.047 71.5958C310.038 71.5469 310.049 71.4967 310.077 71.4558C310.339 71.1139 310.67 70.8316 311.049 70.6278C311.428 70.4241 311.846 70.3035 312.275 70.2742C312.32 70.2795 312.361 70.301 312.391 70.3346C312.421 70.3681 312.437 70.4114 312.437 70.4563C312.437 70.5011 312.421 70.5444 312.391 70.578C312.361 70.6115 312.32 70.633 312.275 70.6383C311.902 70.6663 311.538 70.7721 311.208 70.949C310.878 71.1258 310.588 71.3699 310.358 71.6654C310.34 71.697 310.313 71.7219 310.279 71.7362C310.246 71.7504 310.209 71.7532 310.174 71.744Z" fill="#263238"/>
<path d="M310.255 72.496C310.22 72.4845 310.19 72.4615 310.169 72.4305C310.14 72.3902 310.129 72.3404 310.136 72.2916C310.143 72.2428 310.169 72.1987 310.208 72.1685C310.673 71.8509 311.209 71.6507 311.768 71.585C312.327 71.5193 312.894 71.59 313.42 71.7912C313.465 71.8088 313.501 71.843 313.52 71.8865C313.54 71.9301 313.542 71.9795 313.525 72.0244C313.519 72.0462 313.508 72.0665 313.494 72.0841C313.48 72.1017 313.462 72.1162 313.442 72.1267C313.422 72.1372 313.4 72.1436 313.377 72.1454C313.355 72.1471 313.332 72.1443 313.31 72.1371C312.836 71.9546 312.325 71.8893 311.82 71.9468C311.315 72.0043 310.831 72.1828 310.41 72.4672C310.389 72.4854 310.364 72.4976 310.337 72.5027C310.309 72.5078 310.281 72.5055 310.255 72.496Z" fill="#263238"/>
<path d="M302.063 75.5876C301.598 75.6021 301.145 75.4422 300.792 75.1396C300.757 75.1007 300.739 75.0504 300.739 74.9984C300.739 74.9463 300.759 74.8963 300.795 74.8581C300.83 74.8199 300.878 74.7962 300.93 74.7915C300.982 74.7869 301.033 74.8017 301.075 74.8331C301.518 75.2444 302.343 75.2889 302.995 74.9379C303.314 74.7641 303.57 74.4958 303.729 74.1701C303.888 73.8444 303.942 73.4773 303.884 73.1196C303.871 73.0556 303.863 72.9908 303.86 72.9257C303.859 72.8739 303.878 72.8236 303.912 72.7845C303.946 72.7455 303.993 72.7205 304.045 72.7143C304.096 72.7081 304.148 72.7212 304.19 72.751C304.233 72.7809 304.262 72.8254 304.274 72.8759L304.298 73.0488C304.398 73.5373 304.685 73.9676 305.097 74.2488C305.285 74.3594 305.498 74.4212 305.716 74.4285C305.934 74.4358 306.151 74.3885 306.346 74.2907C306.372 74.2761 306.4 74.2671 306.43 74.2642C306.459 74.2613 306.489 74.2646 306.517 74.274C306.545 74.2833 306.57 74.2984 306.592 74.3184C306.614 74.3383 306.631 74.3626 306.643 74.3897C306.654 74.4168 306.66 74.446 306.66 74.4755C306.659 74.505 306.653 74.5341 306.64 74.5608C306.628 74.5876 306.61 74.6114 306.588 74.6308C306.566 74.6502 306.54 74.6646 306.511 74.6732C306.255 74.7996 305.972 74.8596 305.687 74.8477C305.401 74.8358 305.124 74.7524 304.879 74.6051C304.624 74.4451 304.407 74.2314 304.243 73.9789C304.172 74.2619 304.043 74.5265 303.862 74.7552C303.681 74.9838 303.454 75.1712 303.195 75.3047C302.846 75.4904 302.457 75.5876 302.063 75.5876Z" fill="#263238"/>
<path d="M304.106 73.4129C304.405 73.392 305.123 72.6898 305.154 72.2051C305.186 71.7204 302.781 72.0453 302.778 72.4278C302.77 72.9675 303.81 73.4339 304.106 73.4129Z" fill="#F28F8F"/>
<path d="M276.9 73.13C276.757 72.3874 276.492 71.6737 276.114 71.0183C275.743 70.3573 275.284 69.75 274.749 69.2131C273.589 68.0601 272.16 67.2137 270.591 66.7503C269.748 66.5156 268.882 66.3741 268.008 66.3285C266.231 66.1803 264.445 66.4644 262.802 67.1564C260.959 67.9419 259.448 69.3469 258.531 71.1284C257.885 72.5382 257.551 74.0708 257.552 75.6217C257.483 78.2652 258.125 81.1027 260.085 82.8764C262.59 85.1663 265.849 86.9139 269.145 88.3025C272.441 89.6911 274.815 89.6701 275.695 88.1688C276.662 85.7951 272.108 83.6913 272.108 83.6913C272.108 83.6913 272.457 83.5655 273.104 82.8686C273.99 82.0595 274.687 81.0659 275.147 79.9578C276.08 78.3412 275.912 76.2662 275.451 74.4558C275.698 74.6148 275.899 74.8356 276.034 75.0961C276.169 75.3567 276.234 75.648 276.222 75.9413C276.336 75.1998 276.277 74.442 276.05 73.727C275.823 73.0121 275.433 72.3594 274.912 71.82C275.694 72.0405 276.389 72.4982 276.9 73.13Z" fill="#455A64"/>
<path d="M274.115 87.7312C273.84 87.3606 273.455 87.0857 273.015 86.9452C272.931 86.919 272.913 87.0736 272.973 87.1103C273.234 87.2566 273.451 87.4701 273.602 87.7286C273.711 87.9211 273.799 88.1249 273.864 88.3365C273.946 88.6324 273.985 88.9385 273.982 89.2456C274.176 89.2125 274.366 89.1607 274.55 89.091C274.538 88.6055 274.387 88.1337 274.115 87.7312Z" fill="#263238"/>
<path d="M275.669 88.1688C275.669 88.14 275.687 88.1085 275.7 88.0797C275.713 88.0509 275.661 87.9487 275.637 87.8832C275.409 87.3068 274.954 86.7304 274.327 86.5732C274.264 86.5575 274.272 86.6649 274.299 86.6937C274.72 87.1444 275.119 87.6291 275.237 88.2526C275.26 88.3842 275.274 88.5173 275.278 88.6509C275.432 88.511 275.564 88.3484 275.669 88.1688Z" fill="#263238"/>
<path d="M275.669 88.1688C275.76 87.9258 275.8 87.6666 275.787 87.4074C275.773 87.1482 275.706 86.8945 275.59 86.6623C275.355 86.2003 275.034 85.7869 274.644 85.444C274.259 85.0971 273.846 84.7833 273.408 84.5061C272.973 84.2243 272.521 83.9714 272.053 83.7489L271.925 83.6886L272.058 83.6284C272.151 83.5848 272.239 83.5321 272.32 83.4712C272.404 83.4083 272.488 83.3402 272.567 83.2694C272.727 83.1285 272.878 82.978 273.02 82.8188C273.89 82.0145 274.576 81.0313 275.03 79.9368C275.472 79.1182 275.699 78.2002 275.687 77.2696C275.682 76.337 275.557 75.4088 275.315 74.5082L275.25 74.2462L275.472 74.3876C275.733 74.5562 275.946 74.7897 276.089 75.0654C276.233 75.341 276.302 75.6492 276.29 75.9596L276.083 75.9387C276.196 75.2127 276.14 74.4703 275.919 73.7695C275.698 73.0687 275.319 72.4284 274.809 71.8986L274.568 71.6524L274.901 71.7414C275.711 71.9631 276.43 72.4332 276.958 73.0855L276.806 73.1562C276.659 72.3925 276.387 71.6585 275.999 70.9843C275.613 70.3092 275.134 69.6918 274.576 69.1503C273.452 68.0504 272.083 67.234 270.581 66.7687C272.102 67.2008 273.498 67.9904 274.652 69.0717C275.227 69.6158 275.722 70.2385 276.122 70.9214C276.527 71.6052 276.816 72.3516 276.976 73.13L277.047 73.4733L276.824 73.2113C276.315 72.593 275.625 72.1489 274.851 71.9406L274.943 71.7834C275.475 72.3311 275.873 72.9946 276.107 73.7218C276.34 74.449 276.402 75.2203 276.287 75.9754L276.08 75.9518C276.091 75.677 276.03 75.4042 275.903 75.16C275.777 74.9157 275.59 74.7083 275.36 74.5579L275.517 74.4453C275.761 75.3651 275.884 76.3128 275.884 77.2644C275.892 78.2266 275.653 79.1749 275.189 80.018C274.724 81.1381 274.014 82.1399 273.112 82.9498C272.963 83.1094 272.806 83.2608 272.64 83.4031C272.556 83.4757 272.469 83.5439 272.378 83.6074C272.286 83.6759 272.187 83.7339 272.082 83.7803V83.6598C272.551 83.8929 273.006 84.1555 273.442 84.4458C273.879 84.7338 274.29 85.0609 274.668 85.4231C275.055 85.7785 275.371 86.2044 275.598 86.6781C275.71 86.9089 275.774 87.16 275.786 87.4162C275.798 87.6724 275.758 87.9284 275.669 88.1688Z" fill="#263238"/>
<path d="M288.329 77.7359C290.975 77.6049 292.722 78.9621 293.752 80.7751C295.062 83.0807 295.421 86.34 294.936 88.9443C294.989 87.8963 294.258 86.995 293.469 86.3243C294.435 88.189 294.623 90.3602 293.993 92.3634C293.829 91.4941 293.356 90.7135 292.662 90.1652C293.186 91.1084 293.165 92.214 293.139 93.262C293.115 94.1817 292.924 95.2297 293.618 95.882C294.577 96.7938 295.743 97.2916 296.799 98.0461C298.154 99.0208 298.895 99.9142 299.22 101.824C299.27 102.511 299.171 103.2 298.929 103.844C298.751 104.2 298.474 104.497 298.131 104.699C297.788 104.901 297.393 104.999 296.996 104.981C296.488 104.937 296.011 104.716 295.649 104.358C295.3 103.965 294.976 103.552 294.677 103.121C293.673 101.908 292.036 101.494 290.66 100.86C289.199 100.187 287.76 99.385 286.594 98.261C286.134 97.7942 285.722 97.2815 285.365 96.7309C284.721 95.7834 284.129 94.8011 283.592 93.7886C283.125 92.9057 282.523 91.9547 282.2 91.0324" fill="#455A64"/>
<path d="M288.329 77.7359C290.975 77.6049 292.722 78.9621 293.752 80.7751C295.062 83.0807 295.421 86.34 294.936 88.9443C294.989 87.8963 294.258 86.995 293.469 86.3243C294.435 88.189 294.623 90.3602 293.993 92.3634C293.829 91.4941 293.356 90.7135 292.662 90.1652C293.186 91.1084 293.165 92.214 293.139 93.262C293.115 94.1817 292.924 95.2297 293.618 95.882C294.577 96.7938 295.743 97.2916 296.799 98.0461C298.154 99.0208 298.895 99.9142 299.22 101.824C299.27 102.511 299.171 103.2 298.929 103.844C298.751 104.2 298.474 104.497 298.131 104.699C297.788 104.901 297.393 104.999 296.996 104.981C296.488 104.937 296.011 104.716 295.649 104.358C295.3 103.965 294.976 103.552 294.677 103.121C293.673 101.908 292.036 101.494 290.66 100.86C289.199 100.187 287.76 99.385 286.594 98.261C286.134 97.7942 285.722 97.2815 285.365 96.7309C284.721 95.7834 284.129 94.8011 283.592 93.7886C283.125 92.9057 282.523 91.9547 282.2 91.0324" fill="#455A64"/>
<path d="M298.266 102.319C298.211 102.285 298.185 102.388 298.203 102.424C298.465 102.985 298.68 103.572 298.591 104.201C298.591 104.256 298.57 104.313 298.557 104.371C298.711 104.221 298.836 104.043 298.924 103.847C298.965 103.742 299.001 103.636 299.031 103.527C298.99 103.285 298.901 103.054 298.77 102.847C298.639 102.639 298.467 102.46 298.266 102.319Z" fill="#263238"/>
<path d="M297.708 104.882C297.818 104.457 297.813 104.01 297.695 103.588C297.554 103.149 297.279 102.766 296.909 102.492C296.838 102.443 296.77 102.584 296.817 102.636C297.016 102.86 297.153 103.13 297.216 103.422C297.258 103.64 297.276 103.861 297.268 104.083C297.253 104.389 297.193 104.692 297.09 104.981C297.3 104.981 297.509 104.948 297.708 104.882Z" fill="#263238"/>
<path d="M288.329 77.736C288.954 77.694 289.582 77.747 290.191 77.8932C290.802 78.0438 291.382 78.3 291.905 78.6504C292.938 79.3835 293.74 80.3972 294.216 81.5717C294.71 82.7282 295.024 83.9538 295.146 85.2056C295.279 86.4576 295.238 87.7221 295.023 88.9627L294.847 88.9417C294.857 88.4366 294.708 87.9411 294.423 87.5243C294.141 87.0979 293.797 86.7156 293.404 86.3898L293.558 86.2667C294.046 87.2001 294.343 88.2211 294.433 89.2704C294.523 90.3197 294.404 91.3764 294.082 92.3792L293.972 92.7198L293.909 92.3687C293.749 91.52 293.29 90.7569 292.615 90.2177L292.736 90.1155C292.985 90.5804 293.137 91.0911 293.184 91.6167C293.227 92.1334 293.237 92.6524 293.212 93.1704C293.174 93.6821 293.164 94.1955 293.181 94.7083C293.199 94.9586 293.262 95.2035 293.367 95.4315C293.483 95.6529 293.645 95.8474 293.841 96.0026C294.614 96.676 295.515 97.1869 296.377 97.7502C296.815 98.0243 297.233 98.3299 297.627 98.6645C298.025 98.9957 298.348 99.4073 298.575 99.8724C298.339 99.4138 298.009 99.0103 297.606 98.6881C297.206 98.365 296.784 98.0699 296.343 97.8052C295.471 97.2628 294.554 96.7729 293.765 96.0891C293.555 95.9252 293.382 95.719 293.257 95.4839C293.145 95.2429 293.076 94.9838 293.055 94.7188C293.034 94.2019 293.04 93.6841 293.073 93.1678C293.095 92.6557 293.081 92.1428 293.034 91.6325C292.986 91.1285 292.838 90.6393 292.597 90.1941L292.392 89.8404L292.715 90.1024C293.426 90.6606 293.913 91.4569 294.085 92.3451H293.912C294.524 90.3645 294.336 88.223 293.388 86.3794L293.149 85.913L293.542 86.2588C293.949 86.5992 294.302 86.9983 294.59 87.4431C294.893 87.8941 295.047 88.4278 295.033 88.9705L294.855 88.9496C295.076 87.7267 295.127 86.479 295.004 85.2423C294.891 84.004 294.59 82.7901 294.111 81.6424C293.646 80.4852 292.87 79.4795 291.868 78.7368C291.358 78.3797 290.79 78.1137 290.189 77.9508C289.583 77.7855 288.956 77.7131 288.329 77.736Z" fill="#263238"/>
<path d="M283.152 93C282.84 92.476 282.546 91.9363 282.287 91.3835C282.153 91.1215 282.025 90.828 281.918 90.5398C281.799 90.253 281.711 89.9544 281.656 89.6491H281.839C281.795 89.9229 281.77 90.1996 281.766 90.477C281.758 90.7502 281.786 91.0233 281.849 91.2892L281.991 91.8368L281.666 91.3809C281.387 90.9958 281.161 90.5745 280.995 90.1285C280.834 89.685 280.72 89.2257 280.655 88.7583C280.595 88.2935 280.57 87.825 280.581 87.3566C280.595 86.8893 280.648 86.424 280.739 85.9653C280.691 86.4274 280.674 86.8922 280.689 87.3566C280.698 87.8177 280.742 88.2774 280.82 88.7321C280.897 89.1808 281.013 89.6218 281.168 90.0499C281.337 90.473 281.558 90.8734 281.826 91.242L281.64 91.3337C281.576 91.0485 281.55 90.7559 281.564 90.4639C281.572 90.1766 281.601 89.8902 281.65 89.6071L281.747 89.0491L281.834 89.6098C281.889 89.9039 281.967 90.193 282.069 90.4743C282.169 90.7591 282.279 91.042 282.4 91.3232C282.638 91.8839 282.887 92.4498 283.152 93Z" fill="#263238"/>
</g>
<g filter="url(#filter5_d_86_311)">
<path d="M305.201 109.302C304.572 110.088 304.486 111.175 304.952 112.396C305.481 113.593 306.286 114.646 307.303 115.47C308.319 116.293 309.517 116.862 310.798 117.13C312.089 117.335 313.156 117.02 313.771 116.247C314.387 115.474 314.487 114.374 314.02 113.153C313.492 111.956 312.686 110.903 311.67 110.08C310.653 109.256 309.455 108.687 308.175 108.419C306.883 108.214 305.827 108.529 305.201 109.302ZM308.322 109.105C310.347 109.425 312.584 111.238 313.318 113.15C314.052 115.063 313.006 116.357 310.981 116.032C308.956 115.708 306.721 113.9 305.985 111.987C305.248 110.075 306.294 108.783 308.322 109.105Z" fill="#7FCFEF"/>
<path opacity="0.4" d="M305.199 109.302C304.573 110.088 304.486 111.175 304.953 112.396C305.481 113.593 306.287 114.646 307.303 115.47C308.32 116.293 309.517 116.862 310.798 117.13C312.089 117.335 313.156 117.02 313.774 116.245C314.392 115.469 314.487 114.374 314.02 113.153C313.492 111.956 312.686 110.903 311.67 110.08C310.653 109.256 309.455 108.687 308.175 108.419C306.884 108.214 305.828 108.529 305.199 109.302ZM308.322 109.105C310.347 109.425 312.585 111.238 313.318 113.15C314.052 115.063 313.006 116.357 310.981 116.032C308.956 115.708 306.721 113.9 305.985 111.987C305.249 110.075 306.294 108.783 308.322 109.105Z" fill="white"/>
<path opacity="0.1" d="M304.953 112.396C304.623 111.643 304.571 110.797 304.806 110.009C304.712 110.324 304.518 111.241 305.22 112.585C306.145 114.353 308.222 116.111 310.52 116.706C312.818 117.301 314.023 115.97 314.264 115.147C314.195 115.55 314.023 115.929 313.766 116.247C313.14 117.02 312.084 117.335 310.793 117.13C309.512 116.862 308.314 116.293 307.298 115.47C306.281 114.646 305.476 113.593 304.947 112.396H304.953Z" fill="#7FCFEF"/>
<path opacity="0.3" d="M304.953 112.396C304.623 111.643 304.571 110.797 304.806 110.009C304.712 110.324 304.518 111.241 305.22 112.585C306.145 114.353 308.222 116.111 310.52 116.706C312.818 117.301 314.023 115.97 314.264 115.147C314.195 115.55 314.023 115.929 313.766 116.247C313.14 117.02 312.084 117.335 310.793 117.13C309.512 116.862 308.314 116.293 307.298 115.47C306.281 114.646 305.476 113.593 304.947 112.396H304.953Z" fill="#7FCFEF"/>
<path opacity="0.1" d="M313.368 115.15C313.63 114.639 313.63 113.95 313.323 113.151C312.59 111.238 310.352 109.425 308.327 109.105C307.504 108.974 306.842 109.105 306.396 109.448C307.182 108.717 308.296 108.686 309.718 109.265C311.288 109.896 312.587 111.059 313.386 112.551C313.892 113.562 313.829 114.578 313.368 115.15Z" fill="#7FCFEF"/>
<path opacity="0.2" d="M313.368 115.15C313.63 114.639 313.63 113.95 313.323 113.151C312.59 111.238 310.352 109.425 308.327 109.105C307.504 108.974 306.842 109.105 306.396 109.448C307.182 108.717 308.296 108.686 309.718 109.265C311.288 109.896 312.587 111.059 313.386 112.551C313.892 113.562 313.829 114.578 313.368 115.15Z" fill="#7FCFEF"/>
<path opacity="0.6" d="M306.325 108.885C306.428 108.901 306.564 108.972 306.407 109.121C306.035 109.45 305.758 109.872 305.605 110.344C305.319 111.372 305.812 113.046 308.178 115.121C307.156 114.553 306.298 113.732 305.686 112.737C304.869 111.335 304.987 110.523 305.353 109.689C305.571 109.192 306.066 108.843 306.325 108.885Z" fill="white"/>
<path d="M311.151 98.971C313.62 94.7974 317.544 88.0745 319.651 86.8247C321.757 85.575 325.758 86.1985 325.989 85.4099L332.827 90.9486C332.106 91.339 333.545 95.1223 332.759 97.4436C331.973 99.7649 326.237 105.07 322.643 108.277C320.866 109.865 314.293 115.485 313.486 115.936L313.42 115.972L313.282 116.048C312.684 116.288 312.032 116.356 311.398 116.245C309.084 115.881 306.532 113.811 305.694 111.626C305.437 111.033 305.367 110.375 305.495 109.742L305.542 109.587C305.542 109.566 305.555 109.543 305.563 109.519C305.836 108.634 309.938 101.022 311.151 98.971Z" fill="#7FCFEF"/>
<path opacity="0.5" d="M311.151 98.971C313.62 94.7974 317.544 88.0745 319.651 86.8247C321.757 85.575 325.758 86.1985 325.989 85.4099L332.827 90.9486C332.106 91.339 333.545 95.1223 332.759 97.4436C331.973 99.7649 326.237 105.07 322.643 108.277C320.866 109.865 314.293 115.485 313.486 115.936L313.42 115.972L313.282 116.048C312.684 116.288 312.032 116.356 311.398 116.245C309.084 115.881 306.532 113.811 305.694 111.626C305.437 111.033 305.367 110.375 305.495 109.742L305.542 109.587C305.542 109.566 305.555 109.543 305.563 109.519C305.836 108.634 309.938 101.022 311.151 98.971Z" fill="white"/>
<path opacity="0.3" d="M332.756 97.4436C332.625 97.8295 332.449 98.1988 332.232 98.544C331.277 98.8581 330.257 98.9248 329.269 98.7379C325.15 98.0855 320.602 94.4017 319.111 90.5084C318.721 89.5807 318.574 88.569 318.684 87.5688C318.977 87.2853 319.302 87.0357 319.651 86.8247C321.747 85.5776 325.758 86.1985 325.989 85.4099L332.827 90.9486C332.106 91.339 333.542 95.1223 332.756 97.4436Z" fill="white"/>
<path opacity="0.2" d="M332.756 90.9957C332.73 91.0235 332.709 91.0553 332.693 91.09C332.682 91.1102 332.672 91.1312 332.664 91.1529C332.35 92.0541 333.45 95.3449 332.748 97.4409C332.69 97.5876 332.62 97.7474 332.544 97.9151C331.249 100.425 325.994 105.269 322.632 108.275C320.856 109.862 314.282 115.482 313.475 115.933L313.41 115.97L313.271 116.045H313.253C312.719 116.247 312.146 116.32 311.579 116.26L311.387 116.234C310.369 116.045 309.404 115.636 308.56 115.034C307.872 114.553 307.25 113.983 306.711 113.339L306.69 113.313C307.816 114.306 311.324 115.731 313.313 114.518C315.302 113.305 330.38 99.1098 330.867 97.488C331.354 95.8662 330.969 90.9747 330.969 90.9747C331.512 90.9634 332.052 90.8878 332.578 90.7494L332.814 90.938C332.792 90.9541 332.772 90.9736 332.756 90.9957Z" fill="#7FCFEF"/>
<path opacity="0.3" d="M323.114 107.866L322.643 108.285C320.866 109.873 314.293 115.493 313.486 115.943L313.42 115.98L313.282 116.056C312.8 116.242 312.285 116.322 311.77 116.292H311.733L311.602 116.279C311.534 116.279 311.468 116.266 311.4 116.253C310.48 116.085 309.604 115.734 308.822 115.22L308.775 115.191L308.594 115.066L308.44 114.958C308.201 114.762 307.973 114.576 307.759 114.416L307.745 114.403C311.379 117.036 319.97 109.561 323.114 107.866Z" fill="#7FCFEF"/>
<path d="M326.489 82.2449L326.054 85.0981C325.896 85.7002 325.949 86.3385 326.206 86.9059C326.673 87.9513 327.38 88.8718 328.269 89.5925C329.159 90.3132 330.206 90.8137 331.325 91.0533C331.933 91.1821 332.565 91.1008 333.12 90.8228L335.834 89.8141L326.489 82.2449Z" fill="#7FCFEF"/>
<path opacity="0.45" d="M326.489 82.2449L326.054 85.0981C325.896 85.7002 325.949 86.3385 326.206 86.9059C326.673 87.9513 327.38 88.8718 328.269 89.5925C329.159 90.3132 330.206 90.8137 331.325 91.0533C331.933 91.1821 332.565 91.1008 333.12 90.8228L335.834 89.8141L326.489 82.2449Z" fill="white"/>
<path opacity="0.2" d="M333.118 90.8202C333.066 90.8487 333.012 90.874 332.958 90.8962L332.827 90.9486C332.343 91.1116 331.825 91.1468 331.323 91.0508C331.213 91.035 331.105 91.0115 330.995 90.9853C331.147 90.9853 332.95 90.9198 333.06 90.4141C333.17 89.9084 331.852 89.4892 330.385 88.2474L331.739 86.4972L335.832 89.8115L333.118 90.8202Z" fill="#7FCFEF"/>
<g opacity="0.4">
<path d="M322.032 87.2753C323.293 87.0133 325.63 87.2753 326.122 86.6754C326.615 86.0754 326.843 84.0239 326.843 84.0239L327.576 85.3837C327.402 86.1586 327.083 86.8937 326.636 87.5504C325.973 88.415 323.79 88.1897 322.205 88.3862C320.62 88.5827 318.98 89.8953 317.893 91.7922C316.965 93.4192 306.813 109.894 305.925 112.123C305.838 111.953 305.761 111.778 305.694 111.599C305.561 111.27 305.473 110.925 305.432 110.572C306.328 108.353 315.912 93.3537 317.167 90.9224C318.7 87.9906 320.775 87.5452 322.032 87.2753Z" fill="white"/>
<path d="M321.702 93.3119C321.189 93.757 320.747 94.2783 320.392 94.8577C320.685 95.1375 320.994 95.3999 321.317 95.6437C321.649 95.1547 322.031 94.7016 322.457 94.2917C322.195 93.959 321.901 93.5974 321.702 93.3119ZM318.359 91.9494C318.764 92.9187 319.35 93.8017 320.086 94.5511C320.493 93.9669 320.97 93.4345 321.506 92.966C320.879 92.0198 320.408 90.9797 320.109 89.8849C319.415 90.4703 318.823 91.1682 318.359 91.9494Z" fill="white"/>
</g>
<path d="M327.089 80.7751C326.353 81.6842 326.251 82.9706 326.798 84.3985C327.418 85.8008 328.362 87.0354 329.554 88.0003C330.745 88.9653 332.149 89.6328 333.649 89.9477C335.161 90.1887 336.398 89.8193 337.134 88.9128C337.87 88.0063 337.972 86.7172 337.422 85.2893C336.804 83.8868 335.86 82.6518 334.669 81.6868C333.478 80.7218 332.074 80.0545 330.574 79.7402C329.062 79.4991 327.823 79.8686 327.089 80.7751ZM330.757 80.5445C333.131 80.9218 335.751 83.044 336.61 85.2867C337.469 87.5294 336.246 89.0412 333.872 88.6665C331.498 88.2919 328.881 86.167 328.019 83.9243C327.157 81.6816 328.375 80.1672 330.746 80.5445H330.757Z" fill="#7FCFEF"/>
<path opacity="0.4" d="M327.089 80.7752C326.353 81.6843 326.251 82.9707 326.798 84.3986C327.418 85.8009 328.362 87.0355 329.554 88.0004C330.745 88.9654 332.149 89.6329 333.649 89.9478C335.161 90.1888 336.398 89.8194 337.134 88.9129C337.87 88.0064 337.972 86.7173 337.422 85.2894C336.804 83.8869 335.86 82.6519 334.669 81.6869C333.478 80.7219 332.074 80.0546 330.574 79.7403C329.062 79.5018 327.823 79.8686 327.089 80.7752ZM330.757 80.5446C333.131 80.9193 335.751 83.0441 336.61 85.2868C337.469 87.5295 336.246 89.0413 333.872 88.6666C331.498 88.2919 328.878 86.1671 328.019 83.9244C327.16 81.6817 328.375 80.1673 330.746 80.5446H330.757Z" fill="white"/>
<path d="M336.446 87.9596C337.515 86.6396 336.529 84.0685 334.243 82.2168C331.958 80.3651 329.238 79.9341 328.168 81.2541C327.099 82.5741 328.085 85.1453 330.371 86.9969C332.657 88.8486 335.377 89.2796 336.446 87.9596Z" fill="#7FCFEF"/>
<path opacity="0.2" d="M336.446 87.9596C337.515 86.6396 336.529 84.0685 334.243 82.2168C331.958 80.3651 329.238 79.9341 328.168 81.2541C327.099 82.5741 328.085 85.1453 330.371 86.9969C332.657 88.8486 335.377 89.2796 336.446 87.9596Z" fill="white"/>
<path opacity="0.1" d="M336.446 87.9596C337.515 86.6396 336.529 84.0685 334.243 82.2168C331.958 80.3651 329.238 79.9341 328.168 81.2541C327.099 82.5741 328.085 85.1453 330.371 86.9969C332.657 88.8486 335.377 89.2796 336.446 87.9596Z" fill="black"/>
<path opacity="0.1" d="M326.798 84.3985C326.4 83.3505 326.347 82.4021 326.628 81.6056C326.518 81.9724 326.29 83.0466 327.113 84.6212C328.195 86.6936 330.631 88.7529 333.322 89.4525C336.013 90.152 337.427 88.5905 337.71 87.6185C337.628 88.0904 337.428 88.5338 337.129 88.9075C336.393 89.8141 335.156 90.1835 333.644 89.9424C332.144 89.6275 330.74 88.96 329.549 87.9951C328.357 87.0302 327.413 85.7955 326.793 84.3933L326.798 84.3985Z" fill="#7FCFEF"/>
<path opacity="0.3" d="M326.798 84.3985C326.4 83.3505 326.347 82.4021 326.628 81.6056C326.518 81.9724 326.29 83.0466 327.113 84.6212C328.195 86.6936 330.631 88.7529 333.322 89.4525C336.013 90.152 337.427 88.5905 337.71 87.6185C337.628 88.0904 337.428 88.5338 337.129 88.9075C336.393 89.8141 335.156 90.1835 333.644 89.9424C332.144 89.6275 330.74 88.96 329.549 87.9951C328.357 87.0302 327.413 85.7955 326.793 84.3933L326.798 84.3985Z" fill="#7FCFEF"/>
<path opacity="0.1" d="M336.655 87.629C336.953 87.0317 336.958 86.2247 336.6 85.2894C335.74 83.0466 333.12 80.9244 330.746 80.5472C329.78 80.3952 329.004 80.5472 328.483 80.948C329.418 80.0913 330.71 80.0572 332.376 80.7358C334.213 81.4754 335.732 82.8379 336.665 84.5846C337.265 85.7662 337.21 86.9583 336.655 87.629Z" fill="#7FCFEF"/>
<path opacity="0.2" d="M336.655 87.629C336.953 87.0317 336.958 86.2247 336.6 85.2894C335.74 83.0466 333.12 80.9244 330.746 80.5472C329.78 80.3952 329.004 80.5472 328.483 80.948C329.418 80.0913 330.71 80.0572 332.376 80.7358C334.213 81.4754 335.732 82.8379 336.665 84.5846C337.265 85.7662 337.21 86.9583 336.655 87.629Z" fill="#7FCFEF"/>
<path opacity="0.6" d="M328.409 80.2878C328.525 80.3061 328.687 80.3873 328.501 80.5498C328.066 80.9349 327.742 81.4299 327.563 81.9829C327.228 83.1855 327.804 85.1505 330.579 87.5819C329.385 86.921 328.38 85.967 327.657 84.8099C326.701 83.1672 326.837 82.2161 327.267 81.2415C327.516 80.6467 328.103 80.238 328.409 80.2878Z" fill="white"/>
<path d="M331.255 80.6468C330.865 82.5715 330.309 84.4588 329.594 86.2877C329.46 86.1488 329.332 86.0073 329.206 85.8606C329.625 84.7813 329.985 83.6802 330.285 82.562C330.464 81.8965 330.626 81.2232 330.762 80.542C331.829 75.3334 331.677 69.8 330.05 64.7355C330.029 64.6648 330.105 64.5548 330.141 64.6543C331.342 67.8997 331.933 71.339 331.884 74.799C331.857 76.7636 331.647 78.7214 331.255 80.6468Z" fill="#455A64"/>
<path d="M335.546 67.2926C335.217 72.0408 334.279 76.727 332.756 81.2363C332.332 82.5043 331.866 83.7541 331.36 84.9855C331.074 85.685 330.77 86.3767 330.458 87.0631C330.327 86.961 330.196 86.8562 330.076 86.7435C330.926 84.8789 331.677 82.9706 332.326 81.0267C332.977 79.0795 333.525 77.0995 333.969 75.095C335.3 69.1315 335.704 62.9988 335.169 56.9122C335.169 56.8336 335.255 56.7759 335.269 56.8755C335.694 60.331 335.787 63.8194 335.546 67.2926Z" fill="#455A64"/>
<path d="M325.826 70.007C327.878 70.2401 331.404 71.9379 331.54 75.3858C329.232 75.7841 328.42 72.5222 325.826 70.007Z" fill="#37474F"/>
<path d="M343.194 62.2517C340.574 62.3434 335.926 64.1434 335.41 68.5057C338.297 69.2419 339.654 65.1835 343.194 62.2517Z" fill="#37474F"/>
<path d="M339.607 75.0478C337.807 74.8199 334.446 75.5325 333.613 78.4538C335.497 79.2687 336.872 76.6513 339.607 75.0478Z" fill="#37474F"/>
<path d="M326.468 62.312C326.007 63.1766 327.238 63.5827 327.885 63.7033C324.951 64.1067 326.017 66.7687 328.409 65.2124C327.458 67.6149 330.707 67.8036 330.267 64.9504C332.363 65.9538 333.673 63.8107 330.904 63.4832C333.359 61.3138 330.133 60.7453 329.185 62.7365C328.564 62.0553 327.149 61.492 326.468 62.312Z" fill="#7FCFEF"/>
<path d="M329.641 63.5539C329.518 63.5364 329.394 63.5481 329.277 63.5879C329.139 63.642 329.018 63.7326 328.928 63.8499C328.888 63.895 328.859 63.9487 328.842 64.0068C328.826 64.0649 328.823 64.1259 328.834 64.1853C328.899 64.429 329.138 64.4316 329.334 64.3713C329.469 64.3344 329.598 64.276 329.714 64.1984C329.832 64.1197 329.918 64.0032 329.96 63.8683C329.971 63.6718 329.816 63.5879 329.641 63.5539Z" fill="#FAFAFA"/>
<path d="M335.664 53.4119C336.615 53.6739 336.068 54.8424 335.714 55.3978C338.012 53.5298 339.227 56.1288 336.458 56.81C338.863 57.7584 336.78 60.2579 334.993 57.9811C334.291 60.1977 331.836 59.6841 333.487 57.4571C330.225 57.7663 332.015 55.0232 334.116 55.6913C334.045 54.7664 334.611 53.3542 335.664 53.4119Z" fill="#7FCFEF"/>
<path d="M334.404 56.5768C334.472 56.478 334.562 56.3956 334.666 56.3357C334.804 56.2649 334.96 56.2358 335.114 56.2519C335.174 56.2536 335.233 56.2688 335.287 56.2965C335.34 56.3242 335.387 56.3636 335.423 56.4117C335.557 56.6266 335.394 56.8021 335.216 56.9043C335.097 56.9778 334.967 57.0317 334.831 57.0641C334.694 57.0959 334.55 57.0802 334.422 57.0196C334.361 56.9631 334.325 56.8849 334.322 56.8019C334.318 56.719 334.348 56.638 334.404 56.5768Z" fill="#FAFAFA"/>
</g>
<path d="M334.671 100.645C335.089 100.105 335.411 99.4967 335.625 98.8479C336.061 97.5539 336.069 96.1541 335.648 94.855C335.702 95.5109 335.697 96.1702 335.635 96.8253C335.572 97.4687 335.438 98.1031 335.235 98.7169C334.832 99.9593 334.109 101.074 333.139 101.947C333.737 101.629 334.26 101.184 334.671 100.645ZM337.679 93.359C337.811 94.3903 337.837 95.4325 337.755 96.4689C337.67 97.4942 337.464 98.5057 337.139 99.4819C336.506 101.46 335.32 103.214 333.72 104.539C334.633 104.003 335.43 103.291 336.062 102.443C336.702 101.589 337.198 100.637 337.532 99.6234C338.208 97.5972 338.259 95.4146 337.679 93.359Z" fill="#455A64"/>
<defs>
<filter id="filter0_d_86_311" x="0.273747" y="73.76" width="142.336" height="27.1063" filterUnits="userSpaceOnUse" color-interpolation-filters="sRGB">
<feFlood flood-opacity="0" result="BackgroundImageFix"/>
<feColorMatrix in="SourceAlpha" type="matrix" values="0 0 0 0 0 0 0 0 0 0 0 0 0 0 0 0 0 0 127 0" result="hardAlpha"/>
<feOffset dy="4"/>
<feGaussianBlur stdDeviation="2"/>
<feComposite in2="hardAlpha" operator="out"/>
<feColorMatrix type="matrix" values="0 0 0 0 0 0 0 0 0 0 0 0 0 0 0 0 0 0 0.25 0"/>
<feBlend mode="normal" in2="BackgroundImageFix" result="effect1_dropShadow_86_311"/>
<feBlend mode="normal" in="SourceGraphic" in2="effect1_dropShadow_86_311" result="shape"/>
</filter>
<filter id="filter1_d_86_311" x="-0.0130157" y="101.581" width="211.191" height="34.5987" filterUnits="userSpaceOnUse" color-interpolation-filters="sRGB">
<feFlood flood-opacity="0" result="BackgroundImageFix"/>
<feColorMatrix in="SourceAlpha" type="matrix" values="0 0 0 0 0 0 0 0 0 0 0 0 0 0 0 0 0 0 127 0" result="hardAlpha"/>
<feOffset dy="4.34975"/>
<feGaussianBlur stdDeviation="2.17487"/>
<feComposite in2="hardAlpha" operator="out"/>
<feColorMatrix type="matrix" values="0 0 0 0 0 0 0 0 0 0 0 0 0 0 0 0 0 0 0.25 0"/>
<feBlend mode="normal" in2="BackgroundImageFix" result="effect1_dropShadow_86_311"/>
<feBlend mode="normal" in="SourceGraphic" in2="effect1_dropShadow_86_311" result="shape"/>
</filter>
<filter id="filter2_d_86_311" x="218.837" y="64.5391" width="115.491" height="73.7437" filterUnits="userSpaceOnUse" color-interpolation-filters="sRGB">
<feFlood flood-opacity="0" result="BackgroundImageFix"/>
<feColorMatrix in="SourceAlpha" type="matrix" values="0 0 0 0 0 0 0 0 0 0 0 0 0 0 0 0 0 0 127 0" result="hardAlpha"/>
<feOffset dy="4"/>
<feGaussianBlur stdDeviation="2"/>
<feComposite in2="hardAlpha" operator="out"/>
<feColorMatrix type="matrix" values="0 0 0 0 0 0 0 0 0 0 0 0 0 0 0 0 0 0 0.25 0"/>
<feBlend mode="normal" in2="BackgroundImageFix" result="effect1_dropShadow_86_311"/>
<feBlend mode="normal" in="SourceGraphic" in2="effect1_dropShadow_86_311" result="shape"/>
</filter>
<filter id="filter3_d_86_311" x="231.468" y="41.2997" width="34.5275" height="56.939" filterUnits="userSpaceOnUse" color-interpolation-filters="sRGB">
<feFlood flood-opacity="0" result="BackgroundImageFix"/>
<feColorMatrix in="SourceAlpha" type="matrix" values="0 0 0 0 0 0 0 0 0 0 0 0 0 0 0 0 0 0 127 0" result="hardAlpha"/>
<feOffset dy="4"/>
<feGaussianBlur stdDeviation="2"/>
<feComposite in2="hardAlpha" operator="out"/>
<feColorMatrix type="matrix" values="0 0 0 0 0 0 0 0 0 0 0 0 0 0 0 0 0 0 0.25 0"/>
<feBlend mode="normal" in2="BackgroundImageFix" result="effect1_dropShadow_86_311"/>
<feBlend mode="normal" in="SourceGraphic" in2="effect1_dropShadow_86_311" result="shape"/>
</filter>
<filter id="filter4_d_86_311" x="242.97" y="57.1246" width="83.1978" height="57.4104" filterUnits="userSpaceOnUse" color-interpolation-filters="sRGB">
<feFlood flood-opacity="0" result="BackgroundImageFix"/>
<feColorMatrix in="SourceAlpha" type="matrix" values="0 0 0 0 0 0 0 0 0 0 0 0 0 0 0 0 0 0 127 0" result="hardAlpha"/>
<feOffset dy="4"/>
<feGaussianBlur stdDeviation="2"/>
<feComposite in2="hardAlpha" operator="out"/>
<feColorMatrix type="matrix" values="0 0 0 0 0 0 0 0 0 0 0 0 0 0 0 0 0 0 0.25 0"/>
<feBlend mode="normal" in2="BackgroundImageFix" result="effect1_dropShadow_86_311"/>
<feBlend mode="normal" in="SourceGraphic" in2="effect1_dropShadow_86_311" result="shape"/>
</filter>
<filter id="filter5_d_86_311" x="300.657" y="53.4102" width="46.5376" height="71.781" filterUnits="userSpaceOnUse" color-interpolation-filters="sRGB">
<feFlood flood-opacity="0" result="BackgroundImageFix"/>
<feColorMatrix in="SourceAlpha" type="matrix" values="0 0 0 0 0 0 0 0 0 0 0 0 0 0 0 0 0 0 127 0" result="hardAlpha"/>
<feOffset dy="4"/>
<feGaussianBlur stdDeviation="2"/>
<feComposite in2="hardAlpha" operator="out"/>
<feColorMatrix type="matrix" values="0 0 0 0 0 0 0 0 0 0 0 0 0 0 0 0 0 0 0.25 0"/>
<feBlend mode="normal" in2="BackgroundImageFix" result="effect1_dropShadow_86_311"/>
<feBlend mode="normal" in="SourceGraphic" in2="effect1_dropShadow_86_311" result="shape"/>
</filter>
</defs>
</svg>
