<svg width="360" height="191" viewBox="0 0 360 191" fill="none" xmlns="http://www.w3.org/2000/svg">
<g filter="url(#filter0_d_54_1568)">
<path d="M83.5 166.5C158.739 159.967 212.333 178.833 276 185L271 151H0V180.5C27.3333 175.833 50.56 169.36 83.5 166.5Z" fill="#7FCFEF"/>
</g>
<path d="M225.5 178.5C225.38 178.985 225.38 178.985 225.381 178.986L225.382 178.986L225.389 178.988L225.413 178.994L225.51 179.017C225.596 179.038 225.724 179.069 225.891 179.109C226.227 179.189 226.722 179.306 227.363 179.454C228.646 179.75 230.515 180.168 232.858 180.661C237.544 181.647 244.131 182.93 251.735 184.119C266.934 186.496 286.233 188.504 302.546 186.998C318.843 185.494 333.38 181.733 343.841 178.351C349.073 176.659 353.287 175.061 356.195 173.885C357.649 173.298 358.777 172.815 359.542 172.479C359.924 172.311 360.216 172.18 360.413 172.091C360.511 172.046 360.586 172.011 360.636 171.988L360.693 171.962L360.708 171.955L360.711 171.953L360.712 171.953C360.713 171.952 360.713 171.952 360.5 171.5L360.713 171.952L361 171.817V171.5V4V3.29018L360.332 3.5292L360.5 4C360.332 3.5292 360.332 3.52921 360.332 3.52924L360.331 3.5294L360.329 3.53004L360.322 3.53263L360.293 3.54298L360.178 3.58378C360.077 3.61968 359.928 3.67266 359.734 3.74088C359.347 3.87734 358.783 4.07477 358.079 4.31845C356.67 4.80583 354.699 5.47811 352.449 6.21754C347.945 7.69761 342.336 9.44228 337.883 10.5139C325.129 13.5834 316.615 14.1438 305.251 14.8919C302.519 15.0717 299.622 15.2624 296.462 15.5014C276.965 16.976 264.468 16.5644 249.037 16.0561C242.608 15.8444 235.671 15.6159 227.507 15.5001C202.809 15.1495 179.324 13.2759 157.878 11.4886C156.708 11.391 155.544 11.2938 154.386 11.197C134.33 9.52126 116.124 8 100.5 8C73.5123 8 50.4484 9.50063 29.9042 13.5093C19.6416 15.5117 12.1288 17.3897 7.17836 18.7683C4.70317 19.4576 2.86858 20.0221 1.65119 20.4148C1.04249 20.6111 0.588088 20.7645 0.285057 20.8692C0.133542 20.9215 0.019869 20.9616 -0.0563274 20.9888L-0.14256 21.0198L-0.164682 21.0278L-0.170509 21.03L-0.172116 21.0306L-0.172593 21.0307C-0.172741 21.0308 -0.172853 21.0308 0 21.5L-0.172853 21.0308L-0.5 21.1514V21.5V155V155.565L0.0605272 155.496L0 155C0.0605272 155.496 0.0607089 155.496 0.0611247 155.496L0.0631264 155.496L0.071329 155.495L0.10444 155.491L0.236753 155.475C0.354057 155.461 0.52918 155.441 0.759894 155.414C1.22132 155.361 1.90511 155.285 2.79344 155.19C4.57011 154.999 7.16488 154.736 10.4352 154.443C16.976 153.858 26.2182 153.155 37.0217 152.687C58.6338 151.75 86.4721 151.751 111.426 155.494C136.409 159.242 164.896 165.114 187.142 170.051C198.264 172.519 207.824 174.752 214.603 176.369C217.992 177.178 220.687 177.832 222.533 178.284C223.457 178.509 224.168 178.685 224.649 178.804C224.889 178.863 225.072 178.909 225.194 178.939L225.332 178.974L225.367 178.982L225.376 178.984L225.378 178.985C225.379 178.985 225.379 178.985 225.5 178.5ZM225.5 178.5L225.38 178.985L225.379 178.985L225.5 178.5Z" fill="url(#paint0_radial_54_1568)" stroke="#7FCFEF"/>
<g filter="url(#filter1_i_54_1568)">
<path d="M211.607 72.7442L211.687 71.4111C212.352 60.1764 218.976 50.1146 229.145 45.5382C230.454 44.948 231.805 44.4552 233.186 44.0637C243.145 41.2522 254.506 43.9032 262.314 50.8633C266.898 54.9545 270.534 60.5432 276.272 62.6862C283.74 65.471 291.785 61.4332 298.669 57.5177C305.552 53.6022 313.609 49.5798 321.065 52.4027C325.737 54.1676 329.152 58.3849 331.257 62.9421C336.838 75.0057 334.202 89.8235 326.558 100.535C318.915 111.246 306.92 118.183 294.325 121.904C276.681 127.114 256.851 126.301 240.532 117.484C224.213 108.668 212.092 91.298 211.607 72.7442Z" fill="#F5F5F5"/>
<path d="M350.892 33.9441C351.678 30.5919 349.597 27.2375 346.245 26.4518C342.893 25.6662 339.538 27.7468 338.753 31.0991C337.967 34.4513 340.048 37.8057 343.4 38.5914C346.752 39.377 350.107 37.2964 350.892 33.9441Z" fill="#F5F5F5"/>
<path d="M316.061 41.3324L318.25 37.352L319.163 35.0027L320.408 34.8461L320.893 34.2692L320.706 32.7756L320.057 32.0613C320.057 32.0613 321.917 31.9696 321.944 33.4174C321.975 35.1822 322.54 36.8936 321.077 37.9517L320.233 38.2191L318.12 42.0391L316.061 41.3324Z" fill="#E0E0E0"/>
<path d="M324.03 40.4538L320.924 37.1342L319.396 35.3159C319.344 35.2533 319.278 35.2049 319.202 35.1755C319.127 35.1461 319.045 35.1366 318.964 35.1478L318.2 35.2433L317.585 34.8002L317.326 33.532L317.73 32.6954C317.742 32.6742 317.747 32.65 317.745 32.6259C317.742 32.6019 317.732 32.5792 317.716 32.5609C317.701 32.5426 317.68 32.5295 317.656 32.5235C317.633 32.5175 317.608 32.5189 317.585 32.5273C317.096 32.6916 316.103 33.1653 316.359 34.2387C316.764 35.9539 316.642 37.7493 318.319 38.4178L319.201 38.4636L322.223 41.638L324.03 40.4538Z" fill="#FAFAFA"/>
<path d="M324.023 40.46C323.991 40.4873 323.958 40.512 323.923 40.534L323.587 40.7747L322.253 41.6839L322.219 41.7106L322.185 41.6762L319.195 38.5497L318.345 38.5056H318.319C317.893 38.3461 317.523 38.0644 317.257 37.6958C316.993 37.3045 316.811 36.864 316.722 36.4008C316.607 35.9386 316.539 35.4611 316.455 34.9836C316.413 34.7429 316.363 34.5023 316.309 34.2654C316.239 34.0021 316.251 33.7233 316.344 33.467C316.45 33.238 316.602 33.0332 316.79 32.8656C316.979 32.698 317.2 32.5711 317.44 32.4929L317.616 32.4318C317.667 32.4179 317.722 32.4235 317.769 32.4475C317.816 32.4715 317.853 32.5122 317.872 32.5617C317.891 32.6122 317.891 32.6679 317.872 32.7183C317.853 32.7642 317.845 32.7756 317.83 32.8062L317.753 32.959C317.657 33.1629 317.561 33.3596 317.464 33.5561C317.546 33.9607 317.625 34.3585 317.704 34.7462L318.278 35.1598L318.663 35.1096C318.813 35.0861 318.965 35.0734 319.117 35.0714C319.199 35.0827 319.278 35.1106 319.349 35.1533C319.42 35.1959 319.481 35.2526 319.53 35.3197L319.793 35.6406L320.794 36.8477C321.44 37.6117 322.055 38.242 322.532 38.7807C323.01 39.3193 323.376 39.7242 323.655 40.0298C323.77 40.1635 323.865 40.2705 323.946 40.3583C323.975 40.3893 324.001 40.4225 324.026 40.4574C324.028 40.4613 324.031 40.4652 324.033 40.4691C324.03 40.4661 324.026 40.4631 324.023 40.46Z" fill="#263238"/>
<path d="M316.756 40.5264C316.756 40.5264 315.037 40.5035 314.541 43.2004C314.044 45.8973 312.852 49.4346 313.231 52.1392C313.609 54.8437 314.105 61.0818 316.596 60.8068C318.445 60.6043 316.535 57.1472 316.478 52.567C316.478 52.567 316.245 51.3599 317.024 48.9877C317.803 46.6155 318.514 44.9729 319.159 44.0943C319.805 43.2157 319.465 42.1002 318.494 41.3477C317.999 40.9241 317.399 40.6405 316.756 40.5264Z" fill="#7FCFEF"/>
<path d="M320.263 36.9585C320.284 37.1184 320.257 37.2808 320.185 37.4252C320.113 37.5695 320 37.6894 319.86 37.7694C319.721 37.8495 319.56 37.8863 319.399 37.875C319.238 37.8637 319.085 37.8049 318.957 37.706C318.83 37.6071 318.735 37.4727 318.684 37.3197C318.633 37.1667 318.629 37.0021 318.672 36.8467C318.715 36.6913 318.803 36.5522 318.925 36.447C319.047 36.3417 319.198 36.2751 319.358 36.2556C319.571 36.2296 319.786 36.2889 319.955 36.4206C320.125 36.5523 320.235 36.7456 320.263 36.9585Z" fill="#E0E0E0"/>
<path d="M320.263 36.9585C320.263 36.9585 320.233 36.8898 320.179 36.779C320.103 36.6262 319.982 36.5008 319.831 36.4199C319.723 36.3636 319.602 36.3343 319.48 36.3343C319.358 36.3343 319.237 36.3636 319.129 36.4199C318.999 36.4894 318.894 36.5965 318.827 36.7271C318.759 36.8577 318.733 37.0056 318.752 37.1513C318.771 37.297 318.833 37.4337 318.931 37.5431C319.029 37.6526 319.158 37.7298 319.3 37.7645C319.419 37.7916 319.542 37.7902 319.659 37.7603C319.777 37.7304 319.886 37.6729 319.977 37.5926C320.105 37.4773 320.192 37.323 320.225 37.1533C320.252 37.0349 320.248 36.9623 320.263 36.9585C320.278 36.9547 320.305 37.0273 320.301 37.1648C320.295 37.3626 320.215 37.5508 320.076 37.692C319.972 37.7999 319.843 37.8796 319.7 37.9237C319.557 37.9678 319.405 37.9748 319.258 37.9441C319.076 37.9045 318.91 37.8092 318.784 37.6713C318.658 37.5334 318.578 37.3597 318.555 37.1743C318.532 36.9889 318.567 36.801 318.655 36.6364C318.744 36.4718 318.881 36.3388 319.048 36.2556C319.182 36.1894 319.331 36.1584 319.48 36.1658C319.629 36.1732 319.774 36.2185 319.9 36.2977C320.068 36.4024 320.192 36.5637 320.252 36.7522C320.286 36.8821 320.275 36.9585 320.263 36.9585Z" fill="#263238"/>
<path d="M322.945 39.751C322.945 39.751 324.603 39.3002 325.752 41.7908C326.902 44.2815 328.935 47.4101 329.236 50.1261C329.538 52.8421 330.604 59.0076 328.125 59.359C326.283 59.6188 327.277 55.795 326.215 51.337C326.215 51.337 326.138 50.1108 324.797 48.006C323.457 45.9012 322.36 44.4839 321.516 43.804C320.672 43.124 320.725 41.9475 321.478 40.9772C321.848 40.4445 322.355 40.0211 322.945 39.751Z" fill="#7FCFEF"/>
<path d="M229.45 49.8719C230.543 45.1897 227.634 40.508 222.951 39.415C218.269 38.3219 213.588 41.2315 212.495 45.9137C211.402 50.5959 214.311 55.2776 218.993 56.3706C223.675 57.4637 228.357 54.5541 229.45 49.8719Z" fill="white"/>
<path opacity="0.3" d="M225.069 40.1826C226.395 41.7221 227.141 43.6769 227.178 45.7086C227.215 47.7402 226.54 49.7208 225.271 51.3076C224.001 52.8943 222.217 53.9872 220.227 54.3972C218.237 54.8072 216.166 54.5084 214.373 53.5526C215.208 54.522 216.246 55.2956 217.414 55.8182C218.582 56.3409 219.851 56.5998 221.13 56.5766C222.409 56.5533 223.668 56.2485 224.816 55.6838C225.964 55.1191 226.974 54.3084 227.773 53.3092C228.572 52.3101 229.141 51.1472 229.44 49.9031C229.739 48.659 229.76 47.3643 229.502 46.1111C229.244 44.8579 228.713 43.677 227.947 42.6523C227.18 41.6277 226.198 40.7844 225.069 40.1826Z" fill="black"/>
<path d="M214.434 51.845C214.336 51.7539 214.251 51.6498 214.182 51.5356C213.974 51.2363 213.795 50.9178 213.647 50.5844C213.148 49.4776 212.966 48.2544 213.12 47.0503C213.273 45.8461 213.757 44.708 214.518 43.7619C214.748 43.4765 215.003 43.2131 215.282 42.975C215.378 42.881 215.488 42.8013 215.607 42.7382C215.633 42.7649 215.179 43.1202 214.64 43.846C213.931 44.7908 213.479 45.9038 213.33 47.0758C213.181 48.2478 213.339 49.4384 213.788 50.531C214.117 51.3714 214.468 51.8259 214.434 51.845Z" fill="white"/>
<path d="M282.904 28.9671C282.535 28.512 282.054 28.1616 281.507 27.9511C280.961 27.7406 280.369 27.6773 279.79 27.7676C279.619 27.0836 279.272 26.4561 278.784 25.9471C278.296 25.4381 277.683 25.0653 277.007 24.8655C276.331 24.6657 275.614 24.6457 274.928 24.8077C274.242 24.9696 273.609 25.3078 273.094 25.7889C271.863 24.7089 270.392 23.9377 268.804 23.5389C267.201 23.149 265.508 23.4071 264.094 24.257C263.4 24.6924 262.838 25.308 262.468 26.038C262.097 26.768 261.932 27.585 261.989 28.4017C261.481 28.3272 260.963 28.3785 260.479 28.5512C259.996 28.7238 259.562 29.0126 259.216 29.392C258.87 29.7714 258.623 30.23 258.495 30.7273C258.368 31.2247 258.365 31.7457 258.486 32.2447L283.354 32.2714C283.576 31.7295 283.651 31.1389 283.572 30.5589C283.492 29.9788 283.262 29.4299 282.904 28.9671Z" fill="#AE7461"/>
<path d="M290.116 41.3897L286.712 31.8626C286.576 31.4814 286.325 31.1516 285.994 30.9184C285.663 30.6852 285.268 30.56 284.863 30.56H258.177C257.771 30.5601 257.375 30.6856 257.043 30.9195C256.712 31.1534 256.46 31.4842 256.324 31.8664L252.928 41.3897H250.846V44.0637H292.198V41.3897H290.116Z" fill="#7FCFEF"/>
<path d="M274.874 21.774C274.618 21.5448 274.167 21.6823 274.007 21.7358L273.705 21.5601L272.456 20.8267C272.421 20.6662 272.314 20.204 271.982 20.1009C271.65 19.9977 271.543 20.1467 271.463 20.2728C271.403 20.4024 271.369 20.5426 271.363 20.6853C271.247 20.7665 271.147 20.8674 271.065 20.9833C270.997 21.117 270.924 21.2851 271.184 21.5181C271.444 21.7511 271.89 21.6136 272.047 21.5601L272.972 22.0987L273.583 22.4578C273.617 22.6182 273.724 23.0766 274.056 23.1836C274.389 23.2906 274.496 23.1378 274.576 23.0117C274.635 22.8826 274.671 22.7444 274.683 22.603C274.803 22.5263 274.908 22.4278 274.992 22.3126C275.021 22.2698 275.041 22.2217 275.05 22.171C275.06 22.1204 275.059 22.0684 275.048 22.0181C275.037 21.9678 275.016 21.9202 274.986 21.8783C274.956 21.8363 274.918 21.8009 274.874 21.774Z" fill="#AE7461"/>
<path d="M292.484 41.5005C292.484 41.554 283.106 41.5998 271.539 41.5998C259.972 41.5998 250.59 41.554 250.59 41.5005C250.59 41.447 259.968 41.3973 271.539 41.3973C283.11 41.3973 292.484 41.4432 292.484 41.5005Z" fill="#263238"/>
<path d="M270.817 26.3886C270.473 26.3619 270.202 26.7477 270.11 26.8852L269.763 26.931L268.326 27.1144C268.2 27.0074 267.83 26.7324 267.509 26.8317C267.188 26.931 267.184 27.1373 267.2 27.2863C267.233 27.4237 267.293 27.5533 267.375 27.6683C267.334 27.803 267.316 27.9438 267.322 28.0847C267.348 28.2336 267.394 28.4094 267.742 28.4361C268.09 28.4629 268.361 28.077 268.452 27.9395L269.511 27.8058L270.214 27.7103C270.34 27.8173 270.706 28.1152 271.031 27.9968C271.356 27.8784 271.352 27.6912 271.34 27.5422C271.307 27.4066 271.252 27.2775 271.176 27.1602C271.223 27.0254 271.244 26.8827 271.237 26.74C271.211 26.5911 271.169 26.4153 270.817 26.3886Z" fill="#6F4439"/>
<path d="M278.495 29.1122C278.323 28.8143 277.85 28.8066 277.685 28.8105L277.449 28.5507L276.486 27.4696C276.486 27.3054 276.539 26.8355 276.257 26.6331C276.221 26.5967 276.179 26.5678 276.132 26.548C276.085 26.5283 276.035 26.5181 275.984 26.5181C275.933 26.5181 275.882 26.5283 275.835 26.548C275.789 26.5678 275.746 26.5967 275.71 26.6331C275.612 26.7443 275.536 26.8742 275.489 27.0151C275.351 27.0551 275.222 27.1198 275.107 27.2061C275.067 27.2379 275.034 27.2775 275.009 27.3225C274.985 27.3675 274.969 27.4169 274.964 27.4679C274.959 27.5188 274.965 27.5703 274.98 27.6191C274.995 27.668 275.02 27.7133 275.053 27.7523C275.229 28.0541 275.699 28.0579 275.867 28.0579L276.578 28.8525L277.051 29.3796C277.032 29.5477 276.994 30.0176 277.277 30.2162C277.559 30.4149 277.712 30.3117 277.827 30.2162C277.922 30.1118 277.998 29.9916 278.052 29.861C278.19 29.8235 278.319 29.7614 278.434 29.6776C278.478 29.6463 278.514 29.6061 278.541 29.5598C278.568 29.5134 278.585 29.4619 278.591 29.4086C278.597 29.3552 278.591 29.3013 278.575 29.2502C278.558 29.1992 278.531 29.1522 278.495 29.1122Z" fill="#6F4439"/>
<path d="M187.224 82.4394L190.177 82.3324C190.304 82.3324 190.425 82.2821 190.515 82.1926C190.604 82.103 190.654 81.9816 190.654 81.8549C190.654 81.7283 190.604 81.6068 190.515 81.5173C190.425 81.4278 190.304 81.3774 190.177 81.3774L187.224 81.4844C187.097 81.4844 186.976 81.5347 186.886 81.6243C186.797 81.7138 186.747 81.8353 186.747 81.9619C186.747 82.0885 186.797 82.21 186.886 82.2995C186.976 82.3891 187.097 82.4394 187.224 82.4394Z" fill="#E0E0E0"/>
<path d="M187.388 84.3417L190.341 84.2348C190.468 84.2348 190.589 84.1845 190.679 84.0949C190.768 84.0054 190.819 83.8839 190.819 83.7573C190.819 83.6306 190.768 83.5092 190.679 83.4196C190.589 83.3301 190.468 83.2798 190.341 83.2798L187.388 83.3867C187.262 83.3867 187.14 83.4371 187.051 83.5266C186.961 83.6162 186.911 83.7376 186.911 83.8642C186.911 83.9909 186.961 84.1123 187.051 84.2019C187.14 84.2914 187.262 84.3417 187.388 84.3417Z" fill="#E0E0E0"/>
<path d="M198.726 97.112C198.791 98.5717 198.68 100.034 198.394 101.467C198.153 102.815 197.725 104.123 197.122 105.352C196.9 105.85 196.53 106.269 196.063 106.551C195.395 106.895 194.612 106.689 193.951 106.433C192.888 106.01 191.917 105.386 191.09 104.595C190.262 103.838 189.592 102.924 189.118 101.907C188.645 100.889 188.378 99.7881 188.332 98.6668C188.321 97.5725 188.538 96.488 188.969 95.4823C189.401 94.4766 190.037 93.5719 190.838 92.826C195.173 88.8379 201.45 92.2568 206.309 93.017C208.192 93.3111 210.686 93.2615 211.844 91.4584C212.124 90.9728 212.28 90.4255 212.298 89.8651C212.316 89.3047 212.195 88.7485 211.947 88.2458C211.384 87.1416 210.485 86.2442 209.38 85.6826C206.698 84.206 203.798 83.1654 200.789 82.5999C197.767 81.9826 194.672 81.8 191.598 82.0574C190.991 82.1071 190.983 83.0621 191.598 83.0124C197.309 82.5161 203.046 83.5928 208.188 86.1257C209.357 86.714 210.618 87.4704 211.13 88.7424C211.55 89.7929 211.347 90.9848 210.366 91.6151C209.472 92.1804 208.329 92.253 207.31 92.1766C205.934 92.0247 204.576 91.7434 203.253 91.3362C200.506 90.5913 197.687 89.7356 194.807 90.0871C193.639 90.2118 192.511 90.5869 191.501 91.1868C190.491 91.7866 189.623 92.5972 188.954 93.5633C187.682 95.4083 187.163 97.67 187.503 99.8854C187.902 102.141 189.088 104.182 190.849 105.646C191.858 106.534 193.052 107.186 194.344 107.556C194.97 107.74 195.639 107.712 196.247 107.477C196.856 107.243 197.37 106.814 197.71 106.257C198.531 105.016 198.963 103.411 199.276 101.975C199.622 100.377 199.763 98.7417 199.696 97.1082C199.673 96.497 198.718 96.4932 198.741 97.1082L198.726 97.112Z" fill="#263238"/>
<path d="M193.141 74.5969L192.492 74.3066C191.346 73.7833 191.132 72.6678 191.346 71.2506C191.884 68.8746 192.729 66.701 194.18 64.94C195.135 63.8857 196.063 63.263 197.236 63.794L197.886 64.0843L193.141 74.5969Z" fill="#263238"/>
<path d="M193.141 74.5969C193.657 70.3949 194.994 66.6895 197.909 63.9735C197.909 63.9735 201.186 62.7855 209.128 66.6169C217.07 70.4484 213.788 71.6326 225.852 77.1372L221.317 87.2411C221.317 87.2411 209.151 81.2208 207.302 83.9368C206.458 85.1707 208.096 85.8468 205.182 92.3408C204.261 94.3922 203.822 95.4312 203.337 96.5084C202.852 97.5857 200.594 99.1672 199.039 98.365C197.485 97.5628 196.365 95.3815 197.095 93.823C198.871 90.1023 199.452 88.3375 199.906 85.6635C200.193 83.9559 200.403 82.9895 200.22 82.0879C199.715 79.6164 196.694 77.6873 193.141 74.5969Z" fill="#7FCFEF"/>
<path d="M224.412 82.5578C223.159 85.3502 221.772 87.4474 221.318 87.2411C220.863 87.0349 221.509 84.6092 222.761 81.8167C224.014 79.0243 225.401 76.9271 225.856 77.1296C226.31 77.3321 225.665 79.7654 224.412 82.5578Z" fill="#7FCFEF"/>
<path opacity="0.3" d="M224.217 82.4699C223.071 84.9911 221.887 86.9088 221.543 86.7522C221.199 86.5955 221.829 84.4258 222.96 81.9046C224.091 79.3834 225.29 77.4657 225.634 77.6224C225.978 77.779 225.348 79.9487 224.217 82.4699Z" fill="black"/>
<path d="M206.022 88.242C205.675 89.006 205.006 89.4682 204.529 89.2543C204.051 89.0404 203.944 88.242 204.292 87.478C204.639 86.714 205.308 86.2479 205.785 86.4619C206.263 86.6758 206.37 87.478 206.022 88.242Z" fill="#263238"/>
<path d="M197.672 92.444L203.894 95.2364L203.245 96.688C203.062 97.097 202.799 97.4658 202.473 97.7734C202.147 98.0809 201.764 98.3212 201.345 98.4805C200.926 98.6398 200.48 98.715 200.032 98.7017C199.584 98.6884 199.142 98.587 198.734 98.4032C197.908 98.0319 197.264 97.3482 196.943 96.5024C196.621 95.6565 196.648 94.7175 197.018 93.8917L197.672 92.444Z" fill="#263238"/>
<path d="M217.011 80.3132L211.672 77.9171L211.256 78.8441L216.595 81.2403L217.011 80.3132Z" fill="white"/>
<path d="M188.557 85.0485L188.091 80.4645L190.15 80.2544C190.452 80.2217 190.757 80.2492 191.048 80.3355C191.34 80.4218 191.611 80.5651 191.846 80.757C192.081 80.9489 192.276 81.1856 192.419 81.4535C192.562 81.7213 192.65 82.0149 192.679 82.3172C192.712 82.6187 192.684 82.9238 192.598 83.2147C192.512 83.5056 192.369 83.7765 192.178 84.0117C191.986 84.2469 191.75 84.4418 191.482 84.585C191.215 84.7282 190.922 84.817 190.62 84.846L188.557 85.0485Z" fill="#263238"/>
<path d="M252.061 133.776C248.821 129.861 243.894 130.816 241.888 131.92C239.883 133.024 237.575 136.886 237.281 139.178C236.12 138.977 234.925 139.123 233.846 139.599C232.768 140.075 231.854 140.858 231.22 141.852C230.585 142.845 230.258 144.004 230.28 145.182C230.301 146.361 230.671 147.506 231.341 148.476C227.873 148.659 222.998 154.389 226.135 155.883C227.204 156.391 256.179 156.391 256.179 156.391L252.061 133.776ZM230.73 151.402C230.583 151.402 230.44 151.358 230.318 151.277C230.196 151.196 230.101 151.08 230.045 150.944C229.989 150.809 229.975 150.66 230.003 150.516C230.032 150.372 230.102 150.24 230.206 150.137C230.31 150.033 230.442 149.963 230.585 149.934C230.729 149.905 230.878 149.92 231.014 149.976C231.149 150.032 231.265 150.127 231.346 150.249C231.428 150.371 231.471 150.514 231.471 150.661C231.471 150.857 231.393 151.046 231.254 151.185C231.115 151.324 230.927 151.402 230.73 151.402ZM233.022 150.668C232.975 150.779 232.886 150.867 232.775 150.914C232.663 150.96 232.538 150.961 232.426 150.917C232.315 150.871 232.226 150.782 232.18 150.671C232.134 150.559 232.134 150.434 232.18 150.323C232.226 150.211 232.314 150.123 232.426 150.077C232.537 150.03 232.662 150.03 232.774 150.076C232.829 150.099 232.879 150.132 232.921 150.174C232.963 150.216 232.997 150.266 233.019 150.321C233.042 150.376 233.054 150.435 233.054 150.495C233.053 150.555 233.041 150.614 233.018 150.668H233.022Z" fill="#E0E0E0"/>
<path d="M319.931 155.508C319.931 151.096 315.014 148.25 311.966 149.32C314.071 146.887 312.703 142.7 309.873 141.164C307.042 139.629 303.463 140.244 300.621 141.753C300.909 140.222 300.794 138.642 300.287 137.169C299.781 135.696 298.901 134.379 297.733 133.349C295.376 131.324 291.575 130.04 288.981 131.756C287.434 132.776 284.26 157.548 285.478 157.732C286.697 157.915 292.648 160.115 292.977 159.898C293.305 159.68 319.931 155.508 319.931 155.508Z" fill="#E0E0E0"/>
<path d="M274.752 81.8588C272.868 79.5171 269.079 79.0167 266.649 80.7892C265.446 81.6716 264.568 83.234 265.034 84.6512C264.537 84.7406 264.077 84.9749 263.713 85.3246C263.348 85.6743 263.095 86.1239 262.985 86.6168C262.876 87.1098 262.914 87.6242 263.096 88.0955C263.277 88.5668 263.594 88.9739 264.006 89.2658L274.045 90.003C276.314 88.009 276.635 84.2043 274.752 81.8588ZM267.444 83.7688C267.253 83.7688 267.066 83.7121 266.907 83.6059C266.748 83.4997 266.624 83.3488 266.551 83.1722C266.478 82.9956 266.459 82.8013 266.496 82.6138C266.533 82.4263 266.625 82.2541 266.761 82.119C266.896 81.9838 267.068 81.8917 267.255 81.8545C267.443 81.8172 267.637 81.8363 267.814 81.9095C267.99 81.9826 268.141 82.1065 268.248 82.2654C268.354 82.4243 268.41 82.6112 268.41 82.8023C268.409 83.058 268.307 83.3028 268.126 83.4833C267.945 83.6637 267.7 83.765 267.444 83.765V83.7688ZM268.537 81.8359C268.471 81.8351 268.407 81.815 268.353 81.778C268.299 81.7411 268.257 81.6889 268.232 81.6281C268.208 81.5673 268.202 81.5006 268.215 81.4364C268.228 81.3722 268.26 81.3133 268.307 81.2672C268.353 81.2211 268.413 81.1899 268.477 81.1773C268.541 81.1648 268.608 81.1716 268.668 81.1969C268.729 81.2221 268.781 81.2647 268.817 81.3193C268.853 81.3739 268.873 81.438 268.873 81.5035C268.872 81.5472 268.863 81.5903 268.846 81.6304C268.829 81.6706 268.804 81.7069 268.773 81.7374C268.741 81.7679 268.705 81.792 268.664 81.8082C268.623 81.8245 268.58 81.8326 268.537 81.8321V81.8359Z" fill="#E0E0E0"/>
<path d="M257.825 149.683C255.892 151.1 254.937 153.553 254.769 155.944C254.601 158.335 255.151 160.715 255.69 163.049C254.624 162.591 253.321 163.546 253.172 164.699C253.024 165.853 253.788 166.991 254.785 167.568C255.782 168.145 256.973 168.332 258.135 168.416C260.076 168.524 262.022 168.534 263.964 168.447C265.217 168.412 266.577 168.336 267.528 167.515C268.567 166.617 268.789 165.108 268.854 163.733C269.015 160.306 268.64 156.875 267.742 153.564" fill="#6F4439"/>
<path d="M295.502 135.9C295.502 135.9 295.024 128.436 292.102 124.139C289.875 120.857 283.908 114.806 283.908 114.806L254.341 117.48C254.341 117.48 247.083 127.645 248.52 138.811C249.371 146.039 249.477 153.335 248.837 160.585C248.837 160.585 243.745 161.773 245.804 168.023H252.546C252.546 168.023 254.009 168.057 255.785 166.002C257.562 163.947 258.925 150.527 259.445 147.773L258.276 154.821C258.383 155.134 263.834 162.002 273.063 162.579C282.292 163.156 283.545 162.109 283.545 162.109L297.022 144.965L295.502 135.9Z" fill="#AE7461"/>
<path d="M283.488 147.635C283.671 147.697 284.817 151.073 284.878 154.221C284.94 157.369 283.973 164.615 284.183 166.793C284.393 168.97 285.604 169.814 287.961 170.231C290.318 170.647 295.574 170.594 296.121 169.146C296.667 167.698 297.45 165.517 295.032 164.18C292.614 162.843 292.19 160.662 292.312 159.038C292.434 157.415 295.116 148.388 295.456 144.782C295.796 141.176 294.272 136.79 294.272 136.79L287.056 140.007L283.488 147.635Z" fill="#AE7461"/>
<path d="M293.947 146.004C293.947 146.004 296.426 143.586 299.448 146.004C302.47 148.422 301.683 159.176 300.777 160.868L300.476 161.594C300.476 161.594 304.525 160.99 304.341 167.759C304.341 167.759 299.352 170.219 296.228 168.867C293.103 167.515 290.093 164.978 290.093 164.978L288.947 155.612L293.947 146.004Z" fill="#AE7461"/>
<path d="M261.08 140.927C261.065 141.155 261.033 141.381 260.984 141.604C260.9 142.066 260.793 142.685 260.663 143.433C260.392 145.011 260.026 147.131 259.621 149.477C259.216 151.822 258.826 153.973 258.517 155.512C258.364 156.276 258.234 156.903 258.135 157.33C258.092 157.554 258.035 157.775 257.963 157.991C257.977 157.764 258.009 157.538 258.058 157.315C258.142 156.853 258.249 156.234 258.379 155.485C258.65 153.908 259.017 151.788 259.422 149.442C259.827 147.097 260.217 144.946 260.526 143.407C260.679 142.643 260.809 142.016 260.908 141.588C260.948 141.364 261.005 141.143 261.08 140.927Z" fill="#263238"/>
<path d="M283.648 139.759C283.706 139.759 283.969 143.017 284.244 147.039C284.519 151.062 284.695 154.332 284.626 154.336C284.558 154.339 284.305 151.081 284.03 147.055C283.755 143.028 283.595 139.762 283.648 139.759Z" fill="#263238"/>
<path d="M295.223 132.642C295.248 132.73 295.262 132.821 295.265 132.913C295.284 133.108 295.307 133.364 295.338 133.677C295.368 133.99 295.403 134.441 295.441 134.899C295.479 135.358 295.506 135.927 295.54 136.527C295.718 139.665 295.687 142.812 295.448 145.947C295.296 147.781 295.066 149.522 294.784 151.092C294.501 152.662 294.169 154.064 293.867 155.233C293.565 156.402 293.275 157.331 293.069 157.972C292.969 158.278 292.885 158.522 292.824 158.71C292.801 158.797 292.768 158.882 292.725 158.962C292.739 158.872 292.759 158.784 292.786 158.698L292.996 157.953C293.179 157.304 293.439 156.364 293.729 155.195C294.02 154.026 294.341 152.632 294.604 151.062C294.868 149.492 295.101 147.758 295.25 145.928C295.486 142.801 295.536 139.663 295.399 136.531C295.376 135.931 295.353 135.385 295.33 134.907C295.307 134.43 295.28 134.025 295.261 133.681C295.242 133.337 295.235 133.104 295.223 132.917C295.218 132.825 295.218 132.733 295.223 132.642Z" fill="#263238"/>
<g opacity="0.3">
<path d="M279.217 146.222C279.121 144.456 278.834 142.705 278.362 141C277.827 139.315 276.883 137.707 275.435 136.691C273.216 135.129 270.087 135.251 267.731 136.615C265.374 137.978 263.796 140.416 263.017 143.017C262.237 145.618 262.207 148.365 262.417 151.089C262.627 153.812 263.07 156.479 263.231 159.187L280.149 156.513C279.828 153.09 279.518 149.66 279.217 146.222Z" fill="white"/>
</g>
<path d="M279.053 120.07C279.053 118.191 277.674 116.563 276.092 115.544C274.255 114.387 272.129 113.769 269.958 113.76C268.43 113.741 266.844 114.031 265.66 114.982C265.084 115.472 264.618 116.078 264.293 116.761C263.968 117.444 263.791 118.187 263.773 118.943C263.704 120.452 262.665 121.705 263.391 123.035C266.14 124.776 269.385 125.568 272.628 125.288C274.152 125.206 275.627 124.724 276.906 123.89C278.14 123.004 279.057 121.591 279.053 120.07Z" fill="#6F4439"/>
<path d="M289.008 113.744L289.203 110.264C289.203 110.264 289.386 108.633 287.182 99.255C284.275 86.8821 268.464 88.1541 268.464 88.1541C266.974 88.1006 252.924 88.4139 251.129 101.704C250.166 108.828 251.022 111.429 251.022 111.429L252.053 116.013C252.053 116.013 253.344 125.029 260.583 125.999C260.583 125.999 262.558 126.488 264.823 122.255C267.031 118.137 266.642 116.143 269.977 115.204C274.152 115.521 274.011 117.904 276.918 121.698C279.825 125.491 281.696 124.723 281.696 124.723C288.691 122.622 289.008 113.744 289.008 113.744Z" fill="#AE7461"/>
<path d="M260.186 107.8C259.79 108.104 259.313 108.282 258.815 108.314C258.317 108.346 257.821 108.229 257.389 107.979C256.957 107.729 256.61 107.356 256.39 106.908C256.171 106.46 256.089 105.957 256.155 105.463C256.221 104.968 256.433 104.505 256.763 104.131C257.093 103.756 257.527 103.489 258.009 103.361C258.491 103.233 259 103.252 259.472 103.414C259.944 103.575 260.357 103.874 260.66 104.271C260.86 104.534 261.007 104.833 261.092 105.153C261.177 105.473 261.198 105.806 261.154 106.134C261.11 106.462 261.002 106.777 260.836 107.063C260.67 107.349 260.449 107.6 260.186 107.8Z" fill="#263238"/>
<path d="M282.724 106.356C282.328 106.66 281.851 106.84 281.353 106.872C280.855 106.904 280.359 106.788 279.927 106.538C279.495 106.289 279.147 105.916 278.927 105.469C278.707 105.021 278.624 104.518 278.69 104.023C278.756 103.529 278.967 103.065 279.297 102.69C279.626 102.316 280.06 102.048 280.542 101.919C281.024 101.791 281.534 101.809 282.006 101.971C282.478 102.132 282.891 102.43 283.194 102.827C283.599 103.357 283.777 104.027 283.689 104.689C283.601 105.35 283.254 105.95 282.724 106.356Z" fill="#263238"/>
<g opacity="0.2">
<path d="M288.836 115.291C281.769 108.985 278.404 104.752 272.227 104.015L271.887 103.98C270.015 103.656 268.092 103.782 266.278 104.349C264.465 104.915 262.812 105.906 261.458 107.239C259.594 109.111 258.83 111.911 256.61 113.351C255.633 113.981 253.703 114.497 252.928 115.345C252.576 115.739 252.328 116.214 252.206 116.728C252.687 118.882 254.605 125.189 260.61 125.991C260.61 125.991 262.585 126.48 264.85 122.248C267.058 118.13 266.669 116.136 270.003 115.196C274.179 115.513 274.037 117.897 276.944 121.69C279.851 125.483 281.723 124.715 281.723 124.715C286.861 123.172 288.381 117.931 288.836 115.291Z" fill="black"/>
</g>
<path d="M273.579 106.674C273.355 106.276 273.008 105.962 272.59 105.78H272.567C272.301 105.647 272.02 105.547 271.73 105.482C270.379 105.024 268.906 105.084 267.597 105.65C266.949 105.878 266.391 106.31 266.008 106.88C265.823 107.168 265.741 107.51 265.774 107.851C265.808 108.192 265.954 108.512 266.191 108.759C266.733 109.244 267.589 109.141 268.212 109.523C268.583 109.811 268.922 110.137 269.224 110.497C269.564 110.818 270.08 111.055 270.496 110.837C271.023 110.562 271.035 109.768 271.497 109.39C271.959 109.011 272.601 109.164 273.082 108.87C273.705 108.488 273.881 107.342 273.579 106.674Z" fill="#263238"/>
<path d="M278.541 106.303C278.467 106.275 278.395 106.24 278.327 106.2L277.731 105.89C277.001 105.515 276.252 105.179 275.485 104.886C274.348 104.456 273.167 104.155 271.963 103.988C270.49 103.78 268.992 103.837 267.539 104.156C266.087 104.472 264.717 105.089 263.517 105.967C262.997 106.351 262.518 106.789 262.088 107.273C261.721 107.702 261.382 108.153 261.072 108.626C260.499 109.493 260.064 110.218 259.731 110.7C259.563 110.94 259.43 111.124 259.349 111.242C259.306 111.309 259.253 111.369 259.193 111.422C259.228 111.351 259.269 111.283 259.315 111.219L259.678 110.654C259.991 110.165 260.404 109.432 260.965 108.549C261.272 108.065 261.61 107.602 261.978 107.162C262.409 106.665 262.892 106.214 263.418 105.818C264.635 104.917 266.03 104.285 267.509 103.961C268.985 103.638 270.507 103.585 272.001 103.805C273.216 103.983 274.406 104.302 275.546 104.756C276.306 105.06 277.045 105.413 277.758 105.814C278.014 105.955 278.205 106.078 278.335 106.158C278.409 106.197 278.479 106.246 278.541 106.303Z" fill="#263238"/>
<path d="M251.893 76.9692C250.3 75.1547 248.325 73.1798 245.918 73.386C244.344 73.5197 242.977 74.6275 242.175 75.9875C241.373 77.3474 241.071 78.9403 240.895 80.5103C240.227 86.6415 241.39 92.8331 244.238 98.3039C245.662 101.028 247.805 103.74 250.835 104.248L262.936 89.537C259.259 85.3477 255.578 81.1585 251.893 76.9692Z" fill="#AE7461"/>
<path d="M285.016 76.4C286.517 74.49 288.389 72.431 290.803 72.5112C292.381 72.5647 293.802 73.5999 294.673 74.9217C295.544 76.2434 295.93 77.8134 296.201 79.372C297.183 85.4649 296.339 91.7121 293.775 97.326C292.492 100.115 290.486 102.938 287.488 103.598L274.626 89.5064C278.089 85.1363 281.553 80.7675 285.016 76.4Z" fill="#AE7461"/>
<path d="M261.622 89.6363C261.416 89.7378 261.202 89.8258 260.984 89.8999C260.404 90.1336 259.838 90.4002 259.288 90.6983C257.469 91.6776 255.879 93.033 254.625 94.6743C253.37 96.3157 252.479 98.2054 252.011 100.218C251.864 100.826 251.755 101.444 251.687 102.067C251.669 102.296 251.64 102.524 251.599 102.75C251.589 102.691 251.589 102.63 251.599 102.571C251.599 102.452 251.599 102.28 251.599 102.059C251.641 101.429 251.73 100.804 251.866 100.187C252.302 98.1405 253.188 96.2164 254.459 94.5541C255.73 92.8919 257.355 91.533 259.216 90.576C259.774 90.2779 260.353 90.0225 260.95 89.812C261.16 89.7356 261.332 89.6936 261.439 89.6592C261.499 89.6452 261.561 89.6375 261.622 89.6363Z" fill="#263238"/>
<path d="M268.464 88.1541C268.541 88.1325 268.621 88.121 268.701 88.1198C268.861 88.1198 269.083 88.093 269.392 88.0816C270.242 88.0571 271.092 88.0775 271.94 88.1427C274.751 88.3219 277.502 89.0295 280.05 90.2284C281.442 90.9135 282.716 91.8162 283.824 92.9024C284.717 93.801 285.465 94.8317 286.044 95.9584C286.429 96.7185 286.74 97.5142 286.972 98.3344C287.041 98.6095 287.094 98.831 287.14 99.0068C287.164 99.0837 287.178 99.1632 287.182 99.2436C287.149 99.1697 287.122 99.093 287.102 99.0144C287.048 98.8463 286.979 98.6324 286.899 98.3574C286.64 97.553 286.313 96.7722 285.921 96.0233C285.332 94.9198 284.582 93.9104 283.694 93.0285C282.594 91.962 281.335 91.0729 279.962 90.3927C277.438 89.2088 274.72 88.4905 271.94 88.2726C270.874 88.1732 270.003 88.1503 269.407 88.1465H268.705C268.625 88.1575 268.544 88.1601 268.464 88.1541Z" fill="#263238"/>
<path d="M289.008 113.744C289.008 113.744 289.008 113.832 289.008 114C289.008 114.168 288.977 114.417 288.939 114.741C288.823 115.682 288.627 116.611 288.351 117.518C287.93 118.941 287.267 120.279 286.391 121.476C285.845 122.217 285.191 122.872 284.451 123.42C283.624 124.027 282.701 124.49 281.719 124.788C281.426 124.877 281.114 124.89 280.814 124.826C280.515 124.775 280.224 124.682 279.951 124.551C279.393 124.278 278.878 123.924 278.423 123.501C277.478 122.6 276.644 121.589 275.94 120.49C275.558 119.933 275.21 119.344 274.859 118.756C274.517 118.153 274.135 117.575 273.713 117.026C273.28 116.469 272.716 116.029 272.07 115.746C271.399 115.478 270.69 115.32 269.969 115.276H270.003C269.403 115.436 268.834 115.694 268.319 116.04C267.368 116.712 266.909 117.824 266.47 118.863C266.031 119.902 265.591 120.96 265.079 121.938C264.598 122.913 263.995 123.824 263.284 124.647C262.928 125.039 262.519 125.38 262.069 125.659C261.619 125.958 261.079 126.093 260.541 126.041C259.123 125.852 257.776 125.307 256.626 124.456C255.61 123.68 254.746 122.723 254.078 121.633C253.498 120.69 253.022 119.687 252.661 118.642C252.352 117.773 252.122 116.878 251.973 115.968C251.652 114.508 251.404 113.366 251.232 112.579C251.152 112.197 251.091 111.903 251.045 111.693L251.003 111.464C251 111.438 251 111.413 251.003 111.387C251.015 111.411 251.022 111.437 251.026 111.464L251.083 111.685C251.136 111.895 251.205 112.186 251.297 112.568L252.084 115.945C252.246 116.843 252.484 117.726 252.794 118.584C253.158 119.618 253.635 120.608 254.215 121.537C254.879 122.607 255.734 123.546 256.737 124.307C257.862 125.127 259.175 125.653 260.557 125.835C261.042 125.86 261.522 125.726 261.924 125.453C262.357 125.18 262.75 124.85 263.093 124.471C263.79 123.656 264.383 122.758 264.858 121.797C265.366 120.823 265.801 119.791 266.237 118.741C266.45 118.202 266.699 117.677 266.982 117.171C267.271 116.645 267.671 116.189 268.155 115.834C268.687 115.469 269.277 115.197 269.9 115.028H269.935C270.678 115.075 271.409 115.24 272.101 115.517C272.773 115.814 273.362 116.271 273.816 116.85C274.243 117.41 274.633 117.997 274.985 118.607C275.336 119.203 275.691 119.78 276.058 120.338C276.752 121.425 277.573 122.427 278.503 123.321C278.944 123.733 279.444 124.078 279.985 124.345C280.244 124.47 280.519 124.56 280.803 124.612C281.072 124.668 281.35 124.66 281.616 124.589C282.575 124.298 283.479 123.848 284.29 123.26C285.017 122.721 285.661 122.077 286.2 121.35C287.076 120.166 287.743 118.84 288.171 117.431C288.455 116.531 288.666 115.61 288.802 114.676C288.847 114.352 288.878 114.103 288.893 113.939C288.909 113.775 289.008 113.744 289.008 113.744Z" fill="#263238"/>
<path d="M270.32 110.631C270.434 111.396 270.452 112.173 270.374 112.942C270.359 113.717 270.246 114.487 270.038 115.234C269.98 115.234 270.099 114.203 270.175 112.942C270.252 111.682 270.263 110.635 270.32 110.631Z" fill="#263238"/>
<path d="M260.427 118.08C260.415 118.168 260.378 118.25 260.32 118.317C260.261 118.383 260.184 118.431 260.099 118.454C260.013 118.477 259.923 118.474 259.839 118.445C259.755 118.417 259.682 118.364 259.628 118.294C259.574 118.223 259.543 118.138 259.537 118.05C259.532 117.962 259.553 117.874 259.597 117.797C259.642 117.721 259.708 117.659 259.788 117.62C259.868 117.582 259.957 117.567 260.045 117.58C260.161 117.596 260.267 117.657 260.339 117.751C260.41 117.845 260.442 117.963 260.427 118.08Z" fill="#263238"/>
<path d="M262.574 115.253C262.562 115.341 262.525 115.423 262.466 115.49C262.408 115.557 262.331 115.604 262.246 115.627C262.16 115.65 262.07 115.647 261.986 115.619C261.902 115.59 261.829 115.537 261.775 115.467C261.721 115.396 261.69 115.312 261.684 115.223C261.679 115.135 261.7 115.047 261.744 114.97C261.789 114.894 261.855 114.832 261.935 114.794C262.014 114.755 262.104 114.741 262.192 114.753C262.25 114.76 262.306 114.779 262.356 114.809C262.407 114.838 262.451 114.877 262.487 114.923C262.522 114.97 262.548 115.023 262.563 115.08C262.578 115.136 262.582 115.195 262.574 115.253Z" fill="#263238"/>
<path d="M265.251 117.415C265.239 117.503 265.201 117.585 265.143 117.651C265.084 117.717 265.007 117.764 264.921 117.786C264.836 117.809 264.746 117.805 264.662 117.776C264.579 117.747 264.506 117.694 264.452 117.624C264.399 117.553 264.368 117.469 264.362 117.38C264.357 117.292 264.378 117.205 264.423 117.128C264.467 117.052 264.534 116.991 264.613 116.952C264.693 116.913 264.782 116.899 264.869 116.911C264.986 116.928 265.092 116.991 265.164 117.085C265.235 117.179 265.267 117.298 265.251 117.415Z" fill="#263238"/>
<path d="M266.894 114.524C266.882 114.611 266.845 114.694 266.787 114.76C266.729 114.827 266.652 114.875 266.566 114.898C266.481 114.921 266.39 114.918 266.306 114.889C266.223 114.86 266.149 114.808 266.095 114.737C266.042 114.667 266.01 114.582 266.005 114.494C265.999 114.405 266.02 114.317 266.065 114.241C266.109 114.164 266.176 114.103 266.255 114.064C266.335 114.025 266.424 114.011 266.512 114.023C266.57 114.031 266.626 114.05 266.677 114.079C266.727 114.108 266.772 114.147 266.807 114.194C266.843 114.24 266.869 114.293 266.884 114.35C266.898 114.407 266.902 114.466 266.894 114.524Z" fill="#263238"/>
<path d="M262.325 120.487C262.314 120.574 262.277 120.657 262.218 120.723C262.16 120.79 262.083 120.838 261.997 120.861C261.912 120.884 261.821 120.881 261.738 120.852C261.654 120.823 261.58 120.771 261.527 120.7C261.473 120.63 261.441 120.545 261.436 120.457C261.43 120.368 261.451 120.28 261.496 120.204C261.541 120.127 261.607 120.066 261.687 120.027C261.766 119.988 261.855 119.974 261.943 119.986C262.001 119.994 262.057 120.013 262.108 120.042C262.159 120.071 262.203 120.11 262.239 120.157C262.274 120.203 262.3 120.256 262.315 120.313C262.33 120.37 262.333 120.429 262.325 120.487Z" fill="#263238"/>
<path d="M281.387 117.767C281.375 117.854 281.389 117.944 281.428 118.023C281.467 118.103 281.528 118.169 281.605 118.214C281.681 118.259 281.769 118.28 281.857 118.274C281.946 118.269 282.031 118.237 282.101 118.183C282.171 118.13 282.224 118.056 282.253 117.972C282.281 117.888 282.284 117.798 282.262 117.713C282.239 117.627 282.191 117.55 282.124 117.492C282.058 117.433 281.975 117.396 281.887 117.385C281.829 117.377 281.77 117.38 281.714 117.395C281.657 117.41 281.604 117.436 281.558 117.471C281.511 117.507 281.472 117.551 281.443 117.602C281.413 117.653 281.395 117.709 281.387 117.767Z" fill="#263238"/>
<path d="M279.244 114.917C279.236 114.975 279.239 115.034 279.254 115.091C279.269 115.147 279.295 115.2 279.331 115.247C279.366 115.293 279.411 115.332 279.461 115.362C279.512 115.391 279.568 115.41 279.626 115.418C279.714 115.43 279.803 115.415 279.883 115.377C279.962 115.338 280.029 115.276 280.073 115.2C280.118 115.123 280.139 115.035 280.133 114.947C280.128 114.859 280.096 114.774 280.042 114.704C279.989 114.633 279.915 114.58 279.831 114.552C279.748 114.523 279.657 114.52 279.572 114.543C279.486 114.566 279.409 114.614 279.351 114.68C279.293 114.747 279.255 114.829 279.244 114.917Z" fill="#263238"/>
<path d="M276.559 116.097C276.546 116.185 276.561 116.275 276.599 116.354C276.638 116.434 276.7 116.5 276.776 116.545C276.853 116.589 276.941 116.61 277.029 116.605C277.117 116.599 277.202 116.568 277.272 116.514C277.343 116.46 277.396 116.387 277.424 116.303C277.453 116.219 277.456 116.129 277.433 116.043C277.41 115.958 277.362 115.881 277.296 115.823C277.229 115.764 277.147 115.727 277.059 115.715C276.942 115.7 276.824 115.732 276.73 115.803C276.636 115.875 276.575 115.981 276.559 116.097Z" fill="#263238"/>
<path d="M275.264 113.072C275.251 113.16 275.266 113.249 275.304 113.329C275.343 113.408 275.405 113.475 275.481 113.519C275.558 113.564 275.646 113.585 275.734 113.579C275.822 113.574 275.907 113.542 275.977 113.488C276.048 113.435 276.101 113.361 276.129 113.278C276.158 113.194 276.161 113.103 276.138 113.018C276.115 112.932 276.067 112.855 276.001 112.797C275.934 112.739 275.852 112.701 275.764 112.69C275.647 112.676 275.53 112.708 275.436 112.779C275.343 112.851 275.281 112.956 275.264 113.072Z" fill="#263238"/>
<path d="M278.671 119.207C278.663 119.265 278.666 119.324 278.681 119.381C278.696 119.437 278.722 119.49 278.758 119.537C278.793 119.583 278.838 119.622 278.888 119.652C278.939 119.681 278.995 119.7 279.053 119.707C279.141 119.719 279.23 119.705 279.31 119.667C279.389 119.628 279.456 119.566 279.5 119.49C279.545 119.413 279.566 119.325 279.56 119.237C279.555 119.149 279.523 119.064 279.469 118.993C279.416 118.923 279.342 118.87 279.258 118.842C279.175 118.813 279.084 118.81 278.999 118.833C278.913 118.856 278.836 118.904 278.778 118.97C278.72 119.037 278.682 119.119 278.671 119.207Z" fill="#263238"/>
<path d="M260.541 97.7423C260.541 98.0212 260.243 98.281 259.777 98.5407C259.187 98.854 258.576 99.1258 257.947 99.3544C256.511 99.8968 255.228 100.275 254.891 99.8242C254.739 99.5989 254.891 99.1939 255.293 98.7432C255.838 98.1895 256.499 97.7642 257.229 97.4979C257.956 97.2041 258.741 97.0863 259.521 97.1541C260.155 97.2343 260.53 97.4749 260.541 97.7423Z" fill="#263238"/>
<path d="M282.667 96.264C282.579 96.5276 282.197 96.646 281.666 96.7339C281.002 96.8144 280.333 96.8502 279.664 96.8408C278.136 96.8408 276.799 96.7301 276.654 96.1914C276.589 95.9279 276.872 95.5993 277.418 95.3243C278.125 95.0022 278.895 94.8405 279.672 94.8506C280.459 94.8362 281.238 95.009 281.945 95.3549C282.487 95.6605 282.751 96.0157 282.667 96.264Z" fill="#263238"/>
<path d="M272.926 102.506C272.926 102.54 272.486 102.445 271.78 102.361C270.868 102.245 269.946 102.22 269.029 102.284C268.113 102.353 267.206 102.51 266.321 102.754C265.637 102.941 265.225 103.094 265.213 103.064C265.296 103 265.389 102.951 265.488 102.918C265.746 102.804 266.01 102.704 266.279 102.617C267.168 102.332 268.087 102.154 269.018 102.086C269.948 102.019 270.883 102.064 271.803 102.219C272.081 102.265 272.356 102.326 272.628 102.403C272.732 102.422 272.832 102.457 272.926 102.506Z" fill="#263238"/>
<g opacity="0.2">
<path d="M252.019 99.7478C251.48 102.143 247.255 98.3765 245.88 96.3404C244.505 94.3043 243.898 91.8634 243.313 89.4644C242.549 86.3282 241.785 83.085 242.308 79.9144C242.453 78.8241 242.869 77.7876 243.519 76.9004C243.849 76.4616 244.277 76.1067 244.77 75.8644C245.262 75.6221 245.805 75.4994 246.354 75.5061C247.588 75.5825 248.611 76.4573 249.463 77.3512C252.401 80.4313 254.488 84.2226 255.518 88.3528C255.9 89.9457 256.58 91.9894 255.648 93.3188C255.648 93.3417 252.871 95.9584 252.019 99.7478Z" fill="black"/>
</g>
<g opacity="0.2">
<path d="M287.182 98.7852C287.721 101.18 291.078 97.1082 292.45 95.076C293.821 93.0438 294.432 90.599 295.017 88.2C295.781 85.0638 295.781 82.5044 295.223 79.3185C294.954 77.9005 294.466 76.533 293.775 75.2655C293.26 74.299 291.938 73.2867 290.845 73.3555C289.615 73.4319 288.42 74.3067 287.568 75.1967C284.642 78.2527 283.832 82.9666 282.812 87.0769C282.43 88.6699 281.75 90.7136 282.686 92.0429C282.686 92.062 286.33 94.9958 287.182 98.7852Z" fill="black"/>
</g>
<path d="M273.369 143.632C273.369 143.632 273.331 143.605 273.273 143.537C273.216 143.468 273.132 143.376 273.029 143.242C272.738 142.858 272.477 142.454 272.246 142.031C271.438 140.561 270.995 138.918 270.955 137.241L271.138 137.264C271.061 137.775 270.807 138.243 270.42 138.586C270.304 138.671 270.172 138.73 270.031 138.759C269.891 138.788 269.746 138.786 269.606 138.754C269.466 138.706 269.339 138.627 269.236 138.521C269.132 138.416 269.055 138.287 269.01 138.146C268.686 137.238 268.698 136.243 269.045 135.343L269.155 135.469C268.93 135.534 268.73 135.668 268.582 135.851C268.414 136.03 268.281 136.233 268.093 136.412C267.912 136.584 267.688 136.702 267.444 136.756C267.318 136.783 267.188 136.771 267.069 136.722C266.95 136.673 266.849 136.589 266.779 136.481C266.675 136.28 266.627 136.054 266.642 135.828C266.642 135.621 266.642 135.423 266.669 135.232C266.697 134.881 266.752 134.532 266.833 134.189C266.948 133.702 267.115 133.23 267.333 132.779C267.41 132.623 267.475 132.504 267.52 132.428C267.566 132.352 267.597 132.31 267.601 132.313C267.604 132.317 267.528 132.485 267.391 132.806C267.201 133.261 267.054 133.733 266.951 134.216C266.879 134.554 266.832 134.898 266.81 135.243C266.81 135.429 266.81 135.624 266.81 135.828C266.799 136.023 266.84 136.218 266.928 136.393C266.981 136.473 267.057 136.535 267.146 136.569C267.235 136.603 267.333 136.608 267.425 136.584C267.638 136.535 267.834 136.428 267.99 136.275C268.151 136.122 268.292 135.912 268.46 135.725C268.631 135.507 268.866 135.349 269.132 135.274L269.308 135.232L269.243 135.4C268.912 136.259 268.903 137.208 269.216 138.074C269.249 138.186 269.308 138.289 269.388 138.375C269.469 138.46 269.568 138.524 269.679 138.563C269.79 138.588 269.906 138.589 270.018 138.565C270.13 138.541 270.236 138.494 270.328 138.425C270.675 138.107 270.904 137.68 270.977 137.214L271.149 136.584V137.237C271.185 138.889 271.598 140.511 272.357 141.978C272.575 142.402 272.82 142.811 273.09 143.204C273.192 143.341 273.285 143.484 273.369 143.632Z" fill="#263238"/>
<path d="M286.613 154.916C285.449 154.087 284.098 153.56 282.681 153.382C281.263 153.204 279.824 153.381 278.491 153.896C277.805 152.486 276.624 151.378 275.174 150.783C273.723 150.188 272.104 150.148 270.625 150.67C269.147 151.192 267.912 152.241 267.157 153.615C266.402 154.989 266.179 156.593 266.531 158.121C263.509 156.899 259.628 158.817 258.773 161.96L290.074 162.342C290.157 160.915 289.884 159.489 289.28 158.193C288.676 156.896 287.76 155.771 286.613 154.916Z" fill="#E0E0E0"/>
<path d="M222.857 157.644L250.972 157.766L259.04 162.128C261.049 162.297 292.358 162.128 292.358 162.128L296.843 157.644H319.381L308.142 176.694H233.584L222.857 157.644Z" fill="#7FCFEF"/>
<path d="M319.858 154.294H301.74C300.945 154.294 300.136 154.244 299.345 154.294C297.687 154.401 296.85 155.371 295.788 156.433L290.142 162.079H259.38L253.979 157.674C252.149 156.181 250.483 154.351 248.015 154.294C241.457 154.145 234.875 154.294 228.316 154.294H220.874C216.565 154.294 216.558 160.99 220.874 160.99H247.5C250.212 163.213 252.917 165.448 255.655 167.637C257.997 169.513 261.989 168.783 264.823 168.783H280.994C284.451 168.783 287.98 168.989 291.437 168.783C293.691 168.649 295.212 166.491 296.701 165.001L300.705 160.998H319.862C324.167 160.99 324.175 154.294 319.858 154.294Z" fill="#7FCFEF"/>
<path d="M319.858 154.294H319.988C320.116 154.294 320.244 154.303 320.37 154.32C320.875 154.374 321.357 154.555 321.772 154.848C322.447 155.344 322.904 156.081 323.048 156.907C323.152 157.427 323.146 157.963 323.029 158.48C322.906 159.076 322.622 159.627 322.208 160.073C321.735 160.572 321.105 160.893 320.424 160.982C320.062 161.026 319.699 161.043 319.335 161.032H318.189H313.124H300.693L300.739 161.013L296.556 165.215C295.846 165.948 295.166 166.743 294.356 167.461C293.557 168.233 292.523 168.715 291.418 168.833C289.21 168.962 286.926 168.932 284.577 168.886C282.227 168.84 279.813 168.84 277.319 168.84H269.736C267.131 168.859 264.48 168.779 261.767 168.962C260.39 169.058 259.007 168.959 257.657 168.668C256.969 168.5 256.32 168.199 255.747 167.782C255.186 167.354 254.655 166.903 254.108 166.464L247.454 161.044L247.515 161.067H220.886C220.286 161.076 219.694 160.93 219.167 160.642C218.649 160.341 218.228 159.897 217.956 159.363C217.69 158.834 217.548 158.251 217.542 157.659C217.536 157.067 217.666 156.482 217.922 155.948C218.174 155.416 218.571 154.966 219.068 154.649C219.573 154.349 220.149 154.187 220.737 154.179H224.129C228.626 154.179 233.037 154.162 237.361 154.129C239.524 154.129 241.659 154.106 243.768 154.129L246.911 154.168C247.431 154.168 247.947 154.168 248.474 154.225C249.001 154.286 249.516 154.425 250.002 154.637C250.934 155.078 251.796 155.652 252.561 156.341C253.325 157.002 254.089 157.648 254.872 158.274L259.422 162.01L259.369 161.987L290.131 162.006L290.081 162.029C291.879 160.234 293.588 158.529 295.208 156.914L296.403 155.722C296.788 155.326 297.225 154.984 297.702 154.706C298.173 154.446 298.694 154.289 299.23 154.248C299.754 154.206 300.265 154.217 300.758 154.225C304.781 154.259 308.242 154.225 311.072 154.255L317.566 154.275H311.072C308.245 154.275 304.785 154.301 300.758 154.275C299.765 154.275 298.68 154.198 297.748 154.744C296.816 155.291 296.105 156.154 295.284 156.941L290.169 162.064L290.15 162.086H290.12H274.738H259.357H259.326H259.3L254.716 158.366C253.952 157.743 253.188 157.09 252.401 156.433C251.647 155.758 250.801 155.194 249.887 154.76C249.422 154.557 248.931 154.422 248.428 154.359C247.928 154.313 247.4 154.32 246.9 154.305L243.756 154.271C241.651 154.271 239.516 154.271 237.354 154.271C233.037 154.309 228.618 154.336 224.121 154.324H220.737C220.183 154.331 219.641 154.483 219.163 154.764C218.692 155.059 218.315 155.481 218.074 155.982C217.832 156.488 217.709 157.043 217.714 157.603C217.72 158.164 217.853 158.716 218.105 159.218C218.362 159.72 218.761 160.137 219.251 160.417C219.749 160.681 220.307 160.813 220.871 160.799H247.519L247.546 160.822L254.196 166.243C254.743 166.682 255.277 167.14 255.827 167.561C256.381 167.962 257.008 168.253 257.672 168.416C259.003 168.703 260.368 168.801 261.725 168.707C264.434 168.527 267.104 168.607 269.702 168.588H277.342C279.821 168.588 282.239 168.588 284.6 168.642C286.96 168.695 289.226 168.726 291.426 168.6C292.498 168.489 293.502 168.02 294.276 167.27C295.078 166.575 295.754 165.773 296.472 165.035L300.674 160.833L300.693 160.814H300.724H313.154H318.219H319.365C319.725 160.83 320.085 160.815 320.443 160.772C321.107 160.689 321.723 160.379 322.185 159.894C322.593 159.458 322.874 158.919 322.998 158.335C323.113 157.825 323.122 157.298 323.025 156.784C322.887 155.972 322.443 155.243 321.784 154.748C321.373 154.456 320.897 154.271 320.397 154.21C320.27 154.189 320.143 154.176 320.015 154.171C319.967 154.217 319.914 154.258 319.858 154.294Z" fill="#263238"/>
<path d="M233.985 141.565C234.187 140.354 234.577 139.354 235.513 138.559C234.722 138.085 234.042 137.776 233.912 136.496C233.874 136.146 233.907 135.791 234.009 135.454C234.112 135.116 234.281 134.803 234.508 134.533C235 134.019 235.568 133.585 236.193 133.245C235.924 132.844 235.78 132.372 235.776 131.889C236.015 132.192 236.332 132.423 236.693 132.558C236.582 132.247 236.537 131.918 236.56 131.589C236.583 131.26 236.674 130.94 236.827 130.648C236.85 131.614 237.728 132.332 238.607 132.73C239.485 133.127 240.471 133.36 241.181 134.009C241.587 134.403 241.875 134.902 242.013 135.449C242.152 135.997 242.137 136.572 241.968 137.111C241.786 137.646 241.478 138.13 241.071 138.522C240.663 138.914 240.168 139.203 239.627 139.365C240.702 140.044 241.986 140.313 243.243 140.122C244.501 139.931 245.647 139.294 246.472 138.326C247.218 139.349 247.54 140.62 247.37 141.875C247.122 143.259 246.403 144.514 245.334 145.427H234.878C234.256 144.369 233.782 142.773 233.985 141.565Z" fill="#7FCFEF"/>
<path d="M234.879 136.592C234.791 136.492 234.244 135.064 234.244 135.064C233.726 134.962 233.239 134.74 232.823 134.414C232.823 134.414 232.564 134.552 232.965 135.178C233.206 135.548 233.501 135.881 233.839 136.164C233.839 136.164 232.609 136.229 232.609 137.077L233.622 137.023L234.095 137.371L234.879 136.592Z" fill="#7FCFEF"/>
<path opacity="0.3" d="M234.879 136.592C234.791 136.492 234.16 135.064 234.16 135.064C233.67 134.963 233.211 134.746 232.823 134.43C232.823 134.43 232.564 134.567 232.965 135.194C233.206 135.564 233.501 135.896 233.839 136.179C233.839 136.179 232.609 136.244 232.609 137.092L233.622 137.039L234.095 137.386L234.879 136.592Z" fill="black"/>
<path d="M235.558 135.549C235.563 135.642 235.595 135.731 235.651 135.806C235.706 135.88 235.783 135.937 235.871 135.968C235.958 135.999 236.053 136.004 236.143 135.981C236.234 135.958 236.315 135.909 236.377 135.839C236.439 135.77 236.48 135.684 236.493 135.592C236.506 135.5 236.492 135.406 236.451 135.322C236.411 135.238 236.347 135.168 236.267 135.121C236.187 135.073 236.094 135.051 236.002 135.056C235.878 135.063 235.761 135.119 235.678 135.211C235.595 135.303 235.552 135.425 235.558 135.549Z" fill="#263238"/>
<path d="M236.364 141.374C236.695 141.676 237.046 141.954 237.415 142.207C238.328 142.79 239.421 143.024 240.492 142.864C241.563 142.705 242.541 142.164 243.244 141.34C243.526 140.993 243.782 140.625 244.008 140.24C243.984 140.361 243.943 140.478 243.886 140.587C243.745 140.891 243.565 141.174 243.351 141.432C242.648 142.312 241.637 142.893 240.522 143.059C239.408 143.225 238.272 142.963 237.342 142.326C237.061 142.14 236.804 141.919 236.578 141.669C236.493 141.581 236.421 141.482 236.364 141.374Z" fill="#263238"/>
<path d="M233.247 146.768C233.421 146.307 233.692 145.888 234.04 145.54C234.389 145.191 234.808 144.921 235.269 144.748C235.731 144.574 236.224 144.501 236.716 144.533C237.208 144.566 237.687 144.702 238.122 144.935C238.764 144.225 239.642 143.772 240.593 143.659C241.537 143.547 242.493 143.599 243.42 143.812C244.371 143.96 245.282 144.303 246.094 144.82C246.497 145.084 246.833 145.437 247.078 145.851C247.322 146.266 247.468 146.731 247.504 147.211" fill="#E0E0E0"/>
<path d="M232.644 113.756C235.492 113.756 237.801 111.447 237.801 108.599C237.801 105.751 235.492 103.442 232.644 103.442C229.796 103.442 227.487 105.751 227.487 108.599C227.487 111.447 229.796 113.756 232.644 113.756Z" fill="#E0E0E0"/>
<path d="M237.801 108.599C237.766 108.178 237.7 107.76 237.602 107.35C237.308 106.234 236.646 105.25 235.723 104.557C235.046 104.045 234.251 103.711 233.411 103.586C232.571 103.461 231.714 103.549 230.917 103.843C229.978 104.188 229.161 104.802 228.568 105.608C227.93 106.474 227.586 107.523 227.586 108.599C227.586 109.675 227.93 110.723 228.568 111.59C228.866 112.003 229.227 112.366 229.637 112.667C230.026 112.961 230.458 113.194 230.917 113.358C231.772 113.671 232.696 113.749 233.591 113.584C234.37 113.444 235.104 113.122 235.734 112.644C236.656 111.95 237.318 110.967 237.614 109.852C237.712 109.44 237.778 109.021 237.812 108.599C237.821 108.709 237.821 108.821 237.812 108.931C237.813 109.059 237.803 109.187 237.782 109.313C237.765 109.495 237.733 109.675 237.686 109.852C237.451 110.82 236.943 111.701 236.221 112.389C235.5 113.077 234.597 113.544 233.618 113.733C232.697 113.908 231.746 113.832 230.864 113.515C229.886 113.162 229.035 112.526 228.419 111.689C227.754 110.79 227.396 109.702 227.395 108.583C227.4 107.466 227.759 106.379 228.419 105.478C229.037 104.643 229.887 104.01 230.864 103.656C231.746 103.338 232.697 103.263 233.618 103.438C234.599 103.628 235.504 104.098 236.224 104.791C236.945 105.483 237.45 106.369 237.679 107.342C237.725 107.519 237.757 107.699 237.774 107.881C237.796 108.013 237.806 108.147 237.805 108.282C237.812 108.387 237.811 108.493 237.801 108.599Z" fill="#263238"/>
<path d="M228.862 109.29C228.728 109.099 228.644 108.877 228.618 108.645C228.502 108.085 228.541 107.505 228.731 106.967C228.921 106.428 229.254 105.952 229.695 105.589C229.864 105.425 230.069 105.304 230.294 105.237C230.294 105.268 230.088 105.401 229.79 105.692C229.398 106.062 229.099 106.521 228.919 107.03C228.739 107.539 228.683 108.083 228.755 108.618C228.809 109.034 228.896 109.279 228.862 109.29Z" fill="white"/>
<path d="M231.066 111.819C230.907 111.841 230.744 111.826 230.591 111.776C230.438 111.726 230.299 111.641 230.184 111.529C229.756 111.2 229.637 110.765 229.687 110.765C229.737 110.765 229.924 111.101 230.306 111.391C230.688 111.682 231.074 111.762 231.066 111.819Z" fill="white"/>
<path d="M261.744 68.4016C264.316 68.4016 266.401 66.3168 266.401 63.745C266.401 61.1733 264.316 59.0884 261.744 59.0884C259.173 59.0884 257.088 61.1733 257.088 63.745C257.088 66.3168 259.173 68.4016 261.744 68.4016Z" fill="#E0E0E0"/>
<path d="M266.401 63.7374C266.364 63.352 266.303 62.9692 266.218 62.5914C266.058 61.9697 265.77 61.3884 265.371 60.8852C264.973 60.382 264.473 59.9681 263.904 59.6703C263.336 59.3725 262.711 59.1974 262.07 59.1564C261.43 59.1154 260.788 59.2094 260.186 59.4323C259.339 59.7424 258.602 60.2967 258.07 61.0252C257.494 61.8059 257.184 62.7503 257.184 63.7202C257.184 64.6901 257.494 65.6345 258.07 66.4152C258.602 67.1437 259.339 67.698 260.186 68.0082C260.954 68.2902 261.784 68.3614 262.589 68.2144C263.29 68.0877 263.951 67.7972 264.518 67.3664C265.351 66.7417 265.949 65.8551 266.218 64.849C266.302 64.4775 266.363 64.1011 266.401 63.7221C266.41 63.8212 266.41 63.921 266.401 64.0201C266.402 64.1403 266.393 64.2604 266.374 64.3792C266.358 64.544 266.33 64.7074 266.29 64.8681C266.078 65.7436 265.619 66.5398 264.967 67.1621C264.316 67.7844 263.5 68.2066 262.615 68.3787C261.781 68.5371 260.92 68.4685 260.121 68.1801C259.697 68.0331 259.298 67.8232 258.937 67.5574C258.547 67.279 258.207 66.9382 257.928 66.5489C257.326 65.735 257.001 64.7497 257 63.7374C257.005 62.7269 257.33 61.744 257.928 60.9297C258.486 60.1725 259.255 59.598 260.14 59.2795C260.939 58.9921 261.801 58.9248 262.635 59.0847C263.518 59.2564 264.334 59.6781 264.986 60.2997C265.637 60.9212 266.096 61.7166 266.309 62.5914C266.349 62.7522 266.377 62.9156 266.393 63.0804C266.413 63.2067 266.422 63.3345 266.42 63.4624C266.422 63.5544 266.415 63.6464 266.401 63.7374Z" fill="#263238"/>
<path d="M258.333 64.3677C258.204 64.1979 258.123 63.9957 258.1 63.7833C257.996 63.2737 258.033 62.7453 258.207 62.2553C258.378 61.7682 258.679 61.3375 259.078 61.0099C259.384 60.7616 259.613 60.6776 259.624 60.7005C259.636 60.7234 259.437 60.8533 259.174 61.1131C258.832 61.4532 258.571 61.8657 258.41 62.3202C258.25 62.7784 258.198 63.2672 258.257 63.7489C258.294 63.9536 258.319 64.1602 258.333 64.3677Z" fill="white"/>
<path d="M271.497 66.7086C271.497 66.7621 271.081 66.7583 270.695 66.4527C270.309 66.1471 270.202 65.7498 270.252 65.7383C270.301 65.7269 270.477 66.0363 270.817 66.2961C271.157 66.5558 271.508 66.6513 271.497 66.7086Z" fill="white"/>
<path d="M327.112 111.284C327.112 111.777 326.966 112.258 326.693 112.668C326.419 113.078 326.03 113.397 325.575 113.585C325.12 113.774 324.619 113.823 324.136 113.727C323.653 113.631 323.209 113.394 322.861 113.045C322.512 112.697 322.275 112.253 322.179 111.77C322.083 111.287 322.132 110.786 322.321 110.331C322.509 109.876 322.828 109.487 323.238 109.213C323.648 108.94 324.129 108.794 324.622 108.794C325.282 108.794 325.916 109.056 326.383 109.523C326.85 109.99 327.112 110.624 327.112 111.284Z" fill="#E0E0E0"/>
<path d="M327.112 111.284C327.089 111.284 327.112 111.063 326.998 110.684C326.848 110.154 326.527 109.688 326.085 109.359C325.761 109.117 325.381 108.96 324.981 108.903C324.58 108.845 324.172 108.889 323.793 109.03C323.347 109.192 322.96 109.483 322.681 109.867C322.381 110.278 322.219 110.774 322.219 111.282C322.219 111.791 322.381 112.287 322.681 112.698C322.96 113.082 323.347 113.375 323.793 113.538C324.172 113.678 324.581 113.721 324.981 113.663C325.381 113.605 325.761 113.447 326.085 113.206C326.528 112.877 326.849 112.411 326.998 111.88C327.101 111.498 327.089 111.28 327.112 111.284C327.135 111.288 327.112 111.338 327.112 111.445C327.114 111.598 327.096 111.751 327.059 111.899C326.935 112.463 326.617 112.966 326.161 113.32C325.781 113.614 325.326 113.794 324.848 113.842C324.37 113.89 323.888 113.803 323.457 113.591C323.026 113.379 322.663 113.051 322.409 112.643C322.155 112.235 322.021 111.765 322.021 111.284C322.021 110.804 322.155 110.333 322.409 109.925C322.663 109.518 323.026 109.189 323.457 108.977C323.888 108.765 324.37 108.678 324.848 108.726C325.326 108.774 325.781 108.955 326.161 109.248C326.616 109.602 326.934 110.103 327.059 110.665C327.097 110.815 327.115 110.969 327.112 111.124C327.122 111.177 327.122 111.231 327.112 111.284Z" fill="#263238"/>
<path d="M322.796 111.617C322.773 111.617 322.693 111.517 322.643 111.311C322.577 111.035 322.591 110.746 322.685 110.478C322.778 110.21 322.948 109.975 323.174 109.802C323.346 109.672 323.476 109.638 323.487 109.661C323.234 109.918 323.026 110.216 322.872 110.543C322.787 110.894 322.761 111.257 322.796 111.617Z" fill="white"/>
<path d="M323.858 112.839C323.858 112.892 323.617 112.908 323.399 112.74C323.182 112.572 323.14 112.335 323.193 112.319C323.247 112.304 323.35 112.453 323.522 112.583C323.694 112.713 323.865 112.782 323.858 112.839Z" fill="white"/>
<path d="M307.183 116.905C309.684 116.338 311.252 113.851 310.684 111.35C310.117 108.85 307.63 107.282 305.129 107.849C302.629 108.417 301.061 110.904 301.628 113.404C302.196 115.905 304.683 117.473 307.183 116.905Z" fill="#E0E0E0"/>
<path d="M311.217 114.76C311.382 114.417 311.526 114.063 311.649 113.702C311.953 112.698 311.907 111.621 311.519 110.646C311.261 109.98 310.848 109.385 310.316 108.908C309.705 108.362 308.96 107.989 308.158 107.827C307.271 107.649 306.352 107.735 305.514 108.075C304.613 108.441 303.852 109.085 303.343 109.914C302.835 110.743 302.605 111.713 302.687 112.682C302.761 113.584 303.1 114.444 303.661 115.154C304.169 115.796 304.839 116.291 305.602 116.586C306.268 116.845 306.985 116.943 307.695 116.873C308.735 116.777 309.713 116.333 310.469 115.612C310.741 115.34 310.997 115.05 311.233 114.745C311.187 114.835 311.136 114.921 311.08 115.005C311.016 115.108 310.945 115.207 310.866 115.299C310.766 115.434 310.656 115.562 310.537 115.681C309.783 116.44 308.79 116.915 307.726 117.026C306.935 117.112 306.135 116.997 305.4 116.691C304.666 116.385 304.02 115.898 303.524 115.276C303.235 114.92 303.002 114.522 302.832 114.096C302.648 113.654 302.535 113.186 302.5 112.709C302.411 111.698 302.649 110.685 303.181 109.821C303.712 108.956 304.507 108.285 305.449 107.907C305.891 107.723 306.359 107.611 306.836 107.575C307.293 107.532 307.755 107.56 308.203 107.659C309.037 107.833 309.807 108.229 310.434 108.805C311.102 109.414 311.579 110.202 311.809 111.076C312.04 111.949 312.013 112.87 311.733 113.729C311.684 113.888 311.623 114.042 311.55 114.191C311.504 114.302 311.449 114.41 311.385 114.512C311.337 114.6 311.281 114.683 311.217 114.76Z" fill="#263238"/>
<path d="M303.998 111.066C303.978 110.853 304.014 110.638 304.105 110.444C304.282 109.956 304.59 109.527 304.994 109.201C305.397 108.875 305.882 108.666 306.397 108.595C306.605 108.548 306.822 108.556 307.027 108.618C306.827 108.67 306.624 108.71 306.419 108.736C305.945 108.84 305.501 109.054 305.124 109.359C304.747 109.665 304.446 110.055 304.246 110.497C304.078 110.837 304.028 111.07 303.998 111.066Z" fill="white"/>
<path d="M304.498 114.058C304.471 114.103 304.116 113.878 303.948 113.416C303.881 113.286 303.846 113.142 303.846 112.996C303.846 112.849 303.881 112.705 303.948 112.575C304.005 112.575 303.982 112.957 304.139 113.339C304.296 113.721 304.532 114.012 304.498 114.058Z" fill="white"/>
<path d="M203.062 134.968L201.916 135.545L194.1 119.975C194.062 119.899 194.039 119.817 194.033 119.733C194.027 119.648 194.037 119.564 194.064 119.484C194.091 119.403 194.133 119.329 194.188 119.265C194.243 119.201 194.311 119.149 194.386 119.111C194.462 119.073 194.544 119.051 194.628 119.044C194.713 119.038 194.797 119.049 194.878 119.075C194.958 119.102 195.032 119.144 195.096 119.199C195.16 119.255 195.212 119.322 195.25 119.398L203.062 134.968Z" fill="#E0E0E0"/>
<path d="M195.452 120.17L200.002 117.878C200.049 117.854 200.084 117.813 200.1 117.764C200.117 117.715 200.113 117.661 200.09 117.614C200.066 117.567 200.026 117.532 199.976 117.515C199.927 117.499 199.873 117.503 199.826 117.526L195.273 119.818C195.227 119.842 195.192 119.883 195.176 119.932C195.16 119.982 195.165 120.036 195.189 120.082C195.213 120.128 195.254 120.163 195.303 120.178C195.353 120.194 195.406 120.19 195.452 120.166V120.17Z" fill="#E0E0E0"/>
<path d="M195.945 121.155L200.495 118.863C200.541 118.84 200.577 118.799 200.593 118.749C200.61 118.7 200.606 118.646 200.583 118.6C200.559 118.553 200.518 118.517 200.469 118.501C200.42 118.485 200.366 118.488 200.319 118.512L195.769 120.804C195.723 120.827 195.687 120.868 195.671 120.917C195.654 120.967 195.658 121.021 195.681 121.067C195.705 121.114 195.746 121.149 195.795 121.166C195.845 121.182 195.898 121.178 195.945 121.155Z" fill="#E0E0E0"/>
<path d="M196.438 122.141L200.987 119.849C201.034 119.825 201.07 119.785 201.086 119.735C201.102 119.686 201.099 119.632 201.075 119.585C201.052 119.538 201.011 119.503 200.962 119.487C200.912 119.47 200.858 119.474 200.812 119.497L196.262 121.789C196.239 121.801 196.218 121.817 196.202 121.836C196.185 121.856 196.172 121.878 196.164 121.903C196.155 121.927 196.152 121.953 196.154 121.979C196.156 122.005 196.163 122.03 196.174 122.053C196.186 122.076 196.202 122.096 196.221 122.113C196.241 122.13 196.263 122.143 196.288 122.151C196.312 122.16 196.338 122.163 196.364 122.161C196.39 122.159 196.415 122.152 196.438 122.141Z" fill="#E0E0E0"/>
<path d="M196.931 123.122L201.484 120.83C201.531 120.807 201.566 120.766 201.583 120.717C201.599 120.667 201.595 120.613 201.572 120.567C201.549 120.52 201.508 120.485 201.458 120.468C201.409 120.452 201.355 120.456 201.308 120.479L196.774 122.775C196.729 122.799 196.696 122.839 196.681 122.888C196.665 122.936 196.67 122.989 196.693 123.034C196.715 123.08 196.755 123.114 196.803 123.131C196.851 123.147 196.904 123.144 196.95 123.122H196.931Z" fill="#E0E0E0"/>
<path d="M197.423 124.108L201.977 121.816C202.023 121.793 202.059 121.752 202.075 121.702C202.092 121.653 202.088 121.599 202.065 121.552C202.041 121.506 202.001 121.47 201.951 121.454C201.902 121.437 201.848 121.441 201.801 121.465L197.248 123.757C197.201 123.78 197.166 123.821 197.149 123.87C197.133 123.92 197.137 123.974 197.16 124.02C197.183 124.067 197.224 124.102 197.273 124.119C197.323 124.135 197.377 124.131 197.423 124.108Z" fill="#E0E0E0"/>
<path d="M197.92 125.094L202.473 122.802C202.52 122.778 202.555 122.737 202.572 122.688C202.588 122.638 202.585 122.585 202.561 122.538C202.538 122.491 202.497 122.456 202.448 122.439C202.398 122.423 202.344 122.427 202.298 122.45L197.744 124.742C197.698 124.765 197.662 124.806 197.646 124.856C197.629 124.905 197.633 124.959 197.656 125.006C197.68 125.052 197.721 125.088 197.77 125.104C197.819 125.121 197.873 125.117 197.92 125.094Z" fill="#E0E0E0"/>
<path d="M198.409 126.06L202.962 123.768C203.009 123.745 203.044 123.704 203.061 123.654C203.077 123.605 203.074 123.551 203.05 123.504C203.027 123.458 202.986 123.422 202.937 123.406C202.887 123.389 202.833 123.393 202.787 123.417L198.233 125.709C198.189 125.733 198.155 125.773 198.14 125.822C198.125 125.87 198.129 125.923 198.152 125.968C198.175 126.013 198.214 126.048 198.262 126.064C198.31 126.081 198.363 126.078 198.409 126.056V126.06Z" fill="#E0E0E0"/>
<path d="M198.902 127.061L203.455 124.769C203.502 124.746 203.537 124.705 203.554 124.655C203.57 124.606 203.566 124.552 203.543 124.505C203.52 124.459 203.479 124.423 203.429 124.407C203.38 124.39 203.326 124.394 203.279 124.417L198.726 126.709C198.703 126.721 198.682 126.737 198.665 126.756C198.649 126.776 198.636 126.799 198.628 126.823C198.619 126.847 198.616 126.873 198.618 126.899C198.62 126.925 198.627 126.95 198.638 126.973C198.65 126.996 198.666 127.017 198.685 127.034C198.705 127.05 198.727 127.063 198.752 127.072C198.776 127.08 198.802 127.083 198.828 127.081C198.854 127.079 198.879 127.072 198.902 127.061Z" fill="#E0E0E0"/>
<path d="M199.395 128.046L203.948 125.754C203.995 125.731 204.03 125.69 204.046 125.641C204.063 125.591 204.059 125.537 204.036 125.491C204.013 125.444 203.972 125.409 203.922 125.392C203.873 125.376 203.819 125.38 203.772 125.403L199.219 127.695C199.172 127.718 199.137 127.759 199.12 127.809C199.104 127.858 199.108 127.912 199.131 127.959C199.154 128.005 199.195 128.041 199.245 128.057C199.294 128.074 199.348 128.07 199.395 128.046Z" fill="#E0E0E0"/>
<path d="M199.891 129.028L204.441 126.736C204.487 126.713 204.523 126.672 204.539 126.623C204.556 126.573 204.552 126.519 204.529 126.473C204.505 126.426 204.464 126.391 204.415 126.374C204.366 126.358 204.312 126.361 204.265 126.385L199.715 128.677C199.671 128.701 199.637 128.741 199.622 128.79C199.607 128.838 199.611 128.891 199.634 128.936C199.657 128.981 199.697 129.016 199.745 129.033C199.793 129.049 199.845 129.046 199.891 129.024V129.028Z" fill="#E0E0E0"/>
<path d="M200.365 129.975L204.914 127.683C204.961 127.66 204.996 127.619 205.013 127.57C205.029 127.52 205.026 127.466 205.002 127.42C204.979 127.373 204.938 127.338 204.889 127.321C204.839 127.305 204.785 127.309 204.739 127.332L200.189 129.624C200.142 129.647 200.107 129.688 200.091 129.738C200.074 129.787 200.078 129.841 200.101 129.888C200.125 129.934 200.165 129.97 200.215 129.986C200.264 130.003 200.318 129.999 200.365 129.975Z" fill="#E0E0E0"/>
<path d="M200.838 130.923L205.392 128.631C205.439 128.608 205.474 128.567 205.49 128.517C205.507 128.468 205.503 128.414 205.48 128.367C205.456 128.321 205.416 128.285 205.366 128.269C205.317 128.252 205.263 128.256 205.216 128.279L200.663 130.571C200.616 130.595 200.581 130.636 200.564 130.685C200.548 130.734 200.552 130.788 200.575 130.835C200.598 130.882 200.639 130.917 200.688 130.934C200.738 130.95 200.792 130.946 200.838 130.923Z" fill="#E0E0E0"/>
<path d="M201.312 131.87L205.866 129.578C205.912 129.555 205.948 129.514 205.964 129.465C205.981 129.415 205.977 129.361 205.953 129.315C205.93 129.268 205.889 129.233 205.84 129.216C205.79 129.2 205.736 129.203 205.69 129.227L201.136 131.519C201.09 131.542 201.054 131.583 201.038 131.632C201.021 131.682 201.025 131.736 201.049 131.782C201.072 131.829 201.113 131.864 201.162 131.881C201.212 131.897 201.266 131.894 201.312 131.87Z" fill="#E0E0E0"/>
<path d="M201.786 132.818L206.339 130.526C206.386 130.502 206.421 130.461 206.438 130.412C206.454 130.363 206.45 130.309 206.427 130.262C206.404 130.215 206.363 130.18 206.314 130.163C206.264 130.147 206.21 130.151 206.164 130.174L201.61 132.466C201.564 132.489 201.528 132.53 201.512 132.58C201.495 132.629 201.499 132.683 201.522 132.73C201.546 132.776 201.586 132.812 201.636 132.828C201.685 132.845 201.739 132.841 201.786 132.818Z" fill="#E0E0E0"/>
<path d="M210.748 151.474C210.494 151.603 210.218 151.679 209.935 151.7C209.652 151.721 209.367 151.685 209.098 151.596C208.829 151.506 208.58 151.363 208.366 151.177C208.152 150.99 207.977 150.763 207.852 150.508L200.594 135.992L204.437 134.082L211.695 148.598C211.95 149.105 211.994 149.693 211.816 150.232C211.639 150.772 211.254 151.218 210.748 151.474Z" fill="#7FCFEF"/>
<path d="M346.847 149.423C347.928 147.089 345.941 144.178 345.219 143.174L345.788 140.622L348.252 130.098C349.337 129.494 352.37 127.703 352.382 125.132C352.393 122.561 351.094 122.076 350.017 121.782C348.94 121.487 346.854 122.007 346.854 122.007C346.854 122.007 345.17 120.727 344.069 120.54C342.969 120.353 341.605 120.192 340.505 122.569C339.405 124.945 341.411 127.817 342.133 128.822L340.322 136.584L339.134 141.722C338.053 142.326 335.02 144.117 335.008 146.688C334.997 149.259 336.296 149.744 337.373 150.034C338.45 150.325 340.517 149.889 340.517 149.889C340.517 149.889 342.182 151.245 343.286 151.436C344.39 151.627 345.754 151.803 346.847 149.423Z" fill="#7FCFEF"/>
<path d="M341.617 122.018C341.725 121.805 341.891 121.625 342.094 121.499C342.303 121.347 342.533 121.228 342.778 121.147C343.081 121.049 343.396 120.998 343.714 120.995C344.031 121 344.345 121.051 344.646 121.147C344.891 121.231 345.121 121.351 345.33 121.503C345.534 121.628 345.698 121.808 345.804 122.022C345.777 122.045 345.605 121.839 345.254 121.621C345.046 121.494 344.822 121.394 344.589 121.323C344.304 121.241 344.01 121.197 343.714 121.193C343.417 121.198 343.122 121.24 342.836 121.319C342.602 121.39 342.379 121.49 342.171 121.617C341.819 121.835 341.648 122.041 341.617 122.018Z" fill="#263238"/>
<path d="M351.033 122.935C350.804 122.868 350.58 122.781 350.365 122.675C349.841 122.464 349.283 122.349 348.718 122.336C348.155 122.33 347.6 122.478 347.114 122.763C346.732 122.989 346.568 123.203 346.545 123.18C346.522 123.157 346.667 122.916 347.038 122.645C347.532 122.307 348.119 122.13 348.718 122.137C349.309 122.148 349.891 122.287 350.422 122.546C350.65 122.632 350.858 122.765 351.033 122.935Z" fill="#263238"/>
<path d="M352.492 69.1076C352.363 68.9395 331.33 90.4538 331.33 90.4538C330.644 89.9947 329.813 89.8058 328.996 89.9235C328.179 90.0412 327.435 90.4572 326.907 91.0912C326.379 91.7253 326.104 92.5324 326.136 93.357C326.168 94.1815 326.504 94.965 327.079 95.5564C327.655 96.1478 328.429 96.5051 329.252 96.5595C330.076 96.6138 330.89 96.3613 331.538 95.8507C332.186 95.3401 332.623 94.6075 332.763 93.7943C332.902 92.9811 332.736 92.1449 332.296 91.447C333.01 90.683 338.469 84.953 340.757 85.4572C340.765 85.4648 353.65 70.6127 352.492 69.1076ZM331.482 94.6787C331.197 95.0724 330.801 95.3727 330.345 95.5415C329.889 95.7103 329.393 95.7401 328.92 95.6271C328.447 95.5141 328.018 95.2634 327.687 94.9067C327.356 94.55 327.139 94.1033 327.062 93.623C326.985 93.1427 327.052 92.6504 327.255 92.2083C327.458 91.7662 327.787 91.3942 328.202 91.1393C328.616 90.8843 329.096 90.7579 329.582 90.7759C330.068 90.794 330.538 90.9557 330.932 91.2407C331.194 91.4304 331.416 91.67 331.585 91.9456C331.754 92.2213 331.867 92.5276 331.918 92.847C331.968 93.1665 331.955 93.4927 331.879 93.807C331.803 94.1213 331.666 94.4176 331.475 94.6787H331.482Z" fill="#E0E0E0"/>
<path opacity="0.3" d="M341.579 80.0061L342.767 81.0872C342.767 81.0872 352.11 70.479 352.492 69.1077C352.385 69.1737 352.287 69.2548 352.202 69.3483L351.343 70.1734L349.051 72.4654L341.579 80.0061Z" fill="black"/>
<path d="M338.775 84.2196C340.639 85.633 339.879 93.5022 339.768 94.5336C338.952 94.6555 338.21 95.0753 337.685 95.7121C337.16 96.3489 336.89 97.1574 336.926 97.9818C336.962 98.8062 337.302 99.588 337.881 100.176C338.459 100.765 339.235 101.118 340.059 101.168C340.882 101.218 341.695 100.961 342.341 100.447C342.987 99.9334 343.419 99.1986 343.555 98.3846C343.69 97.5707 343.52 96.7353 343.076 96.0397C342.632 95.3441 341.946 94.8375 341.151 94.6176C341.151 94.6176 343.691 64.6383 343.477 64.6497C341.598 64.7605 338.775 84.2196 338.775 84.2196ZM340.83 95.4427C341.303 95.5547 341.733 95.8045 342.065 96.1605C342.396 96.5166 342.615 96.9629 342.692 97.4431C342.77 97.9234 342.704 98.4159 342.502 98.8584C342.3 99.301 341.971 99.6737 341.557 99.9295C341.144 100.185 340.663 100.313 340.177 100.295C339.691 100.278 339.221 100.117 338.826 99.8328C338.431 99.5485 338.13 99.1534 337.959 98.6977C337.789 98.242 337.758 97.746 337.87 97.2725C337.944 96.9579 338.079 96.661 338.268 96.3988C338.457 96.1365 338.696 95.9141 338.971 95.7442C339.246 95.5743 339.551 95.4602 339.87 95.4084C340.189 95.3567 340.515 95.3684 340.83 95.4427Z" fill="#E0E0E0"/>
<path d="M340.83 95.4427C340.83 95.4656 340.616 95.4045 340.23 95.4198C339.686 95.4413 339.165 95.6428 338.748 95.9928C338.444 96.2491 338.209 96.5771 338.063 96.9473C337.918 97.3175 337.867 97.7181 337.915 98.1129C337.97 98.5777 338.163 99.0154 338.469 99.3697C338.794 99.7529 339.233 100.022 339.722 100.138C340.21 100.253 340.723 100.209 341.185 100.011C341.618 99.8327 341.987 99.5279 342.243 99.1367C342.464 98.8053 342.597 98.4241 342.633 98.0278C342.668 97.6315 342.604 97.2327 342.446 96.8676C342.232 96.3674 341.857 95.9533 341.38 95.691C341.04 95.5077 340.826 95.4656 340.83 95.4427C340.883 95.4427 340.936 95.4517 340.987 95.4695C341.136 95.5007 341.279 95.5521 341.414 95.6223C341.923 95.8724 342.329 96.2927 342.56 96.8103C342.759 97.2437 342.832 97.7242 342.771 98.197C342.709 98.6698 342.517 99.1159 342.214 99.4844C341.912 99.8529 341.512 100.129 341.06 100.281C340.608 100.433 340.122 100.456 339.659 100.345C339.195 100.235 338.771 99.9963 338.437 99.6569C338.102 99.3175 337.869 98.8908 337.765 98.4255C337.661 97.9603 337.69 97.4751 337.848 97.0254C338.006 96.5757 338.288 96.1795 338.66 95.882C339.103 95.5221 339.659 95.33 340.23 95.3396C340.382 95.3381 340.534 95.3561 340.681 95.3931C340.788 95.4198 340.834 95.4351 340.83 95.4427Z" fill="#263238"/>
<path d="M338.775 84.2196C338.775 84.2196 338.775 84.1508 338.775 84.0133L338.855 83.4097C338.935 82.8711 339.054 82.088 339.203 81.0872C339.52 79.074 339.986 76.1594 340.731 72.5838C341.109 70.6299 341.588 68.6969 342.167 66.7927C342.332 66.2675 342.539 65.7564 342.786 65.2647C342.852 65.1377 342.929 65.0163 343.015 64.9018C343.102 64.772 343.222 64.6678 343.363 64.6C343.363 64.6 343.405 64.6 343.424 64.5809H343.458C343.477 64.5809 343.458 64.5809 343.504 64.5809C343.55 64.5809 343.554 64.6459 343.569 64.6535C343.57 64.6611 343.57 64.6688 343.569 64.6764V64.982V65.4099C343.508 66.5559 343.424 67.7248 343.34 68.9243C342.988 73.7337 342.576 79.0129 342.102 84.5557C341.812 88.0472 341.525 91.4317 341.258 94.6405V94.7246H341.17L341.193 94.5336C341.663 94.6657 342.099 94.8956 342.474 95.2084C342.848 95.5211 343.153 95.9095 343.367 96.3481C343.675 97.1403 343.679 98.0187 343.378 98.8137C343.077 99.6087 342.492 100.264 341.736 100.653C340.98 101.042 340.106 101.137 339.284 100.92C338.462 100.702 337.75 100.188 337.285 99.4766C336.923 98.8092 336.793 98.04 336.917 97.2908C337.041 96.5416 337.411 95.855 337.969 95.3396C338.471 94.8775 339.101 94.5768 339.776 94.4763L339.718 94.5374C340.047 91.2484 340.055 88.582 339.795 86.7828C339.72 86.0911 339.528 85.417 339.229 84.7887C339.113 84.579 338.965 84.3883 338.79 84.2234L338.931 84.3418C339.061 84.4702 339.173 84.6154 339.264 84.7735C339.581 85.3988 339.785 86.0751 339.867 86.7713C340.15 88.5782 340.165 91.2522 339.867 94.5488V94.6023H339.818C339.171 94.7031 338.568 94.9943 338.087 95.4389C337.55 95.9259 337.19 96.5776 337.064 97.2915C336.937 98.0055 337.052 98.7412 337.389 99.383C337.726 100.025 338.267 100.536 338.927 100.837C339.587 101.138 340.328 101.211 341.034 101.044C341.739 100.878 342.37 100.482 342.826 99.918C343.282 99.3542 343.537 98.6549 343.553 97.93C343.568 97.2051 343.342 96.4957 342.91 95.9134C342.478 95.3311 341.864 94.9088 341.166 94.7131L340.528 94.5374H341.189L341.097 94.6252C341.361 91.4203 341.644 88.0357 341.934 84.5443C342.392 79.0014 342.824 73.7222 343.187 68.9166C343.275 67.7172 343.363 66.5444 343.424 65.4061L343.443 64.982V64.7032L343.519 64.6803C343.519 64.8331 343.519 64.7261 343.519 64.7567H343.462H343.424C343.208 64.9009 343.039 65.1037 342.935 65.3411C342.688 65.8266 342.481 66.3312 342.316 66.85C341.734 68.7483 341.248 70.6747 340.861 72.622C340.12 76.1861 339.631 79.0969 339.291 81.1063C339.126 82.1071 338.996 82.8864 338.909 83.4212C338.863 83.6809 338.832 83.8834 338.805 84.0247C338.779 84.1661 338.775 84.2196 338.775 84.2196Z" fill="#263238"/>
<path opacity="0.2" d="M342.377 80.0367L340.788 79.838C340.788 79.838 342.698 65.8339 343.5 64.6459C343.521 64.7724 343.521 64.9014 343.5 65.0279L343.439 66.2159L343.21 69.44L342.377 80.0367Z" fill="black"/>
<path d="M341.342 83.6962C341.242 83.8323 341.103 83.9355 340.944 83.9927C340.785 84.05 340.613 84.0586 340.449 84.0176C340.285 83.9766 340.137 83.8877 340.024 83.7624C339.911 83.637 339.837 83.4808 339.813 83.3136C339.789 83.1464 339.815 82.9757 339.888 82.8233C339.961 82.6709 340.077 82.5437 340.223 82.4577C340.368 82.3718 340.536 82.3311 340.705 82.3407C340.873 82.3504 341.035 82.41 341.17 82.512C341.349 82.6472 341.467 82.8472 341.499 83.0688C341.531 83.2905 341.475 83.5159 341.342 83.6962Z" fill="#E0E0E0"/>
<path d="M341.342 83.6962C341.342 83.6962 341.369 83.6237 341.407 83.4976C341.461 83.326 341.461 83.142 341.407 82.9704C341.364 82.8496 341.293 82.741 341.199 82.6538C341.105 82.5666 340.992 82.5036 340.868 82.47C340.719 82.4294 340.561 82.4351 340.415 82.4862C340.269 82.5374 340.142 82.6316 340.051 82.7565C339.96 82.8821 339.91 83.0322 339.906 83.1871C339.903 83.342 339.947 83.4942 340.032 83.6237C340.101 83.7318 340.197 83.8207 340.309 83.8821C340.422 83.9435 340.549 83.9755 340.677 83.9751C340.858 83.979 341.035 83.924 341.181 83.8185C341.285 83.7459 341.334 83.6886 341.35 83.6962C341.365 83.7039 341.33 83.7765 341.231 83.8796C341.082 84.0225 340.887 84.1067 340.681 84.1164C340.526 84.126 340.371 84.0959 340.231 84.0291C340.09 83.9623 339.969 83.8609 339.879 83.7344C339.768 83.5754 339.708 83.386 339.708 83.192C339.708 82.998 339.768 82.8086 339.879 82.6496C339.993 82.4925 340.153 82.3747 340.337 82.3125C340.521 82.2502 340.72 82.2466 340.906 82.3019C341.06 82.3414 341.2 82.4203 341.313 82.5309C341.427 82.6415 341.509 82.7799 341.552 82.9322C341.606 83.1313 341.585 83.343 341.495 83.5282C341.411 83.658 341.35 83.7039 341.342 83.6962Z" fill="#263238"/>
<path d="M341.288 83.2187C341.288 83.2722 340.987 83.2378 340.647 83.276C340.307 83.3142 340.032 83.4097 340.005 83.36C339.978 83.3104 340.238 83.1232 340.624 83.0812C341.01 83.0392 341.308 83.169 341.288 83.2187Z" fill="#263238"/>
<path d="M340.826 83.8681C340.769 83.8681 340.746 83.5702 340.666 83.2226C340.586 82.8749 340.482 82.5999 340.532 82.5693C340.582 82.5388 340.777 82.7985 340.861 83.1767C340.945 83.5549 340.88 83.8758 340.826 83.8681Z" fill="#263238"/>
</g>
<g filter="url(#filter2_d_54_1568)">
<path d="M9.60058 47.4647V28.8891H17.1635C18.1719 28.8891 19.0829 29.1456 19.8967 29.6587C20.7282 30.154 21.3916 30.8351 21.887 31.702C22.3823 32.5688 22.63 33.533 22.63 34.5945C22.63 35.6559 22.3823 36.6201 21.887 37.4869C21.3916 38.3538 20.7282 39.0526 19.8967 39.5833C19.0829 40.0964 18.1719 40.3529 17.1635 40.3529H12.4665V47.4647H9.60058ZM12.4665 37.5931H17.1104C17.5881 37.5931 18.0215 37.4604 18.4107 37.195C18.7999 36.912 19.1095 36.5493 19.3395 36.107C19.5871 35.6471 19.711 35.1429 19.711 34.5945C19.711 34.046 19.5871 33.5507 19.3395 33.1084C19.1095 32.6661 18.7999 32.3123 18.4107 32.047C18.0215 31.7816 17.5881 31.6489 17.1104 31.6489H12.4665V37.5931ZM22.7457 47.4647L29.9371 28.8891H32.8561L39.9944 47.4647H36.9427L32.6969 36.2663C32.6438 36.1424 32.5376 35.8417 32.3784 35.364C32.2369 34.8864 32.0688 34.3556 31.8742 33.7718C31.6796 33.188 31.5027 32.6573 31.3435 32.1796C31.1843 31.6843 31.0781 31.3659 31.0251 31.2243L31.6354 31.1978C31.5292 31.4985 31.3966 31.8789 31.2373 32.3389C31.0958 32.7988 30.9366 33.2853 30.7597 33.7984C30.6005 34.3114 30.4413 34.7979 30.282 35.2579C30.1228 35.7002 29.9901 36.0717 29.884 36.3724L25.6647 47.4647H22.7457ZM25.93 42.8473L26.9915 40.0875H35.4301L36.6508 42.8473H25.93ZM43.2636 47.4647V28.8891H51.1714C52.2329 28.8891 53.2059 29.1545 54.0904 29.6852C54.9927 30.1983 55.7092 30.9059 56.2399 31.8081C56.7706 32.6927 57.036 33.6922 57.036 34.8068C57.036 35.8151 56.7706 36.7528 56.2399 37.6196C55.7092 38.4865 55.0015 39.1853 54.117 39.716C53.2324 40.229 52.2506 40.4856 51.1714 40.4856H46.1295V47.4647H43.2636ZM54.3027 47.4647L49.5792 39.0791L52.5248 38.4157L57.779 47.4912L54.3027 47.4647ZM46.1295 37.7258H51.4368C51.9498 37.7258 52.4098 37.6019 52.8167 37.3543C53.2236 37.0889 53.542 36.7351 53.772 36.2928C54.002 35.8328 54.117 35.3286 54.117 34.7802C54.117 34.161 53.9666 33.6215 53.6659 33.1615C53.3828 32.6838 52.9759 32.3123 52.4452 32.047C51.9321 31.7816 51.3483 31.6489 50.6938 31.6489H46.1295V37.7258ZM59.7775 47.4647L66.9689 28.8891H69.8879L77.0263 47.4647H73.9746L69.7287 36.2663C69.6756 36.1424 69.5695 35.8417 69.4103 35.364C69.2688 34.8864 69.1007 34.3556 68.9061 33.7718C68.7115 33.188 68.5346 32.6573 68.3754 32.1796C68.2161 31.6843 68.11 31.3659 68.0569 31.2243L68.6673 31.1978C68.5611 31.4985 68.4284 31.8789 68.2692 32.3389C68.1277 32.7988 67.9685 33.2853 67.7916 33.7984C67.6323 34.3114 67.4731 34.7979 67.3139 35.2579C67.1547 35.7002 67.022 36.0717 66.9159 36.3724L62.6966 47.4647H59.7775ZM62.9619 42.8473L64.0234 40.0875H72.462L73.6827 42.8473H62.9619ZM95.2693 47.73C93.9778 47.73 92.7925 47.5 91.7134 47.0401C90.6342 46.5801 89.6966 45.9255 88.9005 45.0764C88.1044 44.2095 87.4852 43.1923 87.0429 42.0247C86.6184 40.8571 86.4061 39.5745 86.4061 38.1769C86.4061 36.8501 86.6361 35.6205 87.096 34.4883C87.5737 33.3384 88.2282 32.33 89.0597 31.4632C89.8912 30.5963 90.8554 29.924 91.9522 29.4464C93.049 28.9687 94.2343 28.7299 95.5081 28.7299C96.4103 28.7299 97.286 28.8714 98.1352 29.1545C99.0021 29.4199 99.7805 29.8002 100.47 30.2956C101.178 30.7732 101.753 31.3216 102.195 31.9408L100.285 33.9311C99.7716 33.418 99.2497 32.9934 98.719 32.6573C98.206 32.3035 97.6752 32.0381 97.1268 31.8612C96.5961 31.6843 96.0565 31.5958 95.5081 31.5958C94.6412 31.5958 93.8274 31.7639 93.0667 32.1C92.3237 32.4185 91.6691 32.8696 91.103 33.4534C90.5546 34.0372 90.1212 34.736 89.8027 35.5498C89.4843 36.3459 89.3251 37.2216 89.3251 38.1769C89.3251 39.1853 89.4755 40.1052 89.7762 40.9367C90.0946 41.7505 90.5369 42.4493 91.103 43.0331C91.6691 43.6169 92.3414 44.068 93.1198 44.3864C93.9159 44.6872 94.7916 44.8375 95.7469 44.8375C96.3307 44.8375 96.9057 44.7579 97.4718 44.5987C98.0379 44.4395 98.5686 44.2095 99.064 43.9088C99.5593 43.608 100.01 43.2542 100.417 42.8473L101.85 45.1825C101.443 45.6602 100.886 46.0936 100.179 46.4828C99.4886 46.872 98.7102 47.1816 97.8433 47.4116C96.9941 47.6239 96.1361 47.73 95.2693 47.73ZM112.961 47.6239C111.528 47.6239 110.246 47.3143 109.114 46.6951C107.981 46.0582 107.088 45.1914 106.433 44.0945C105.797 42.98 105.478 41.7239 105.478 40.3263V28.8626H108.344V40.0875C108.344 40.9898 108.556 41.8035 108.981 42.5289C109.406 43.2365 109.963 43.8026 110.653 44.2272C111.36 44.6518 112.13 44.8641 112.961 44.8641C113.846 44.8641 114.642 44.6518 115.35 44.2272C116.075 43.8026 116.65 43.2365 117.075 42.5289C117.499 41.8035 117.711 40.9898 117.711 40.0875V28.8626H120.445V40.3263C120.445 41.7239 120.117 42.98 119.463 44.0945C118.826 45.1914 117.941 46.0582 116.809 46.6951C115.677 47.3143 114.394 47.6239 112.961 47.6239ZM124.697 47.4647V44.811H127.695V31.5428H124.697V28.8891H133.56V31.5428H130.561V44.811H133.56V47.4647H124.697ZM138.059 47.4647V28.8891H145.33C146.657 28.8891 147.851 29.1103 148.912 29.5525C149.991 29.9948 150.911 30.6317 151.672 31.4632C152.433 32.2946 153.017 33.2765 153.424 34.4087C153.83 35.5409 154.034 36.797 154.034 38.1769C154.034 39.5568 153.83 40.8217 153.424 41.9716C153.017 43.1038 152.433 44.0857 151.672 44.9172C150.929 45.7309 150.018 46.359 148.939 46.8012C147.86 47.2435 146.657 47.4647 145.33 47.4647H138.059ZM140.925 44.9968L140.845 44.7049H145.197C146.135 44.7049 146.966 44.5545 147.692 44.2537C148.435 43.953 149.054 43.5284 149.549 42.98C150.062 42.4139 150.451 41.7239 150.717 40.9101C150.982 40.0964 151.115 39.1853 151.115 38.1769C151.115 37.1685 150.982 36.2663 150.717 35.4702C150.451 34.6564 150.062 33.9664 149.549 33.4003C149.036 32.8342 148.417 32.4008 147.692 32.1C146.966 31.7993 146.135 31.6489 145.197 31.6489H140.766L140.925 31.4101V44.9968ZM155.454 47.4647L162.645 28.8891H165.564L172.703 47.4647H169.651L165.405 36.2663C165.352 36.1424 165.246 35.8417 165.087 35.364C164.945 34.8864 164.777 34.3556 164.583 33.7718C164.388 33.188 164.211 32.6573 164.052 32.1796C163.893 31.6843 163.786 31.3659 163.733 31.2243L164.344 31.1978C164.238 31.4985 164.105 31.8789 163.946 32.3389C163.804 32.7988 163.645 33.2853 163.468 33.7984C163.309 34.3114 163.15 34.7979 162.99 35.2579C162.831 35.7002 162.698 36.0717 162.592 36.3724L158.373 47.4647H155.454ZM158.638 42.8473L159.7 40.0875H168.138L169.359 42.8473H158.638ZM175.972 47.4647V28.8891H183.88C184.941 28.8891 185.914 29.1545 186.799 29.6852C187.701 30.1983 188.417 30.9059 188.948 31.8081C189.479 32.6927 189.744 33.6922 189.744 34.8068C189.744 35.8151 189.479 36.7528 188.948 37.6196C188.417 38.4865 187.71 39.1853 186.825 39.716C185.941 40.229 184.959 40.4856 183.88 40.4856H178.838V47.4647H175.972ZM187.011 47.4647L182.288 39.0791L185.233 38.4157L190.487 47.4912L187.011 47.4647ZM178.838 37.7258H184.145C184.658 37.7258 185.118 37.6019 185.525 37.3543C185.932 37.0889 186.25 36.7351 186.48 36.2928C186.71 35.8328 186.825 35.3286 186.825 34.7802C186.825 34.161 186.675 33.6215 186.374 33.1615C186.091 32.6838 185.684 32.3123 185.154 32.047C184.64 31.7816 184.057 31.6489 183.402 31.6489H178.838V37.7258Z" fill="white"/>
<path d="M9.85041 77V56.6399H17.8199C19.2742 56.6399 20.5831 56.8823 21.7465 57.3671C22.9293 57.8518 23.9377 58.5499 24.7714 59.4612C25.6052 60.3726 26.2451 61.4488 26.6911 62.6898C27.1371 63.9308 27.3601 65.3075 27.3601 66.82C27.3601 68.3324 27.1371 69.7188 26.6911 70.9792C26.2451 72.2202 25.6052 73.2964 24.7714 74.2078C23.957 75.0997 22.9584 75.7881 21.7756 76.2729C20.5928 76.7576 19.2742 77 17.8199 77H9.85041ZM12.9917 74.295L12.9044 73.9751H17.6745C18.7022 73.9751 19.6136 73.8103 20.4086 73.4806C21.223 73.151 21.9016 72.6856 22.4446 72.0845C23.0069 71.464 23.4335 70.7078 23.7244 69.8158C24.0152 68.9238 24.1606 67.9252 24.1606 66.82C24.1606 65.7147 24.0152 64.7258 23.7244 63.8532C23.4335 62.9612 23.0069 62.205 22.4446 61.5845C21.8823 60.964 21.2036 60.4889 20.4086 60.1593C19.6136 59.8297 18.7022 59.6648 17.6745 59.6648H12.8172L12.9917 59.4031V74.295ZM40.1301 77.2909C38.6952 77.2909 37.367 77.0291 36.1454 76.5055C34.9432 75.982 33.8864 75.2548 32.975 74.3241C32.083 73.374 31.385 72.2687 30.8808 71.0083C30.3961 69.7285 30.1537 68.3324 30.1537 66.82C30.1537 65.3075 30.3961 63.9211 30.8808 62.6607C31.385 61.3809 32.083 60.2756 32.975 59.3449C33.8864 58.3948 34.9432 57.6579 36.1454 57.1344C37.367 56.6108 38.6952 56.3491 40.1301 56.3491C41.565 56.3491 42.8836 56.6108 44.0858 57.1344C45.3074 57.6579 46.3642 58.3948 47.2562 59.3449C48.1675 60.295 48.8656 61.41 49.3503 62.6898C49.8545 63.9502 50.1066 65.3269 50.1066 66.82C50.1066 68.313 49.8545 69.6995 49.3503 70.9792C48.8656 72.2396 48.1675 73.3449 47.2562 74.295C46.3642 75.2452 45.3074 75.982 44.0858 76.5055C42.8836 77.0291 41.565 77.2909 40.1301 77.2909ZM40.1301 74.2368C41.119 74.2368 42.0207 74.0526 42.8351 73.6842C43.6689 73.3158 44.3864 72.8019 44.9875 72.1427C45.5886 71.464 46.0539 70.6787 46.3836 69.7867C46.7326 68.8754 46.9071 67.8864 46.9071 66.82C46.9071 65.7535 46.7326 64.7743 46.3836 63.8823C46.0539 62.9709 45.5886 62.1856 44.9875 61.5263C44.3864 60.8477 43.6689 60.3241 42.8351 59.9557C42.0207 59.5873 41.119 59.4031 40.1301 59.4031C39.1412 59.4031 38.2299 59.5873 37.3961 59.9557C36.5817 60.3241 35.8642 60.838 35.2437 61.4972C34.6426 62.1565 34.1772 62.9418 33.8476 63.8532C33.518 64.7452 33.3531 65.7341 33.3531 66.82C33.3531 67.8864 33.518 68.8754 33.8476 69.7867C34.1772 70.6981 34.6426 71.4834 35.2437 72.1427C35.8642 72.8019 36.5817 73.3158 37.3961 73.6842C38.2299 74.0526 39.1412 74.2368 40.1301 74.2368ZM68.7942 77.2909C67.689 77.2909 66.6613 77.1454 65.7111 76.8546C64.7804 76.5637 63.9272 76.1274 63.1516 75.5457C62.3953 74.9446 61.7167 74.2078 61.1156 73.3352L63.2679 70.8629C64.2181 72.2202 65.1294 73.1607 66.002 73.6842C66.8746 74.2078 67.912 74.4695 69.1142 74.4695C69.851 74.4695 70.52 74.3532 71.1211 74.1205C71.7222 73.8878 72.1973 73.5679 72.5463 73.1607C72.8953 72.7535 73.0698 72.2881 73.0698 71.7645C73.0698 71.4155 73.0117 71.0859 72.8953 70.7756C72.779 70.4654 72.5948 70.1842 72.3427 69.9321C72.11 69.6801 71.7998 69.4474 71.4119 69.2341C71.0435 69.0208 70.6072 68.8366 70.1031 68.6815C69.5989 68.5069 69.0172 68.3615 68.3579 68.2452C67.3108 68.0319 66.3995 67.7507 65.6239 67.4017C64.8482 67.0526 64.1987 66.6164 63.6751 66.0928C63.1516 65.5693 62.7638 64.9779 62.5117 64.3186C62.2596 63.6399 62.1336 62.8837 62.1336 62.0499C62.1336 61.2355 62.3081 60.4792 62.6571 59.7812C63.0255 59.0831 63.52 58.482 64.1405 57.9779C64.7804 57.4543 65.5269 57.0568 66.3801 56.7853C67.2333 56.4945 68.1543 56.3491 69.1433 56.3491C70.1903 56.3491 71.1502 56.4848 72.0228 56.7563C72.8953 57.0277 73.6709 57.4349 74.3496 57.9779C75.0283 58.5014 75.5906 59.151 76.0366 59.9266L73.8261 62.1081C73.4383 61.4682 73.002 60.9349 72.5172 60.5083C72.0324 60.0623 71.4992 59.7327 70.9175 59.5194C70.3358 59.2867 69.7153 59.1704 69.056 59.1704C68.2998 59.1704 67.6405 59.2867 67.0782 59.5194C66.5158 59.7521 66.0698 60.0817 65.7402 60.5083C65.43 60.9155 65.2748 61.4003 65.2748 61.9626C65.2748 62.3698 65.3524 62.7479 65.5075 63.097C65.6626 63.4266 65.8953 63.7272 66.2056 63.9986C66.5352 64.2507 66.9715 64.4834 67.5144 64.6967C68.0574 64.8906 68.707 65.0651 69.4632 65.2202C70.5297 65.4529 71.4798 65.7535 72.3136 66.1219C73.1474 66.4709 73.8552 66.8878 74.4369 67.3726C75.0186 67.8574 75.4549 68.4003 75.7457 69.0014C76.056 69.6025 76.2111 70.2521 76.2111 70.9501C76.2111 72.2493 75.9106 73.374 75.3095 74.3241C74.7083 75.2742 73.8552 76.0111 72.7499 76.5346C71.6446 77.0388 70.3261 77.2909 68.7942 77.2909ZM80.6619 77V56.6399H93.4888V59.6648H83.8032V73.9751H93.4888V77H80.6619ZM82.0871 68.0706V65.0457H91.8891V68.0706H82.0871ZM106.439 77.1745C104.869 77.1745 103.463 76.8352 102.222 76.1565C100.981 75.4585 100.002 74.5083 99.2844 73.3061C98.5863 72.0845 98.2373 70.7078 98.2373 69.1759V56.6108H101.379V68.9141C101.379 69.9031 101.611 70.795 102.077 71.59C102.542 72.3657 103.153 72.9862 103.909 73.4515C104.685 73.9169 105.528 74.1496 106.439 74.1496C107.409 74.1496 108.282 73.9169 109.057 73.4515C109.852 72.9862 110.482 72.3657 110.948 71.59C111.413 70.795 111.646 69.9031 111.646 68.9141V56.6108H114.642V69.1759C114.642 70.7078 114.283 72.0845 113.566 73.3061C112.867 74.5083 111.898 75.4585 110.657 76.1565C109.416 76.8352 108.01 77.1745 106.439 77.1745Z" fill="white"/>
<path d="M13.3315 134V88.775H31.7445C34.1996 88.775 36.4178 89.3995 38.3991 90.6486C40.4234 91.8546 42.0386 93.5129 43.2446 95.6234C44.4506 97.7339 45.0536 100.081 45.0536 102.666C45.0536 105.25 44.4506 107.597 43.2446 109.708C42.0386 111.818 40.4234 113.52 38.3991 114.812C36.4178 116.061 34.1996 116.685 31.7445 116.685H20.3091V134H13.3315ZM20.3091 109.966H31.6153C32.7783 109.966 33.8335 109.643 34.7811 108.997C35.7286 108.308 36.4824 107.425 37.0423 106.348C37.6453 105.228 37.9468 104.001 37.9468 102.666C37.9468 101.33 37.6453 100.124 37.0423 99.0475C36.4824 97.9707 35.7286 97.1093 34.7811 96.4632C33.8335 95.8172 32.7783 95.4941 31.6153 95.4941H20.3091V109.966ZM54.2788 134V88.775H82.7706V95.4941H61.2564V127.281H82.7706V134H54.2788ZM57.4446 114.166V107.446H79.2172V114.166H57.4446ZM102.557 134V95.4941H89.894V88.775H122.585V95.4941H109.535V134H102.557Z" fill="white"/>
</g>
<defs>
<filter id="filter0_d_54_1568" x="-4" y="149" width="284" height="42" filterUnits="userSpaceOnUse" color-interpolation-filters="sRGB">
<feFlood flood-opacity="0" result="BackgroundImageFix"/>
<feColorMatrix in="SourceAlpha" type="matrix" values="0 0 0 0 0 0 0 0 0 0 0 0 0 0 0 0 0 0 127 0" result="hardAlpha"/>
<feOffset dy="2"/>
<feGaussianBlur stdDeviation="2"/>
<feComposite in2="hardAlpha" operator="out"/>
<feColorMatrix type="matrix" values="0 0 0 0 0 0 0 0 0 0 0 0 0 0 0 0 0 0 0.25 0"/>
<feBlend mode="normal" in2="BackgroundImageFix" result="effect1_dropShadow_54_1568"/>
<feBlend mode="normal" in="SourceGraphic" in2="effect1_dropShadow_54_1568" result="shape"/>
</filter>
<filter id="filter1_i_54_1568" x="175" y="0" width="191" height="193" filterUnits="userSpaceOnUse" color-interpolation-filters="sRGB">
<feFlood flood-opacity="0" result="BackgroundImageFix"/>
<feBlend mode="normal" in="SourceGraphic" in2="BackgroundImageFix" result="shape"/>
<feColorMatrix in="SourceAlpha" type="matrix" values="0 0 0 0 0 0 0 0 0 0 0 0 0 0 0 0 0 0 127 0" result="hardAlpha"/>
<feOffset dy="2"/>
<feGaussianBlur stdDeviation="1.5"/>
<feComposite in2="hardAlpha" operator="arithmetic" k2="-1" k3="1"/>
<feColorMatrix type="matrix" values="0 0 0 0 0 0 0 0 0 0 0 0 0 0 0 0 0 0 0.25 0"/>
<feBlend mode="normal" in2="shape" result="effect1_innerShadow_54_1568"/>
</filter>
<filter id="filter2_d_54_1568" x="5.60057" y="28.7299" width="188.887" height="113.27" filterUnits="userSpaceOnUse" color-interpolation-filters="sRGB">
<feFlood flood-opacity="0" result="BackgroundImageFix"/>
<feColorMatrix in="SourceAlpha" type="matrix" values="0 0 0 0 0 0 0 0 0 0 0 0 0 0 0 0 0 0 127 0" result="hardAlpha"/>
<feOffset dy="4"/>
<feGaussianBlur stdDeviation="2"/>
<feComposite in2="hardAlpha" operator="out"/>
<feColorMatrix type="matrix" values="0 0 0 0 0 0 0 0 0 0 0 0 0 0 0 0 0 0 0.25 0"/>
<feBlend mode="normal" in2="BackgroundImageFix" result="effect1_dropShadow_54_1568"/>
<feBlend mode="normal" in="SourceGraphic" in2="effect1_dropShadow_54_1568" result="shape"/>
</filter>
<radialGradient id="paint0_radial_54_1568" cx="0" cy="0" r="1" gradientUnits="userSpaceOnUse" gradientTransform="translate(267 112.5) rotate(175.646) scale(98.7851 194.582)">
<stop stop-color="#FF8711" stop-opacity="0.67"/>
<stop offset="1" stop-color="#FF8711"/>
</radialGradient>
</defs>
</svg>
